<svg width="17" height="17" viewBox="0 0 17 17" fill="none" xmlns="http://www.w3.org/2000/svg">
    <path d="M8.50004 6.37492C9.66879 6.37492 10.625 7.33117 10.625 8.49992C10.625 9.66867 9.66879 10.6249 8.50004 10.6249C7.33129 10.6249 6.37504 9.66867 6.37504 8.49992C6.37504 7.33117 7.33129 6.37492 8.50004 6.37492ZM8.50004 4.95825C6.54504 4.95825 4.95837 6.54492 4.95837 8.49992C4.95837 10.4549 6.54504 12.0416 8.50004 12.0416C10.455 12.0416 12.0417 10.4549 12.0417 8.49992C12.0417 6.54492 10.455 4.95825 8.50004 4.95825ZM1.41671 9.20825H2.83337C3.22296 9.20825 3.54171 8.8895 3.54171 8.49992C3.54171 8.11033 3.22296 7.79158 2.83337 7.79158H1.41671C1.02712 7.79158 0.708374 8.11033 0.708374 8.49992C0.708374 8.8895 1.02712 9.20825 1.41671 9.20825ZM14.1667 9.20825H15.5834C15.973 9.20825 16.2917 8.8895 16.2917 8.49992C16.2917 8.11033 15.973 7.79158 15.5834 7.79158H14.1667C13.7771 7.79158 13.4584 8.11033 13.4584 8.49992C13.4584 8.8895 13.7771 9.20825 14.1667 9.20825ZM7.79171 1.41659V2.83325C7.79171 3.22284 8.11046 3.54158 8.50004 3.54158C8.88962 3.54158 9.20837 3.22284 9.20837 2.83325V1.41659C9.20837 1.027 8.88962 0.708252 8.50004 0.708252C8.11046 0.708252 7.79171 1.027 7.79171 1.41659ZM7.79171 14.1666V15.5833C7.79171 15.9728 8.11046 16.2916 8.50004 16.2916C8.88962 16.2916 9.20837 15.9728 9.20837 15.5833V14.1666C9.20837 13.777 8.88962 13.4583 8.50004 13.4583C8.11046 13.4583 7.79171 13.777 7.79171 14.1666ZM4.24296 3.24408C3.96671 2.96783 3.51337 2.96783 3.24421 3.24408C2.96796 3.52033 2.96796 3.97367 3.24421 4.24283L3.99504 4.99367C4.27129 5.26992 4.72462 5.26992 4.99379 4.99367C5.26296 4.71742 5.27004 4.26408 4.99379 3.99492L4.24296 3.24408ZM13.005 12.0062C12.7288 11.7299 12.2755 11.7299 12.0063 12.0062C11.73 12.2824 11.73 12.7358 12.0063 13.0049L12.7571 13.7558C13.0334 14.032 13.4867 14.032 13.7559 13.7558C14.0321 13.4795 14.0321 13.0262 13.7559 12.757L13.005 12.0062ZM13.7559 4.24283C14.0321 3.96658 14.0321 3.51325 13.7559 3.24408C13.4796 2.96783 13.0263 2.96783 12.7571 3.24408L12.0063 3.99492C11.73 4.27117 11.73 4.7245 12.0063 4.99367C12.2825 5.26284 12.7359 5.26992 13.005 4.99367L13.7559 4.24283ZM4.99379 13.0049C5.27004 12.7287 5.27004 12.2753 4.99379 12.0062C4.71754 11.7299 4.26421 11.7299 3.99504 12.0062L3.24421 12.757C2.96796 13.0333 2.96796 13.4866 3.24421 13.7558C3.52046 14.0249 3.97379 14.032 4.24296 13.7558L4.99379 13.0049Z"
          fill="#222222"/>
</svg>
