<svg width="45" height="45" viewBox="0 0 45 45" fill="none" xmlns="http://www.w3.org/2000/svg">
    <path fill-rule="evenodd" clip-rule="evenodd"
          d="M26.8742 26.5155C25.817 26.5155 24.9295 25.6653 24.9295 24.6178C24.9295 23.5702 25.817 22.6932 26.8742 22.6932C27.9313 22.6932 28.7893 23.5714 28.7893 24.6189C28.7893 25.6653 27.9313 26.5155 26.8742 26.5155ZM27.3232 30.1977C26.3391 31.1728 24.8199 31.6458 22.6808 31.6458H22.6502C20.5111 31.6458 18.9942 31.1728 18.0101 30.1977C17.9384 30.1266 17.8815 30.0422 17.8427 29.9493C17.8038 29.8564 17.7839 29.7569 17.7839 29.6564C17.7839 29.5558 17.8038 29.4563 17.8427 29.3634C17.8815 29.2705 17.9384 29.1862 18.0101 29.1151C18.0819 29.044 18.167 28.9876 18.2608 28.9491C18.3545 28.9107 18.4549 28.8909 18.5564 28.8909C18.6578 28.8909 18.7583 28.9107 18.852 28.9491C18.9458 28.9876 19.0309 29.044 19.1027 29.1151C19.7815 29.7877 20.9412 30.1147 22.6502 30.1147L22.6655 30.1159H22.6808C24.3897 30.1159 25.5506 29.7877 26.2307 29.1151C26.3024 29.044 26.3876 28.9876 26.4813 28.9491C26.575 28.9107 26.6755 28.8909 26.7769 28.8909C26.8784 28.8909 26.9788 28.9107 27.0726 28.9491C27.1663 28.9876 27.2515 29.044 27.3232 29.1151C27.3949 29.1862 27.4518 29.2705 27.4907 29.3634C27.5295 29.4563 27.5495 29.5558 27.5495 29.6564C27.5495 29.7569 27.5295 29.8564 27.4907 29.9493C27.4518 30.0422 27.3949 30.1266 27.3232 30.1977ZM16.544 24.6178C16.544 23.5714 17.4314 22.6932 18.4874 22.6932C19.5446 22.6932 20.4014 23.5714 20.4014 24.6189C20.4014 25.6653 19.5446 26.5155 18.4874 26.5155C17.4314 26.5155 16.544 25.6653 16.544 24.6178ZM32.0929 12.5331C32.8083 12.5331 33.3917 13.11 33.3917 13.8189C33.3917 14.5277 32.8083 15.1058 32.0929 15.1058C31.7485 15.1055 31.4183 14.9698 31.1748 14.7285C30.9313 14.4873 30.7944 14.1601 30.7941 13.8189C30.7941 13.11 31.3763 12.5331 32.0929 12.5331ZM36.8095 22.5344C36.8086 21.6414 36.4502 20.7853 35.8129 20.1538C35.1757 19.5224 34.3117 19.1673 33.4105 19.1664C32.5985 19.1664 31.8536 19.4501 31.2679 19.9219C29.1959 18.6315 26.5654 17.8537 23.7451 17.6891L25.2159 13.0808L29.2584 14.0244C29.3113 14.7338 29.6328 15.3972 30.1584 15.8816C30.6841 16.3661 31.375 16.6358 32.0929 16.6368C32.8467 16.6359 33.5694 16.3387 34.1024 15.8104C34.6353 15.2821 34.935 14.5659 34.9356 13.8189C34.9347 13.0721 34.6349 12.3562 34.1019 11.8281C33.569 11.3001 32.8465 11.003 32.0929 11.0021C30.9968 11.0021 30.0433 11.621 29.5696 12.5238L24.8718 11.4283C24.6824 11.3843 24.4831 11.4128 24.314 11.5081C24.1449 11.6033 24.0183 11.7584 23.9596 11.9422L22.1328 17.661C19.0944 17.7346 16.2387 18.5159 14.0136 19.8822C13.4173 19.4182 12.681 19.166 11.9228 19.1664C11.0216 19.1673 10.1576 19.5224 9.52038 20.1538C8.88315 20.7853 8.52474 21.6414 8.5238 22.5344C8.52393 23.08 8.658 23.6173 8.91445 24.1001C9.1709 24.5829 9.54204 24.9966 9.99584 25.3056C9.95831 25.5738 9.9394 25.8442 9.93927 26.1149C9.93927 28.4366 11.3005 30.5959 13.7743 32.1958C16.1444 33.7292 19.283 34.5735 22.6089 34.5735C25.9348 34.5735 29.0734 33.7292 31.4447 32.1958C33.9173 30.5959 35.2797 28.4354 35.2797 26.1149C35.2797 25.8662 35.2621 25.6198 35.2326 25.3757C35.7155 25.0718 36.1132 24.6521 36.3889 24.1555C36.6645 23.6588 36.8092 23.1012 36.8095 22.5344Z"
          fill="currentColor"/>
</svg>
