<svg width="45" height="45" viewBox="0 0 45 45" fill="none" xmlns="http://www.w3.org/2000/svg">
    <path d="M35.5334 14.454C34.603 14.8407 33.5905 15.1189 32.5476 15.2273C33.6304 14.6076 34.4412 13.6287 34.828 12.474C33.812 13.0563 32.6989 13.4646 31.5382 13.6808C31.0531 13.1812 30.4663 12.7832 29.8145 12.5116C29.1627 12.2399 28.4599 12.1006 27.7497 12.1021C24.8764 12.1021 22.5657 14.3457 22.5657 17.0989C22.5657 17.4856 22.6143 17.8722 22.6934 18.2442C18.3911 18.0274 14.5539 16.0474 12.003 13.0159C11.5382 13.7807 11.2946 14.6515 11.2976 15.5378C11.2976 17.2717 12.2128 18.8007 13.6084 19.6999C12.7859 19.6687 11.9827 19.4509 11.2641 19.0643V19.1258C11.2641 21.5539 13.0459 23.5661 15.4205 24.0289C14.9746 24.1405 14.516 24.1976 14.0553 24.1988C13.7178 24.1988 13.3986 24.1666 13.0763 24.1227C13.733 26.1026 15.6455 27.5408 17.9228 27.5876C16.1411 28.9321 13.9094 29.7229 11.4861 29.7229C11.0513 29.7229 10.6499 29.7082 10.2334 29.6614C12.532 31.0819 15.2593 31.9021 18.1965 31.9021C27.7315 31.9021 32.949 24.2925 32.949 17.6877C32.949 17.4709 32.949 17.2542 32.9338 17.0374C33.9432 16.3257 34.828 15.444 35.5334 14.454Z"
          fill="currentColor" />
</svg>
