<svg width="24" height="22" viewBox="0 0 24 22" fill="none" xmlns="http://www.w3.org/2000/svg">
    <path fill-rule="evenodd" clip-rule="evenodd"
          d="M17.4876 2.29034C17.4876 2.29034 18.447 2.32872 19.4449 2.44385C17.1997 0.678438 15.0697 0.160327 13.3427 0.160327C10.9802 0.160327 9.37438 1.12506 9.25766 1.19518L9.25538 1.19655L10.0038 0.00681276C10.0038 0.00681276 7.01023 -0.281026 5.95482 2.88521C5.68617 2.21358 5.43671 1.23493 5.43671 1.23493C5.43671 1.23493 3.88238 2.59737 4.61157 4.8617C2.82697 4.20927 0.274791 3.30737 0.178844 3.28818C0.0445191 3.26899 0.00614057 3.32656 0.00614057 3.32656C0.00614057 3.32656 -0.032238 3.38413 0.0828977 3.48007C0.29398 3.65278 4.32373 6.62712 5.20644 7.2028C5.01454 7.89361 5.01454 8.21983 5.20644 8.54605C5.47509 8.9874 5.49428 9.21767 5.4559 9.54389C5.41752 9.87011 5.07211 12.6909 4.99535 13.0363C4.96437 13.1758 4.81459 13.459 4.64948 13.7712C4.40554 14.2325 4.12814 14.757 4.15103 14.9745C4.1894 15.3391 4.68833 16.8934 5.12968 17.0661C5.4559 17.1812 6.26185 17.4307 6.79915 17.4307C6.99104 17.4307 7.16374 17.3923 7.2405 17.3155C7.56672 17.0277 7.66267 16.9701 7.89294 16.9701H7.95051C7.99445 16.9701 8.04242 16.9742 8.09441 16.9785H8.09442C8.15595 16.9837 8.22311 16.9893 8.29591 16.9893C8.60294 16.9893 9.00592 16.9318 9.29375 16.6631C9.49275 16.4641 9.75997 16.231 10.011 16.012L10.011 16.012C10.2925 15.7664 10.5537 15.5386 10.6754 15.3966C10.9632 15.032 11.1167 14.5331 11.04 14.0342C10.9824 13.5736 11.2319 13.1707 11.5197 12.7677C11.8843 12.288 12.5559 11.4244 12.5559 11.4244C13.88 12.4223 14.7051 13.9382 14.7051 15.6269C14.7051 18.6204 12.0954 21.0383 8.87159 21.0383C8.37267 21.0383 7.89294 20.9807 7.4132 20.8656C8.89078 21.3837 10.1381 21.5564 11.1551 21.5564C13.3235 21.5564 14.4749 20.7696 14.4749 20.7696C14.4749 20.7696 14.0719 21.2877 13.4195 21.8826H13.4386C17.027 21.3837 18.7733 18.4285 18.7733 18.4285C18.7733 18.4285 18.6389 19.388 18.4662 20.0404C23.1228 16.5434 22.4758 12.1897 22.4221 11.8283L22.4192 11.8082C22.443 11.8438 22.6357 12.0778 22.8383 12.3238L22.8384 12.3239C22.9632 12.4754 23.0917 12.6315 23.1868 12.7485C23.9544 4.84251 17.4876 2.29034 17.4876 2.29034ZM10.1381 14.9169C10.079 14.9908 9.87187 15.1785 9.6746 15.3573C9.61574 15.4107 9.55776 15.4632 9.50484 15.5118C9.42483 15.5851 9.34251 15.6584 9.26109 15.731L9.26102 15.731C9.10813 15.8672 8.95842 16.0006 8.83321 16.1258C8.75645 16.2026 8.60294 16.2409 8.37267 16.2409H8.16159H8.04645H7.96969H7.79699C8.08483 15.8572 8.92916 14.9745 9.217 14.7826C9.5624 14.5523 9.73511 14.322 9.52403 13.919C9.31294 13.5161 8.75645 13.612 8.75645 13.612C8.75645 13.612 9.08267 13.4777 9.37051 13.4777C9.00592 13.3817 8.54537 13.4777 8.33429 13.6888C8.18078 13.8295 8.14666 14.209 8.11255 14.5885C8.09549 14.7783 8.07843 14.9681 8.04645 15.128C7.96053 15.5748 7.68994 15.8215 7.27603 16.1989L7.27574 16.1992L7.27529 16.1996L7.27481 16.2C7.22689 16.2437 7.17705 16.2892 7.12537 16.3369C6.85672 16.5864 6.66482 16.6631 6.51131 16.6631C6.18509 16.6055 5.8013 16.5096 5.53265 16.4137C5.34076 16.1642 5.05292 15.3391 4.97617 14.9936C5.01759 14.8555 5.14846 14.6081 5.2615 14.3944C5.30553 14.3112 5.34686 14.2331 5.37914 14.1685L5.41112 14.1072C5.62188 13.7036 5.74555 13.4668 5.78212 13.2474C5.85887 12.9212 6.10833 10.9063 6.20428 10.062C6.45374 10.3882 6.79915 10.9255 6.72239 11.2709C7.27888 10.4842 6.8759 9.71659 6.68401 9.40956C6.51131 9.10253 6.28104 8.48848 6.47293 7.83604C6.66482 7.18361 7.35564 5.37981 7.35564 5.37981C7.35564 5.37981 7.58591 5.78279 7.91213 5.70603C8.23834 5.62927 10.8673 1.67628 10.8673 1.67628C10.8673 1.67628 11.5773 3.23061 10.8289 4.36278C10.0613 5.49495 9.31294 5.70603 9.31294 5.70603C9.31294 5.70603 10.3684 5.89792 11.347 5.18792C11.75 6.1282 12.1338 7.10685 12.153 7.24117C12.1432 7.26388 12.1132 7.33536 12.0697 7.43904L12.0696 7.4392L12.0696 7.43929C11.8555 7.94926 11.3148 9.23714 11.2511 9.33281C11.2127 9.37118 10.944 9.44794 10.7521 9.48632C10.4259 9.58227 10.234 9.63983 10.1573 9.6974C10.0229 9.81254 9.40889 11.5012 9.12105 12.3263C8.77564 12.4223 8.43024 12.6142 8.18078 12.998C8.3151 12.902 8.73727 12.8444 9.04429 12.8061C9.31294 12.7869 10.1381 13.2282 10.3492 14.0534V14.0917C10.3875 14.3988 10.2916 14.6866 10.1381 14.9169ZM8.33429 15.1472C8.4702 14.9508 8.48727 14.6476 8.49773 14.4618L8.49773 14.4618L8.49773 14.4617L8.49774 14.4617C8.50057 14.4114 8.50291 14.3698 8.50699 14.3412C8.52618 14.2069 8.56456 13.9574 8.71808 13.919C8.87159 13.8807 9.23619 13.9382 9.23619 14.2069C9.23619 14.3787 9.1088 14.4595 8.9668 14.5495C8.90259 14.5902 8.8354 14.6328 8.77564 14.6866C8.68811 14.7742 8.54353 14.9269 8.44281 15.0333L8.44269 15.0334C8.38891 15.0902 8.34765 15.1338 8.33429 15.1472ZM15.9908 11.482C16.1827 10.5034 16.2019 9.65902 16.1443 8.96821C16.8927 9.96605 17.3533 11.175 17.4876 12.4223C17.5068 12.5758 17.6603 12.7293 17.8138 12.8828C17.9481 12.998 18.1016 13.1515 18.1016 13.2474C18.1016 13.6888 18.0633 14.1301 17.9865 14.5715C17.9683 14.626 17.8122 14.7151 17.6816 14.7896L17.6816 14.7896L17.6815 14.7896L17.6603 14.8018C17.4684 14.8977 17.2957 14.9936 17.2573 15.1472C16.8351 16.6247 15.9332 17.9296 14.7243 18.8507C16.5089 16.9893 17.3724 13.919 15.9908 11.482ZM14.7819 19.0234C16.0292 18.0639 16.9887 16.7207 17.4108 15.2047C17.4257 15.1602 17.5323 15.0928 17.6331 15.029C17.6627 15.0103 17.6917 14.9919 17.7178 14.9745C17.9097 14.8785 18.1016 14.7634 18.14 14.6099C18.2168 14.1685 18.2551 13.708 18.2551 13.2474C18.2551 13.0747 18.0824 12.902 17.9097 12.7293C17.8855 12.7003 17.8577 12.67 17.8295 12.6394L17.8295 12.6394C17.7461 12.5488 17.6603 12.4556 17.6603 12.3839C17.5068 10.9831 16.9503 9.65902 16.0868 8.56523C15.7092 6.29971 14.2171 5.57587 14.1325 5.5348L14.1295 5.53333L14.1318 5.53684C14.1973 5.63406 15.1553 7.05538 14.4749 8.71875C13.8403 10.2452 12.3166 10.1927 11.8905 10.178H11.8904H11.8904H11.8904C11.8398 10.1763 11.8047 10.1751 11.7884 10.1771C11.6348 10.1771 11.04 10.9447 10.2916 12.3647C10.1957 12.3263 9.79268 12.2304 9.33213 12.3071C9.67754 11.3477 10.1957 9.98524 10.2916 9.87011C10.3222 9.83953 10.5111 9.78458 10.6838 9.73439L10.684 9.73431L10.6848 9.73409C10.7284 9.7214 10.771 9.70901 10.8097 9.6974C11.1743 9.60146 11.347 9.54389 11.4046 9.46713C11.443 9.40956 11.6348 8.96821 11.8267 8.50767C11.9994 8.50767 12.4408 8.46929 12.4792 8.4501C12.5176 8.41172 12.8821 7.47145 12.8821 7.35631C12.8821 7.26036 12.1338 5.399 11.8459 4.689C11.9803 4.53548 12.1146 4.34359 12.2489 4.13251C16.1827 4.55467 19.253 7.89361 19.253 11.9425C19.253 15.0512 17.43 17.7569 14.7819 19.0234ZM10.6754 2.82762C10.6754 2.82762 10.8481 3.59519 10.4067 4.1133C9.85026 4.74654 9.37053 4.72736 9.38971 4.72736L10.6754 2.82762ZM6.24266 13.7272L6.08915 14.4947C6.08915 14.4947 6.39618 14.4564 6.39618 14.8018C6.39618 15.0704 6.08915 15.435 5.83969 15.4542C5.59023 15.4734 5.49428 15.1664 5.55185 14.9937C5.60942 14.8402 6.24266 13.7272 6.24266 13.7272ZM9.17862 7.31792C9.85025 7.45225 10.0421 8.23901 9.67754 8.66117C9.31295 9.06415 8.39186 9.63983 7.85456 9.77415C7.73942 10.2155 6.76077 10.0236 7.12537 8.6228C7.12537 8.6228 7.29807 9.29442 7.47077 9.23685C7.64348 9.17928 9.60078 6.109 9.60078 6.109C9.60078 6.109 9.35132 6.91495 9.17862 7.31792ZM7.48988 4.1901C7.48988 4.1901 7.14447 1.71468 8.8715 0.678463C8.86541 0.681074 8.85363 0.685502 8.83685 0.691809C8.48367 0.824568 5.91445 1.79033 7.48988 4.1901ZM11.2126 1.92579C12.5367 1.42687 14.3788 1.15822 17.238 1.69552C15.9715 1.06228 14.6475 0.736059 13.3234 0.71687C12.8245 0.71687 12.3639 0.755248 11.9418 0.832005C10.445 1.10066 9.21691 2.17526 8.79474 3.61445C8.79474 3.61445 9.10177 3.13472 9.83096 2.6358L9.86138 2.59451L9.8614 2.59448L9.86141 2.59447L9.86143 2.59444M11.2126 1.92579C11.1742 1.77228 11.0399 1.46525 10.9248 1.21579L11.2126 1.92579ZM10.9248 1.21579C10.5367 1.67774 10.1309 2.22866 9.86146 2.59441L10.9248 1.21579ZM22.6494 11.1942C21.7859 8.87227 20.5578 6.89577 17.8521 5.11117C15.2423 3.38413 12.4407 3.51846 12.2872 3.53765H12.2488C12.3448 3.49927 12.4407 3.48008 12.5367 3.46089C13.1315 3.269 13.8991 3.11548 14.6667 3.01954C16.7007 2.7317 18.754 3.42251 20.1548 4.90008L20.1932 4.93846C21.7859 6.62712 22.611 8.73794 22.6494 11.1942ZM20.3467 17.3156C20.0589 17.6993 19.7326 18.1023 19.3488 18.4861C21.8243 13.7272 19.464 9.37119 19.368 9.19849C19.5407 9.37119 19.7134 9.56309 19.867 9.73579C21.7667 11.8466 21.997 15.0128 20.3467 17.3156ZM6.66474 5.37987C4.48186 5.30524 5.12877 2.83617 5.2016 2.55818L5.20636 2.53985C5.20636 2.55904 5.35987 4.5931 6.66474 5.37987ZM9.00586 7.70176L8.00801 9.40961C8.00801 9.40961 8.9291 8.98744 9.2937 8.45014C9.58154 7.9896 9.00586 7.70176 9.00586 7.70176ZM6.0315 6.07064C6.14664 6.16658 6.26177 6.33929 6.12745 6.58875C6.05069 6.72307 5.93556 6.70388 5.76285 6.62713C5.53258 6.51199 4.15095 5.70604 2.90365 4.8809C4.32366 5.37982 5.76285 5.91712 5.99312 6.03226L6.0315 6.07064Z"
          fill="currentColor"/>
</svg>
