<svg width="56" height="56" viewBox="0 0 56 56" fill="none" xmlns="http://www.w3.org/2000/svg">
<mask id="mask0_34_544" style="mask-type:luminance" maskUnits="userSpaceOnUse" x="0" y="0" width="56" height="56">
<path d="M56 0H0V56H56V0Z" fill="white"/>
</mask>
<g mask="url(#mask0_34_544)">
<path d="M14.1929 33.6163L15.566 23.2748L3.63679 14.9929L14.5362 18.6833L17.1108 14.7355L26.5083 8.89959L47.2343 20.3139L48.3071 37.7357L39.0812 50.5661L31.7864 51.6818L35.5625 44.7731V38.1219L32.8162 32.9297L30.027 31.0845L25.7359 35.5044V40.1817L22.3889 43.3142L18.1407 43.8291L16.2526 44.9019L13.163 43.9149L11.8757 39.2805L14.1929 36.0193V33.6163Z" fill="white"/>
<path d="M33.2454 14.9071C30.9711 14.4351 28.4823 14.5638 28.4823 14.5638C28.4823 14.5638 27.667 18.34 22.6035 19.3269C22.6464 19.3269 29.2976 21.6012 33.2454 14.9071Z" fill="#94A6C3"/>
<path d="M35.3051 49.1501C38.0514 47.0045 40.1111 44.0437 41.0551 40.6966C41.0981 40.5679 41.4842 40.3533 41.7417 40.1817C42.1708 39.9242 42.5999 39.7097 42.6858 39.3664C42.8574 38.3794 42.9432 37.3496 42.9432 36.3197C42.9432 35.9335 42.557 35.5473 42.1708 35.1611C41.8704 34.9036 41.5701 34.6033 41.5701 34.3887C41.141 30.4838 39.3387 26.8364 36.4637 24.1759L36.1633 24.4763C38.9525 27.0938 40.7548 30.6554 41.141 34.4316C41.1839 34.7749 41.5272 35.1182 41.8704 35.4615C42.1708 35.7189 42.5141 36.1051 42.5141 36.2768C42.5141 37.2637 42.4283 38.2507 42.2566 39.2376C42.2137 39.4093 41.8275 39.5809 41.5272 39.7526C41.0981 39.9671 40.7119 40.1817 40.626 40.525C39.5962 44.1724 37.2361 47.3478 34.1036 49.4075C34.6614 48.206 36.4208 44.3011 37.3648 42.3272L37.1932 35.9764L31.7435 30.6984L28.6539 31.1275L25.2639 36.6201C25.2639 36.6201 26.8516 38.6369 24.6202 40.997C22.4318 43.3142 20.7154 43.8291 20.7154 43.8291L19.1276 42.9709C19.5997 42.3701 20.5437 41.469 21.2732 40.8683C22.5176 39.8384 23.762 39.7526 23.762 38.6369C23.8049 36.3197 21.3161 36.9634 21.3161 36.9634L20.415 37.8216L20.0288 40.997L18.1407 43.3571L17.9261 43.3142L14.8366 42.6276C14.8366 42.6276 16.7246 41.6406 17.025 40.525C17.3254 39.4522 16.4243 35.8906 16.3814 35.676C16.4243 35.7189 17.2825 36.4484 17.6687 37.6499C18.3553 35.7618 19.2564 33.9596 19.5138 33.7879C19.7713 33.6163 23.2471 31.7711 23.2471 31.7711L22.0885 34.8178L22.9467 34.3458L25.0064 29.2823C25.0064 29.2823 27.0233 28.2953 28.5251 28.2953C31.2285 28.2524 35.2193 24.9483 33.417 19.0266C33.9319 19.2411 42.8574 23.7039 44.4022 32.4577C45.5608 39.1947 41.7417 45.5026 35.3051 49.1501Z" fill="#94A6C3"/>
<path d="M25.0923 15.8512C26.0792 14.6926 25.693 12.9761 25.693 12.9761L22.818 17.2243C22.7751 17.2243 23.8479 17.2672 25.0923 15.8512Z" fill="#0A192B"/>
<path d="M15.4373 39.0661L15.7806 37.3497C15.7806 37.3497 14.3645 39.8385 14.2358 40.1818C14.1071 40.568 14.3216 41.2545 14.8795 41.2116C15.4373 41.1687 16.1239 40.3534 16.1239 39.7527C16.1239 38.9803 15.4373 39.0661 15.4373 39.0661Z" fill="#0A192B"/>
<path d="M40.9264 11.7747C40.9264 11.7747 43.0719 11.8605 45.3033 12.118C40.2827 8.17017 35.5196 7.01158 31.6576 7.01158C26.3367 7.01158 22.7321 9.20004 22.5176 9.32877L24.1911 6.66829C24.1911 6.66829 17.497 6.02463 15.1369 13.1049C14.5362 11.603 13.9783 9.41459 13.9783 9.41459C13.9783 9.41459 10.5025 12.4613 12.1331 17.5248C8.14242 16.0658 2.43527 14.049 2.22072 14.0061C1.92034 13.9631 1.83452 14.0919 1.83452 14.0919C1.83452 14.0919 1.7487 14.2206 2.00616 14.4352C2.47818 14.8214 11.4895 21.4726 13.4634 22.7599C13.0343 24.3047 13.0343 25.0342 13.4634 25.7637C14.0641 26.7506 14.107 27.2655 14.0212 27.995C13.9354 28.7245 13.163 35.0324 12.9914 35.8048C12.8197 36.5772 11.0175 39.3235 11.1033 40.1388C11.1891 40.9541 12.3048 44.4299 13.2917 44.8161C14.0212 45.0736 15.8235 45.6314 17.025 45.6314C17.4541 45.6314 17.8403 45.5456 18.0119 45.374C18.7414 44.7303 18.956 44.6016 19.4709 44.6016C19.5138 44.6016 19.5567 44.6016 19.5996 44.6016C19.8142 44.6016 20.0717 44.6445 20.372 44.6445C21.0586 44.6445 21.9597 44.5157 22.6034 43.915C23.5475 42.9709 25.1781 41.6836 25.693 41.0829C26.3367 40.2675 26.6799 39.1519 26.5083 38.0362C26.3796 37.0063 26.9374 36.1052 27.5811 35.2041C28.3964 34.1313 29.8983 32.2003 29.8983 32.2003C32.8591 34.4317 34.7043 37.8216 34.7043 41.5978C34.7043 48.2919 28.8684 53.6987 21.6594 53.6987C20.5437 53.6987 19.4709 53.5699 18.3981 53.3125C21.7023 54.4711 24.4915 54.8573 26.7658 54.8573C31.6147 54.8573 34.1894 53.0979 34.1894 53.0979C34.1894 53.0979 33.2882 54.2565 31.8293 55.5868C31.8722 55.5868 31.8722 55.5868 31.8722 55.5868C39.8965 54.4711 43.8014 47.8628 43.8014 47.8628C43.8014 47.8628 43.501 50.0083 43.1148 51.4673C53.7997 43.443 51.9974 33.4018 51.9545 33.0585C52.0403 33.1872 53.1131 34.4746 53.6709 35.1612C55.3874 17.4818 40.9264 11.7747 40.9264 11.7747ZM24.4915 40.0101C24.3198 40.2246 23.5904 40.8683 23.0754 41.3403C22.5605 41.8123 22.0027 42.2844 21.5735 42.7135C21.4019 42.8851 21.0586 42.9709 20.5437 42.9709C20.372 42.9709 20.2004 42.9709 20.0717 42.9709C19.9858 42.9709 19.9 42.9709 19.8142 42.9709C19.7284 42.9709 19.6855 42.9709 19.6426 42.9709C19.5138 42.9709 19.3851 42.9709 19.2564 42.9709C19.9 42.1127 21.7881 40.1388 22.4318 39.7097C23.2042 39.1948 23.5904 38.6798 23.1183 37.7787C22.6463 36.8776 21.4019 37.0921 21.4019 37.0921C21.4019 37.0921 22.1314 36.7918 22.7751 36.7918C21.9597 36.5772 20.9299 36.7918 20.4579 37.2638C19.9429 37.7358 20.0288 39.4093 19.8142 40.4821C19.5996 41.5978 18.8702 42.1556 17.7545 43.1855C17.1537 43.7433 16.7246 43.915 16.3813 43.915C15.6518 43.7863 14.7936 43.5717 14.1929 43.3571C13.7638 42.7993 13.1201 40.9541 12.9484 40.1817C13.0772 39.7526 13.5921 38.8515 13.8496 38.3366C14.3645 37.3496 14.6649 36.7918 14.7507 36.2768C14.9224 35.5473 15.4802 31.0417 15.6947 29.1536C16.2526 29.8831 17.025 31.0846 16.8533 31.857C18.0978 30.0977 17.1966 28.3812 16.7675 27.6946C16.3813 27.0081 15.8664 25.6349 16.2955 24.176C16.7246 22.717 18.2694 18.6834 18.2694 18.6834C18.2694 18.6834 18.7843 19.5845 19.5138 19.4128C20.2433 19.2412 26.1221 10.4015 26.1221 10.4015C26.1221 10.4015 27.7098 13.8773 26.0363 16.4091C24.3198 18.9408 22.6463 19.4128 22.6463 19.4128C22.6463 19.4128 25.0064 19.8419 27.1949 18.2542C28.096 20.3569 28.9542 22.5453 28.9971 22.8457C28.8684 23.1461 27.152 27.2655 26.9803 27.523C26.8945 27.6088 26.2938 27.7805 25.8646 27.8663C25.1352 28.0808 24.706 28.2096 24.5344 28.3383C24.234 28.5958 22.8609 32.3719 22.2172 34.2171C21.4448 34.4317 20.6724 34.8608 20.1146 35.719C20.415 35.5044 21.359 35.3757 22.0456 35.2899C22.6463 35.247 24.4915 36.2339 24.9635 38.0791C24.9635 38.122 24.9635 38.122 24.9635 38.1649C25.0493 38.8515 24.8348 39.4952 24.4915 40.0101ZM20.4579 40.525C20.8441 39.9672 20.8012 39.0231 20.8441 38.7228C20.887 38.4224 20.9728 37.8645 21.3161 37.7787C21.6594 37.6929 22.4747 37.8216 22.4747 38.4224C22.4747 38.9802 21.8739 39.109 21.4448 39.4952C21.1444 39.7955 20.5437 40.4392 20.4579 40.525ZM37.5793 32.329C38.0084 30.1406 38.0513 28.2525 37.9226 26.7077C39.5961 28.9391 40.626 31.6425 40.9264 34.4317C40.9693 34.7749 41.3126 35.1182 41.6559 35.4615C41.9562 35.719 42.2995 36.0623 42.2995 36.2768C42.2995 37.2638 42.2137 38.2507 42.0421 39.2377C41.9992 39.3664 41.613 39.581 41.3126 39.7526C40.8835 39.9672 40.4973 40.1817 40.4114 40.525C39.4674 43.8292 37.4506 46.7471 34.7472 48.8068C38.7379 44.6445 40.6689 37.7787 37.5793 32.329ZM34.8759 49.193C37.6651 47.0475 39.8107 44.0437 40.7547 40.6537C40.7976 40.525 41.1838 40.3105 41.4413 40.1388C41.8704 39.9243 42.2995 39.6668 42.3854 39.3235C42.557 38.3366 42.6428 37.3067 42.6428 36.2768C42.6428 35.8906 42.2566 35.5044 41.8704 35.1182C41.6559 34.8608 41.3126 34.5604 41.3126 34.3458C40.9693 31.2133 39.7249 28.2525 37.7939 25.8066C36.9357 20.6573 33.5028 19.0696 33.417 19.0266C33.5028 19.1554 35.7342 22.3737 34.1894 26.1499C32.6017 29.9689 28.5251 29.3682 28.1818 29.4111C27.8385 29.4111 26.5083 31.1275 24.8348 34.3029C24.6202 34.2171 23.7191 34.0026 22.6892 34.1742C23.4616 32.0287 24.6202 28.982 24.8348 28.7245C24.9206 28.6387 25.5643 28.467 25.9934 28.3383C26.8087 28.1238 27.1949 27.995 27.3236 27.8234C27.4094 27.6946 27.8385 26.7077 28.2677 25.6778C28.6539 25.6778 29.6408 25.592 29.7266 25.5491C29.8124 25.4633 30.6278 23.3606 30.6278 23.1032C30.6278 22.8886 28.9542 18.7263 28.3106 17.1386C28.6109 16.7953 28.9113 16.3662 29.2117 15.8941C38.0084 16.8382 44.8742 24.3047 44.8742 33.3589C44.8742 40.3105 40.7976 46.3609 34.8759 49.193Z" fill="#0A192B"/>
<path d="M23.4616 26.0211C24.2769 25.0771 23.8478 23.3177 22.3459 23.0173C22.7321 22.1162 23.29 20.314 23.29 20.314C23.29 20.314 18.9131 27.1797 18.5269 27.3084C18.1407 27.4372 17.7545 25.9353 17.7545 25.9353C16.9392 29.0678 19.1276 29.4969 19.3851 28.5099C20.5866 28.2096 22.6463 26.9222 23.4616 26.0211Z" fill="#0A192B"/>
<path d="M19.7284 27.6947L21.9597 23.8756C21.9597 23.8756 23.2471 24.5193 22.6034 25.5491C21.7881 26.7507 19.7284 27.6947 19.7284 27.6947Z" fill="#FFD923"/>
<path d="M47.3202 45.374C46.6765 46.2322 45.947 47.1333 45.0888 47.9915C50.6243 37.3496 45.3463 27.6088 45.1317 27.2226C45.5179 27.6088 45.9041 28.0379 46.2474 28.4241C50.4956 33.1443 51.0105 40.2246 47.3202 45.374Z" fill="#D82122"/>
<path d="M52.4695 31.6854C50.5385 26.4931 47.7922 22.0733 41.7417 18.0826C35.9058 14.2206 29.6408 14.521 29.2976 14.5639C29.2547 14.5639 29.2117 14.5639 29.2117 14.5639C29.4263 14.4781 29.6409 14.4352 29.8554 14.3922C31.1856 13.9631 32.9021 13.6198 34.6185 13.4053C39.1671 12.7616 43.7585 14.3064 46.891 17.6106C46.934 17.6535 46.934 17.6535 46.9769 17.6964C50.5385 21.4725 52.3836 26.1928 52.4695 31.6854Z" fill="#D82122"/>
<path d="M40.3686 10.4445C33.9749 9.24304 29.8554 9.84379 26.8946 10.9595C26.8087 10.6162 26.5084 9.92962 26.2509 9.37177C25.3498 10.4445 24.4057 11.7319 23.805 12.5472C22.1743 13.6629 21.4878 14.7356 21.4878 14.7356C22.4318 11.5173 25.1781 9.11431 28.5252 8.51355C29.4692 8.34191 30.4991 8.25609 31.6148 8.25609C34.5756 8.299 37.5365 9.02849 40.3686 10.4445Z" fill="#D82122"/>
<path d="M16.7247 18.6834C11.7041 18.5118 13.3776 12.6759 13.4634 12.3326C13.4634 12.3755 13.8067 16.9241 16.7247 18.6834Z" fill="#D82122"/>
<path d="M21.6594 8.1702C17.7974 10.4874 18.5698 16.0229 18.5698 16.0229C14.8795 10.4016 21.3591 8.29894 21.6594 8.1702Z" fill="#D82122"/>
<path d="M15.3086 20.2281C15.5661 20.4427 15.8236 20.8289 15.5232 21.3867C15.3515 21.6871 15.0941 21.6442 14.7079 21.4726C14.193 21.2151 11.1034 19.4128 8.31416 17.5677C11.4896 18.6833 14.7079 19.8848 15.2228 20.1423C15.2228 20.1423 15.2657 20.1852 15.3086 20.2281Z" fill="white"/>
<path d="M9.79689 15.134C9.79689 15.134 11.4329 5.27682 21.7225 2.30675C32.0121 -0.663311 37.8672 3.38286 37.8672 3.38286L34.5522 6.5251L25.5972 6.39597L23.7029 7.08468L24.7792 5.49204L17.8047 9.15081L15.5659 11.8626L15.609 9.15081L13.4133 11.3891L9.79689 15.134Z" fill="#D82122"/>
<path d="M37.1353 3.81333C37.1353 3.81333 31.151 3.33984 27.9651 4.58813C29.2567 3.55506 30.2038 3.08157 30.2038 3.08157C30.2038 3.08157 21.9377 2.9094 17.0297 9.15083C18.3213 8.80648 20.3448 7.12775 20.3448 7.12775L24.8222 5.49206L24.3056 7.04166L30.0747 6.13773L33.648 6.48208L37.1353 3.81333Z" fill="#AF1C24"/>
<path d="M38.2976 7.60123L31.7536 6.13772L24.5638 6.65425L24.7791 5.49205L18.7948 8.37603L16.3408 10.313L16.4269 8.67734C16.4269 8.67734 10.0981 13.5414 11.3467 18.5345C12.5522 23.5277 18.1059 20.8589 18.1059 20.8589L24.1333 14.1009L42.646 10.5282L37.3505 8.20385L38.2976 7.60123Z" fill="white"/>
<path d="M46.4776 6.74028L45.5735 3.68412L43.2056 1.61799C43.2056 1.61799 39.8044 1.35973 39.0295 2.56497L38.1684 4.15761L40.1058 6.35288L43.9805 7.60116L43.7222 6.35288L46.4776 6.74028Z" fill="white"/>
<path d="M29.2567 10.4852C29.2567 10.4852 29.5581 9.71042 32.7009 8.80649C23.1002 8.20387 17.9339 18.4484 17.2881 19.008C16.6423 19.5245 14.6188 20.8159 15.9965 18.6637C14.7049 19.3524 12.7245 18.9219 14.6619 17.3723C10.6149 16.2532 15.9965 9.45215 15.9965 9.45215L13.0259 11.1309L9.58165 16.081L8.7206 20.945L9.88302 24.0012L12.6814 25.1203L16.8145 24.0012L19.3977 21.5476L20.3879 18.7928L22.8419 17.4154L28.1804 14.3162L32.4857 12.9818L39.288 12.5514L38.9436 11.4752C38.9436 11.4752 40.0199 10.9157 40.924 10.313C34.1217 8.84953 29.2567 10.4852 29.2567 10.4852Z" fill="#94A6C3"/>
<path d="M46.3487 6.18074C45.6168 5.10463 42.6031 4.93245 41.3115 4.24374C40.02 3.59808 40.2783 2.78023 40.6227 1.79021L38.9867 2.6511L38.0826 3.77025L39.8047 6.05161L44.153 7.68729L43.5072 6.00856C43.5933 6.05161 47.0806 7.25685 46.3487 6.18074Z" fill="#94A6C3"/>
<path d="M42.4309 4.02852C42.4309 4.02852 41.5268 3.59808 41.3976 3.08154C41.3976 3.8133 40.9241 3.85634 42.4309 4.02852Z" fill="#94A6C3"/>
<path d="M19.2684 14.3161C19.4837 13.8426 21.1197 11.6043 22.1099 11.2169C19.699 11.5182 18.881 12.3361 18.881 12.3361C18.881 12.3361 18.5796 14.1439 17.245 15.6074C17.245 15.6074 19.0532 14.7896 19.2684 14.3161Z" fill="#94A6C3"/>
<path d="M29.2566 12.3362L32.9591 11.3892L30.7634 11.1309C30.7634 11.1309 29.644 11.5614 29.2566 12.3362Z" fill="#0A192B"/>
<path d="M14.6188 20.8159C14.0591 20.7298 13.4563 19.955 13.4563 19.955C13.4563 19.955 13.3272 21.3324 14.6188 20.8159Z" fill="#0A192B"/>
<path d="M15.1354 23.0972C15.1354 23.0972 15.9534 22.7098 16.3839 21.5906C15.7381 22.1072 13.4563 22.4515 13.4563 22.4515C13.973 22.882 15.1354 23.0972 15.1354 23.0972Z" fill="#0A192B"/>
<path d="M48.3289 8.376L47.6832 6.95553C47.3387 6.22378 47.0374 5.6642 46.6499 5.19071L47.3387 5.23376L46.9082 4.24373C46.8652 4.15764 45.961 2.1776 43.1196 1.23062C40.4503 0.369736 38.8574 1.70411 38.2116 2.86631C36.1881 1.57498 30.5482 -1.00768 21.6363 1.7902C12.8535 4.54504 9.83984 10.8295 8.80658 15.4783C8.59132 15.2631 8.333 14.9618 8.20384 14.7035C7.98858 15.4783 8.41911 16.5114 8.54826 16.8557C8.41911 17.7597 8.333 18.5345 8.333 19.1801C8.03163 19.2662 7.08447 19.6536 6.697 20.5576C7.12753 20.3854 8.20384 20.5145 8.28995 20.5576C8.2469 20.6006 7.64416 21.0311 7.55805 21.5476C7.90247 21.4185 8.333 21.6337 8.333 21.6337C8.37605 21.935 8.41911 22.2363 8.50521 22.4946C9.10795 24.4746 10.6578 25.5507 12.8966 25.5507C12.9827 25.5507 13.1118 25.5507 13.198 25.5507C19.3975 25.2925 20.8183 20.3423 21.1196 18.8358C21.7224 18.6206 22.9279 18.1471 24.65 17.2431C25.511 17.0279 26.3721 16.8127 27.104 16.5544C27.2331 16.2101 27.3623 15.9088 27.4484 15.5644C27.5775 15.4783 27.6637 15.4353 27.7928 15.3492C31.8828 12.6374 40.192 13.2831 40.2781 13.2831L42.3446 13.4552L40.1059 11.6043C41.053 11.6043 42.1724 11.6474 43.0335 11.7765L45.5305 12.1639L43.507 10.6143C42.1724 9.62429 40.5364 8.84949 39.2018 8.28991L41.0961 8.07469L38.599 7.12771C37.4797 6.69727 36.3603 6.35291 35.284 6.13769C36.1881 5.6642 37.2213 5.23376 37.9102 4.97549C37.9532 5.10462 38.0394 5.23376 38.1255 5.36289C39.374 7.38598 43.7654 8.11773 44.282 8.20382L45.7888 8.46209L44.9278 7.25684C45.961 7.51511 46.9082 7.85946 46.9082 7.85946L48.3289 8.376ZM35.5853 7.51511L33.648 7.94555L36.1881 8.63426C36.2311 8.63426 38.3838 9.23689 40.4934 10.313C39.3309 10.313 38.2977 10.356 38.2546 10.356L36.5325 10.4421L38.3838 11.9487C35.7145 11.9056 30.9357 12.1639 27.7067 13.9287C27.7928 11.3461 26.4151 9.45211 26.4151 9.45211L17.7185 20.6006C17.7185 20.6006 18.7087 20.2563 19.4836 19.7828C18.8379 21.5045 17.2449 24.0442 13.198 24.2163C12.9827 24.2163 12.7674 24.2163 12.5952 24.2163C9.62458 23.9581 8.63437 19.3093 11.5189 19.7828C11.0023 19.1371 10.787 18.4914 10.787 18.4914C10.787 18.4914 11.7772 18.1901 12.2508 17.7166C10.3995 17.8027 10.0121 17.2862 11.7772 14.1009C12.7244 12.6374 13.9729 11.26 15.4367 10.1408C15.3075 10.7865 15.3075 11.1739 15.3075 11.1739L15.1353 13.6274L16.513 11.5613C16.5561 11.5182 18.6656 8.376 23.4875 6.69727L22.4543 8.03164L24.4347 7.42902C24.4347 7.47206 29.5149 6.00855 35.5853 7.51511ZM33.3036 5.75029C30.1177 5.31984 27.3623 5.57811 25.7263 5.87942L26.5873 4.58809L24.9944 4.97549C21.1196 5.87942 18.4934 7.77338 17.0296 9.1508C17.0296 9.06471 17.0727 9.02166 17.0727 8.93557L17.4602 7.42902L16.1255 8.20382C13.8868 9.5382 12.1216 11.3891 10.787 13.3691C12.2077 9.49515 15.3075 5.14767 21.9376 3.03849C29.9024 0.498869 35.1118 2.65109 37.1352 3.81329C36.0589 4.24373 34.4229 4.97549 33.3036 5.75029ZM43.2487 5.57811L41.4836 5.40593L42.5168 6.439C41.0961 6.00855 39.6323 5.40593 39.1587 4.63113C39.1157 4.58809 39.1157 4.54504 39.0726 4.45896L39.8045 4.20069L39.1157 3.64111C39.417 3.03849 40.3642 1.74716 42.6029 2.47891C43.6362 2.82327 44.3681 3.3398 44.8417 3.77025L42.646 3.55502L44.4542 4.8894C45.0139 5.31984 45.4014 5.6642 45.7027 6.09464C44.9278 5.87942 44.0237 5.6642 43.2487 5.57811Z" fill="#0A192B"/>
<path d="M15.0493 14.7035C14.5326 14.3161 14.8771 12.9818 14.8771 12.9818C14.8771 12.9818 13.2411 14.5314 15.0493 14.7035Z" fill="#0A192B"/>
<path d="M22.7987 19.5675C22.7987 19.5675 24.4778 19.094 26.1999 16.5544C27.922 14.0148 26.286 10.5282 26.286 10.5282C26.286 10.5282 23.0571 15.3922 21.0766 17.9318C21.0766 17.9318 21.1627 18.1901 21.1197 18.7927C21.0336 19.3953 21.6794 19.9118 21.6794 19.9118L22.7987 19.5675ZM25.8124 13.1969C25.8124 13.1969 26.243 14.9187 25.2527 16.0809C24.0473 17.5013 22.9709 17.4583 22.9709 17.4583L25.8124 13.1969Z" fill="white"/>
<path d="M10.0552 18.7927C9.92603 18.4053 9.79688 18.061 9.66772 17.6736C8.5053 17.2432 6.69708 16.5975 4.93192 15.9518C7.0415 17.3292 9.3233 18.6636 10.1844 19.1371C10.1413 19.008 10.0982 18.9219 10.0552 18.7927Z" fill="white"/>
</g>
</svg>
