<svg width="54" height="54" viewBox="0 0 54 54" fill="none" xmlns="http://www.w3.org/2000/svg">
<g clip-path="url(#clip0_14603_1187)">
<path d="M39.7119 7.98842C39.7119 7.98842 41.8213 8.07279 44.0151 8.32592C39.0791 4.44467 34.3963 3.3056 30.5994 3.3056C25.3682 3.3056 21.8244 5.45717 21.6135 5.58373L23.2588 2.9681C23.2588 2.9681 16.6776 2.33529 14.3572 9.29623C13.7666 7.81967 13.2182 5.6681 13.2182 5.6681C13.2182 5.6681 9.801 8.66342 11.4041 13.6415C7.48069 12.2072 1.86975 10.2244 1.65881 10.1822C1.3635 10.14 1.27913 10.2665 1.27913 10.2665C1.27913 10.2665 1.19475 10.3931 1.44787 10.604C1.91194 10.9837 10.7713 17.5228 12.7119 18.7884C12.2901 20.3072 12.2901 21.0244 12.7119 21.7415C13.3026 22.7119 13.3447 23.2181 13.2604 23.9353C13.176 24.6525 12.4166 30.854 12.2479 31.6134C12.0791 32.3728 10.3072 35.0728 10.3916 35.8744C10.476 36.6759 11.5729 40.0931 12.5432 40.4728C13.2604 40.7259 15.0323 41.2744 16.2135 41.2744C16.6354 41.2744 17.0151 41.19 17.1838 41.0212C17.901 40.3884 18.1119 40.2619 18.6182 40.2619C18.6604 40.2619 18.7026 40.2619 18.7447 40.2619C18.9557 40.2619 19.2088 40.304 19.5041 40.304C20.1791 40.304 21.0651 40.1775 21.6979 39.5869C22.626 38.6587 24.2291 37.3931 24.7354 36.8025C25.3682 36.0009 25.7057 34.904 25.5369 33.8072C25.4104 32.7947 25.9588 31.9087 26.5916 31.0228C27.3932 29.9681 28.8697 28.0697 28.8697 28.0697C31.7807 30.2634 33.5947 33.5962 33.5947 37.3087C33.5947 43.89 27.8573 49.2056 20.7698 49.2056C19.6729 49.2056 18.6182 49.079 17.5635 48.8259C20.8119 49.965 23.5541 50.3447 25.7901 50.3447C30.5572 50.3447 33.0885 48.615 33.0885 48.615C33.0885 48.615 32.2026 49.754 30.7682 51.0619C30.8104 51.0619 30.8104 51.0619 30.8104 51.0619C38.6994 49.965 42.5385 43.4681 42.5385 43.4681C42.5385 43.4681 42.2432 45.5775 41.8635 47.0119C52.3682 39.1228 50.5963 29.2509 50.5541 28.9134C50.6385 29.04 51.6932 30.3056 52.2416 30.9806C53.9291 13.5994 39.7119 7.98842 39.7119 7.98842Z" fill="#0A192B"/>
<path fill-rule="evenodd" clip-rule="evenodd" d="M22.535 36.7163L22.5352 36.7161L22.5354 36.716C22.969 36.3229 23.4242 35.9102 23.5542 35.7478C23.8917 35.2416 24.1026 34.6087 24.0183 33.9337V33.8494C23.5542 32.0353 21.7401 31.065 21.1495 31.1072C20.4745 31.1916 19.5464 31.3181 19.2511 31.5291C19.7995 30.6853 20.5589 30.2634 21.3183 30.0525C21.9511 28.2384 23.3011 24.5259 23.5964 24.2728C23.7651 24.1462 24.187 24.0197 24.9042 23.8087C25.3261 23.7244 25.9167 23.5556 26.0011 23.4712C26.1413 23.2609 27.3301 20.4291 27.8007 19.3081L27.8024 19.304C27.8973 19.0781 27.9626 18.9224 27.9839 18.8728C27.9417 18.5775 27.0979 16.4259 26.212 14.3587C24.0604 15.9197 21.7401 15.4978 21.7401 15.4978C21.7401 15.4978 23.3854 15.0337 25.0729 12.5447C26.7183 10.0556 25.1573 6.63843 25.1573 6.63843C25.1573 6.63843 19.3776 15.3291 18.6604 15.4978C17.9433 15.6666 17.437 14.7806 17.437 14.7806C17.437 14.7806 15.9183 18.7462 15.4964 20.1806C15.0745 21.615 15.5808 22.965 15.9604 23.64C16.3823 24.315 17.2683 26.0025 16.0448 27.7322C16.2136 26.9728 15.4542 25.7916 14.9058 25.0744C14.6948 26.9306 14.1464 31.3603 13.9776 32.0775C13.8972 32.5598 13.6254 33.0805 13.162 33.9678L13.0917 34.1025C13.0207 34.2444 12.9299 34.4162 12.8331 34.5992C12.5846 35.069 12.2968 35.613 12.2058 35.9166C12.3745 36.6759 13.0073 38.49 13.4292 39.0384C14.0198 39.2494 14.8636 39.4603 15.5808 39.5869C15.9183 39.5869 16.3401 39.4181 16.9308 38.8697C17.0453 38.7639 17.1557 38.6632 17.2619 38.5665L17.262 38.5663C18.172 37.7366 18.7669 37.1941 18.9558 36.2119C19.0261 35.8603 19.0636 35.4431 19.1011 35.0259C19.1761 34.1916 19.2511 33.3572 19.5886 33.0478C20.0526 32.5837 21.0651 32.3728 21.8667 32.5837C21.2339 32.5837 20.5167 32.8791 20.5167 32.8791C20.5167 32.8791 21.7401 32.6681 22.2042 33.5541C22.6683 34.44 22.2886 34.9462 21.5292 35.4525C20.8964 35.8744 19.0401 37.815 18.4073 38.6587H19.6729C20.1792 38.6587 20.5167 38.5744 20.6854 38.4056C20.9607 38.1304 21.2899 37.8371 21.626 37.5377L21.6263 37.5374L21.6271 37.5367C21.8057 37.3775 21.9864 37.2166 22.162 37.0556C22.278 36.9492 22.4052 36.834 22.5342 36.717L22.535 36.7163ZM24.1448 11.9962C25.1152 10.8571 24.7355 9.16963 24.7355 9.16963L21.9089 13.3462C21.8667 13.3462 22.9214 13.3884 24.1448 11.9962ZM14.6526 34.8197L14.9901 33.1322C14.9901 33.1322 13.5979 35.5791 13.4714 35.9166C13.3448 36.2963 13.5558 36.9713 14.1042 36.9291C14.6526 36.8869 15.3276 36.0854 15.3276 35.4947C15.3276 34.7353 14.6526 34.8197 14.6526 34.8197ZM22.5417 21.9947C23.3433 21.0665 22.9214 19.3369 21.4448 19.0415C21.8245 18.1556 22.3729 16.3837 22.3729 16.3837C22.3729 16.3837 18.0698 23.1337 17.6901 23.2603C17.3104 23.3869 16.9308 21.9103 16.9308 21.9103C16.1292 24.99 18.2808 25.4119 18.5339 24.4415C19.7151 24.1462 21.7401 22.8806 22.5417 21.9947Z" fill="white"/>
<path d="M19.9479 34.7473C19.9249 35.1557 19.8874 35.8225 19.5886 36.2541C19.618 36.2247 19.7088 36.1287 19.8272 36.0037L19.8275 36.0033C20.0489 35.7694 20.3665 35.4339 20.5589 35.2416C20.6902 35.1233 20.838 35.0296 20.9791 34.9401C21.2913 34.7422 21.5714 34.5645 21.5714 34.1869C21.5714 33.5962 20.7698 33.4697 20.4323 33.5541C20.0948 33.6384 20.0104 34.1869 19.9683 34.4822C19.9593 34.5451 19.9541 34.6368 19.9479 34.7473Z" fill="white"/>
<path d="M36.4214 28.1962C36.8433 26.0447 36.8854 24.1884 36.7589 22.6697C38.4042 24.8634 39.4167 27.5212 39.712 30.2634C39.7542 30.6009 40.0917 30.9384 40.4292 31.2759C40.7245 31.5291 41.062 31.8666 41.062 32.0775C41.062 33.0478 40.9776 34.0181 40.8089 34.9884C40.7689 35.1084 40.4256 35.3042 40.1385 35.468L40.0917 35.4947C39.6698 35.7056 39.2901 35.9166 39.2058 36.2541C38.2776 39.5025 36.2948 42.3712 33.637 44.3962C37.5604 40.3041 39.4589 33.5541 36.4214 28.1962Z" fill="white"/>
<path d="M39.5433 36.3806C38.6151 39.7134 36.5058 42.6666 33.7636 44.7759C39.5854 41.9916 43.5933 36.0431 43.5933 29.2087C43.5933 20.3072 36.8433 12.9666 28.1948 12.0384C27.8995 12.5025 27.6042 12.9244 27.3089 13.2619C27.9417 14.8228 29.587 18.915 29.587 19.1259C29.587 19.3791 28.7854 21.4462 28.7011 21.5306C28.6167 21.5728 27.6464 21.6572 27.2667 21.6572C26.8448 22.6697 26.4229 23.64 26.3386 23.7666C26.212 23.9353 25.8323 24.0619 25.0308 24.2728C24.9455 24.2984 24.8517 24.3257 24.7555 24.3536L24.7545 24.3539L24.7541 24.3541L24.7539 24.3541C24.3744 24.4645 23.9589 24.5853 23.8917 24.6525C23.6808 24.9056 22.5417 27.9009 21.7823 30.0103C22.7948 29.8416 23.6808 30.0525 23.8917 30.1369C25.537 27.015 26.8448 25.3275 27.1823 25.3275C27.2182 25.323 27.2954 25.3257 27.4068 25.3295C28.3437 25.3618 31.6935 25.4771 33.0886 22.1212C34.5846 18.4644 32.4785 15.3396 32.3344 15.1258L32.3292 15.1181L32.3358 15.1214C32.5219 15.2117 35.8022 16.803 36.6323 21.7837C38.5308 24.1884 39.7542 27.0994 40.0917 30.1791C40.0917 30.3367 40.2804 30.5417 40.4637 30.7408L40.464 30.7411L40.4643 30.7414C40.526 30.8084 40.5871 30.8748 40.6401 30.9384C41.0198 31.3181 41.3995 31.6978 41.3995 32.0775C41.3995 33.09 41.3151 34.1025 41.1464 35.0728C41.062 35.4103 40.6401 35.6634 40.2183 35.8744C40.1611 35.9125 40.0974 35.9528 40.0327 35.9937L40.032 35.9941L40.0319 35.9942C39.8102 36.1345 39.5759 36.2828 39.5433 36.3806Z" fill="white"/>
<path d="M14.737 17.4384C15.0323 16.89 14.7792 16.5103 14.5261 16.2994L14.4417 16.215C13.9355 15.9619 10.7714 14.7806 7.64954 13.6837C10.3917 15.4978 13.4292 17.2697 13.9355 17.5228C14.3152 17.6915 14.5683 17.7337 14.737 17.4384Z" fill="white"/>
<path d="M22.5352 36.7163L22.535 36.7165L22.5326 36.7186C22.4041 36.8351 22.2775 36.9498 22.162 37.0558C21.9864 37.2167 21.8057 37.3777 21.627 37.5369L21.6263 37.5375L21.626 37.5378C21.2898 37.8373 20.9607 38.1305 20.6854 38.4058C20.5167 38.5745 20.1792 38.6589 19.6729 38.6589H18.4073C18.6611 38.3205 19.1117 37.8057 19.6012 37.2832C19.8708 37.0337 20.1429 36.7952 20.39 36.5917C20.8226 36.2337 21.2552 35.9917 21.6337 35.78C22.3257 35.3929 22.8369 35.1069 22.8369 34.3979C22.8635 32.9603 21.8989 32.6819 21.1835 32.6721C21.3969 32.6227 21.6373 32.5839 21.8667 32.5839C21.0651 32.3729 20.0526 32.5839 19.5885 33.0479C19.251 33.3573 19.176 34.1917 19.101 35.0261C19.0635 35.4433 19.026 35.8605 18.9557 36.212C18.7668 37.1943 18.172 37.7367 17.262 38.5665L17.2592 38.569C17.1539 38.6651 17.0443 38.7649 16.9307 38.8698C16.9042 38.8944 16.878 38.9183 16.8522 38.9414L14.0619 38.3213C14.0619 38.3213 15.9181 37.351 16.2135 36.2542C16.478 35.3095 15.7948 32.402 15.6191 31.654C15.5986 31.5668 15.585 31.509 15.5806 31.487C15.5832 31.4896 15.5889 31.4947 15.5973 31.5024C15.725 31.6192 16.49 32.3191 16.8463 33.4276C17.5213 31.5713 18.4072 29.7995 18.6603 29.6307C18.8778 29.4857 21.4313 28.126 22.1459 27.7461C21.8334 28.5941 21.5341 29.4338 21.3182 30.0526C20.5589 30.2636 19.7995 30.6854 19.251 31.5292C19.5464 31.3183 20.4745 31.1917 21.1495 31.1073C21.7401 31.0651 23.5542 32.0354 24.0182 33.8495V33.9339C24.1026 34.6089 23.8917 35.2417 23.5542 35.7479C23.4242 35.9104 22.9689 36.3231 22.5352 36.7163Z" fill="#94A6C3"/>
<path d="M22.1217 29.9669C22.9874 29.888 23.7047 30.0622 23.8917 30.137C25.537 27.0151 26.8448 25.3276 27.1823 25.3276C27.2182 25.3232 27.2954 25.3258 27.4068 25.3296C28.3437 25.3619 31.6934 25.4772 33.0885 22.1214C34.5845 18.4645 32.4784 15.3397 32.3344 15.126L32.3292 15.1183L32.3358 15.1215C32.5181 15.21 35.67 16.739 36.5786 21.4841C38.6749 23.9306 39.9892 26.9861 40.3447 30.2213C40.3447 30.4323 40.64 30.7276 40.9353 30.9807C41.315 31.3604 41.6947 31.7401 41.6947 32.1198C41.6947 33.1323 41.6103 34.1448 41.4416 35.1151C41.3669 35.4138 41.0278 35.6134 40.6583 35.8309L40.658 35.831L40.6577 35.8312C40.61 35.8593 40.5617 35.8877 40.5135 35.9167C40.4561 35.9549 40.3923 35.9953 40.3274 36.0364L40.3271 36.0365C40.1055 36.1767 39.8711 36.325 39.8385 36.4229C38.9795 39.4682 37.1811 42.1884 34.7777 44.2489C38.7446 42.0167 41.7358 38.2642 42.9715 33.8014C43.3817 32.0424 43.4518 30.1996 43.1291 28.3229C41.6103 19.7167 32.8354 15.3292 32.3292 15.1183C34.101 20.9401 30.1775 24.1885 27.5197 24.2307C26.0431 24.2307 24.0603 25.201 24.0603 25.201L22.1217 29.9669Z" fill="#94A6C3"/>
<path d="M22.1908 15.3054C22.0312 15.3444 21.867 15.3805 21.6979 15.4135C21.6995 15.4135 21.7108 15.4168 21.7311 15.4228C21.7574 15.4306 21.7989 15.4428 21.8543 15.4581C21.9317 15.4282 22.0462 15.3796 22.1908 15.3054Z" fill="#94A6C3"/>
<path d="M22.1908 15.5425C22.9697 15.5818 24.6361 15.5022 26.212 14.3589C26.3721 14.7325 26.5309 15.1089 26.6838 15.4766C24.7456 15.9966 23.0078 15.7286 22.1908 15.5425Z" fill="#94A6C3"/>
<path d="M28.0085 14.9986C29.0583 14.5155 30.1189 13.7593 31.0849 12.6027C30.1513 12.3354 29.1855 12.1449 28.1948 12.0386C27.8995 12.5026 27.6042 12.9245 27.3089 13.262C27.4836 13.6929 27.7354 14.3168 28.0085 14.9986Z" fill="#94A6C3"/>
<path d="M36.4214 28.1964C36.8432 26.0448 36.8854 24.1886 36.7589 22.6698C38.4042 24.8636 39.4167 27.5214 39.712 30.2636C39.7542 30.6011 40.0917 30.9386 40.4292 31.2761C40.7245 31.5292 41.062 31.8667 41.062 32.0776C41.062 33.0479 40.9776 34.0183 40.8089 34.9886C40.7689 35.1085 40.4257 35.3043 40.1385 35.4681L40.0917 35.4948C39.6698 35.7058 39.2901 35.9167 39.2057 36.2542C38.2776 39.5026 36.2948 42.3714 33.637 44.3964C37.5604 40.3042 39.4589 33.5542 36.4214 28.1964Z" fill="#94A6C3"/>
<path d="M18.8712 23.6402L21.065 19.8855C21.065 19.8855 22.3306 20.5183 21.6978 21.5308C20.8962 22.7121 18.8712 23.6402 18.8712 23.6402Z" fill="#FFD923"/>
<path d="M45.9978 41.0214C45.365 41.8651 44.6478 42.751 43.804 43.5948C49.2462 33.1323 44.0572 23.5557 43.8462 23.176C44.2259 23.5557 44.6056 23.9776 44.9431 24.3573C49.1197 28.9979 49.6259 35.9589 45.9978 41.0214Z" fill="#D82122"/>
<path d="M51.0603 27.5635C49.1619 22.4588 46.4619 18.1135 40.5134 14.1901C34.7759 10.3932 28.6165 10.6885 28.279 10.7307C28.2369 10.7307 28.1947 10.7307 28.1947 10.7307C28.4056 10.6463 28.6165 10.6042 28.8275 10.562C30.1353 10.1401 31.8228 9.80259 33.5103 9.59165C37.9822 8.95884 42.4962 10.4776 45.5759 13.726C45.6181 13.7682 45.6181 13.7682 45.6603 13.8104C49.1619 17.5229 50.9759 22.1635 51.0603 27.5635Z" fill="#D82122"/>
<path d="M39.1634 6.68082C32.8775 5.49957 28.8275 6.0902 25.9165 7.18707C25.8322 6.84957 25.5369 6.17457 25.2837 5.62614C24.3978 6.68082 23.4697 7.94645 22.8791 8.74801C21.2759 9.84489 20.6009 10.8996 20.6009 10.8996C21.529 7.73551 24.229 5.37301 27.5197 4.78239C28.4478 4.61364 29.4603 4.52926 30.5572 4.52926C33.4681 4.57145 36.379 5.28864 39.1634 6.68082Z" fill="#D82122"/>
<path d="M15.9181 14.7808C10.9822 14.6121 12.6275 8.87457 12.7119 8.53707C12.7119 8.57926 13.0494 13.0511 15.9181 14.7808Z" fill="#D82122"/>
<path d="M20.7697 4.44482C16.9728 6.72295 17.7322 12.1651 17.7322 12.1651C14.1041 6.63857 20.4744 4.57139 20.7697 4.44482Z" fill="#D82122"/>
<path d="M11.0361 37.2689C10.9889 29.2427 12.7672 21.6492 13.6623 18.8558C15.7633 18.8558 16.3476 16.5738 16.3771 15.4328C16.623 15.3246 17.3626 14.9843 18.3541 14.4886C20.3607 17.5869 23.8033 15.7771 24.8459 14.3115C26.2721 14.4984 28.8944 16.1174 29.3902 21.5705C30.3049 32.223 22.1607 38.9214 19.3869 40.1312C16.6131 41.341 11.5672 41.1935 11.0361 37.2689Z" fill="white"/>
<path d="M18.9443 27.6492C18.6138 34.8492 15.2853 39.1476 13.6624 40.3968C15.2066 40.4951 19.5345 41.3705 24.1083 36.1771C30.9246 23.9607 26.8525 15.905 24.5214 14.7542C24.5214 19.4755 24.4624 24.0787 21.423 32.9607C21.7299 31.4735 22.1214 27.8951 22.2787 26.2919C21.9148 26.6066 20.7384 27.3187 18.9443 27.6492Z" fill="#94A6C3"/>
<path d="M14.9017 36.1771C15.3148 35.2427 16.1233 32.7778 16.0525 30.3935C15.2263 31.9043 14.941 34.8787 14.9017 36.1771Z" fill="#94A6C3"/>
<path d="M18.0885 21.718L12.1869 26.7049L12.718 23.4295L18.0885 21.718Z" fill="#D82122"/>
<path d="M20.0656 31.5442L15.9934 27.9147L21.3934 30.0983L20.0656 31.5442Z" fill="#D82122"/>
<path fill-rule="evenodd" clip-rule="evenodd" d="M18.636 13.4573L19.0235 14.0556C19.4459 14.7078 19.912 15.0572 20.3594 15.2323C20.8123 15.4096 21.3043 15.4307 21.8059 15.3304C22.8441 15.1227 23.791 14.421 24.1974 13.8498L24.4751 13.4594L24.9501 13.5216C26.8561 13.7714 29.666 15.7975 30.1843 21.4985L30.1845 21.5005L30.1847 21.5025C30.6618 27.0584 28.7728 31.5813 26.4194 34.8568C24.0828 38.1092 21.2466 40.1896 19.7061 40.8616C18.178 41.5281 16.0507 41.8195 14.1965 41.4029C12.3067 40.9783 10.5709 39.7671 10.2472 37.3758L10.2403 37.325L10.24 37.2737C10.1926 29.208 11.2645 21.5789 12.1961 18.6718L12.421 17.9699L13.1382 18.1396C13.6761 18.2668 14.0455 18.2037 14.3085 18.0821C14.5806 17.9562 14.8137 17.7324 15.0098 17.4209C15.4168 16.774 15.5687 15.8974 15.5813 15.4123L15.5943 14.9072L16.0569 14.7037C16.2884 14.6018 17.0161 14.2673 17.9985 13.7761L18.636 13.4573ZM25.1454 15.1994C24.4448 15.9484 23.3346 16.6496 22.1184 16.8929C21.3782 17.0409 20.5681 17.0251 19.7786 16.7161C19.1684 16.4773 18.6042 16.0763 18.1123 15.4971C17.7204 15.6883 17.3875 15.8461 17.1346 15.9636C17.0524 16.629 16.8332 17.515 16.3584 18.2696C16.0453 18.7671 15.5997 19.2404 14.9774 19.5283C14.544 19.7288 14.0591 19.8233 13.528 19.799C12.7108 22.8891 11.7942 29.8109 11.8332 37.2107C12.0562 38.7129 13.102 39.5238 14.5458 39.8482C16.0409 40.1841 17.8233 39.9443 19.069 39.401C20.3023 38.8631 22.9252 36.9895 25.1254 33.9271C27.3087 30.8882 29.0343 26.7363 28.5972 21.6407C28.1808 17.0662 26.2492 15.5768 25.1454 15.1994Z" fill="#1B314F"/>
<path d="M17.8525 24.2854C17.1207 25.7254 15.6787 26.1247 15.0492 26.1444C15.6492 26.469 17.2859 27.0356 19.0328 26.7051C21.2164 26.2919 24.0787 24.2854 22.6033 19.8887C19.3574 20.5969 18.7672 22.4854 17.8525 24.2854Z" fill="#1B314F"/>
<path d="M20.2661 22.5353C19.7732 22.9796 19.0405 24.0657 18.6609 24.6727C18.6216 24.7356 18.642 24.8188 18.7087 24.8511C19.9886 25.4704 21.5487 23.9312 20.4416 22.551C20.3979 22.4966 20.318 22.4886 20.2661 22.5353Z" fill="#FFD923"/>
<circle cx="15.5803" cy="21.069" r="0.531147" fill="#1B314F"/>
<circle cx="17.705" cy="20.1835" r="0.531147" fill="#1B314F"/>
<circle cx="20.2427" cy="19.0033" r="0.531147" fill="#1B314F"/>
<circle cx="13.81" cy="31.0426" r="0.531147" fill="#1B314F"/>
<circle cx="13.6328" cy="33.6984" r="0.531147" fill="#1B314F"/>
<circle cx="13.4558" cy="36.3541" r="0.531147" fill="#1B314F"/>
<circle cx="17.2919" cy="32.4" r="0.531147" fill="#1B314F"/>
<circle cx="19.1804" cy="34.2296" r="0.531147" fill="#1B314F"/>
<circle cx="23.0165" cy="28.151" r="0.531147" fill="#1B314F"/>
<circle cx="25.3771" cy="27.1476" r="0.531147" fill="#1B314F"/>
<circle cx="24.669" cy="29.7443" r="0.531147" fill="#1B314F"/>
<path d="M26.1986 23.1702L25.203 20.3495C25.1367 20.1616 25.2353 19.9571 25.4237 19.8924C28.0388 18.9936 34.3895 16.3422 37.556 14.9932C37.6873 14.9373 37.8371 14.9662 37.9377 15.0675C38.3265 15.4593 39.0258 16.199 39.7459 17.0622C39.8761 17.2182 39.8484 17.4484 39.6759 17.5557C37.522 18.8962 30.4134 21.8733 26.663 23.3811C26.4762 23.4562 26.2656 23.36 26.1986 23.1702Z" fill="#684B30"/>
<path fill-rule="evenodd" clip-rule="evenodd" d="M37.4057 14.6401C37.6808 14.5229 37.9981 14.5837 38.21 14.7971L37.9384 15.0666L38.21 14.7971C38.6052 15.1954 39.3121 15.9432 40.0405 16.8163L39.746 17.062L40.0405 16.8163C40.3071 17.1358 40.2654 17.6405 39.8787 17.8813C38.7737 18.5689 36.4309 19.6594 33.9219 20.7569C31.4023 21.8592 28.6838 22.9819 26.8061 23.7369L26.663 23.3809L26.8061 23.7369C26.4151 23.894 25.9759 23.6916 25.8369 23.2976L24.8413 20.477C24.7043 20.0886 24.9087 19.6636 25.2991 19.5294C27.8983 18.6361 34.2349 15.9909 37.4057 14.6401ZM37.6834 15.3557C34.5236 16.7016 28.2132 19.3362 25.5735 20.2463L26.55 23.0129C28.4215 22.2602 31.1171 21.1465 33.6144 20.054C36.0908 18.9707 38.3425 17.9209 39.4159 17.2653C38.7276 16.4433 38.0628 15.739 37.6834 15.3557ZM26.5603 23.0423L26.5603 23.0422L26.5603 23.0423Z" fill="#1B314F"/>
<path d="M28.446 21.0394C28.446 21.4794 28.0893 21.8361 27.6493 21.8361C27.2092 21.8361 26.8525 21.4794 26.8525 21.0394C26.8525 20.5994 27.2092 20.2427 27.6493 20.2427C28.0893 20.2427 28.446 20.5994 28.446 21.0394Z" fill="#94A6C3"/>
<path fill-rule="evenodd" clip-rule="evenodd" d="M27.6492 20.5082C27.3559 20.5082 27.1181 20.746 27.1181 21.0393C27.1181 21.3327 27.3559 21.5705 27.6492 21.5705C27.9426 21.5705 28.1804 21.3327 28.1804 21.0393C28.1804 20.746 27.9426 20.5082 27.6492 20.5082ZM26.5869 21.0393C26.5869 20.4527 27.0625 19.9771 27.6492 19.9771C28.2359 19.9771 28.7115 20.4527 28.7115 21.0393C28.7115 21.626 28.2359 22.1016 27.6492 22.1016C27.0625 22.1016 26.5869 21.626 26.5869 21.0393Z" fill="#1B314F"/>
<path d="M33.5509 20.9214C31.3319 21.9365 30.364 24.0788 30.1574 25.0525L29.5673 22.1312L39.4525 17.646C39.9246 18.1476 40.9869 19.4047 41.4591 20.4198C39.2164 19.5345 36.3246 19.6526 33.5509 20.9214Z" fill="#1B314F"/>
</g>
<defs>
<clipPath id="clip0_14603_1187">
<rect width="54" height="54" fill="white"/>
</clipPath>
</defs>
</svg>
