<svg width="552" height="637" viewBox="0 0 552 637" fill="none" xmlns="http://www.w3.org/2000/svg">
    <path d="M1.40051 374.329C2.69312 372.274 4.11823 370.319 5.57648 368.396C8.26099 364.817 11.1444 361.403 13.6964 357.758C21.5511 346.423 28.4447 334.492 35.1395 322.461C39.7131 314.175 43.889 305.691 47.9987 297.14C50.9484 290.976 53.3677 284.579 56.218 278.382C59.1676 271.952 63.7745 267.047 70.3366 264.197C82.1022 259.126 94.2654 256.508 107.125 258.629C112.825 259.557 118.227 261.347 122.536 265.423C127.043 269.665 132.313 272.416 138.179 274.073C147.293 276.658 156.407 279.111 165.521 281.663C172.747 283.685 179.972 285.806 187.23 287.794C192.599 289.286 198.034 290.644 203.436 292.07C204.397 292.335 205.193 292.467 205.856 291.274C209.004 285.441 213.578 280.867 218.649 276.691C219.046 276.393 219.378 276.029 220.107 275.366C219.245 275.631 218.848 275.763 218.417 275.863C213.412 277.023 208.408 278.349 203.337 279.31C199.824 279.973 196.145 280.105 192.997 278.05C190.842 276.658 188.688 276.459 186.302 276.493C181.662 276.526 177.652 275.134 174.768 271.223C173.973 270.129 172.813 269.334 171.918 268.306C171.288 267.61 170.526 266.815 170.36 265.953C169.598 261.711 167.278 258.463 164.328 255.513C156.904 248.09 153.69 239.241 154.982 228.668C155.744 222.239 157.468 216.339 161.743 211.368C163.632 209.18 165.654 207.059 167.808 205.137C170.228 202.983 172.084 200.464 173.476 197.581C175.663 193.007 177.751 188.4 180.071 183.926C184.744 174.845 189.517 165.797 194.256 156.749C194.62 156.053 194.952 155.225 194.919 154.496C194.62 149.325 194.156 144.188 193.858 139.051C193.56 133.815 193.693 128.611 195.35 123.574C197.504 117.045 200.586 110.98 204 105.047C204.431 104.318 204.629 103.158 204.397 102.363C201.614 93.0496 199.062 83.6372 195.747 74.4899C187.097 50.6274 178.215 26.8643 170.891 2.53784C170.195 0.184735 169.664 -2.2678 169.366 -4.72033C168.902 -8.69742 171.553 -11.4151 175.53 -11.0505C177.022 -10.918 178.58 -10.3214 179.872 -9.55912C183.087 -7.63686 185.274 -4.65405 187.362 -1.63809C190.345 2.63727 193.129 7.04521 196.046 11.3869C201.68 19.7719 207.314 28.1569 212.948 36.5419C213.18 36.8733 213.445 37.1385 213.942 37.735C216.395 27.6598 220.306 18.7113 226.967 11.0554C233.662 3.39955 241.583 -2.13523 251.526 -4.68719C261.17 -7.13973 270.782 -8.03457 280.459 -4.55462C274.593 -3.95806 270.881 0.317306 266.042 3.23383C266.606 3.3664 266.705 3.43269 266.805 3.39955C267.998 3.13441 269.224 2.86927 270.417 2.60413C280.426 0.184736 290.435 -2.20151 300.908 -2.20151C313.8 -2.23466 325.997 0.383591 337.53 6.11722C339.883 7.31034 340.082 7.87376 339.088 10.3594C339.784 10.5252 340.447 10.6909 341.11 10.8897C347.274 12.6463 353.339 14.7011 358.841 18.0153C367.856 23.4507 376.274 29.6152 383.234 37.6356C388.702 43.9327 394.336 50.0971 400.169 56.0296C405.306 61.233 410.51 66.4032 417.536 69.154C422.739 71.2088 428.042 72.7996 433.544 74.0259C444.481 76.4453 455.451 77.075 466.554 75.8487C468.178 75.683 469.802 75.5505 471.492 75.3848C471.26 77.2076 466.587 80.9527 455.451 87.5149C449.684 90.9285 443.553 93.7125 437.587 96.7616C443.155 98.1204 447.795 101.667 452.667 104.649C456.644 107.102 460.489 109.853 463.935 112.968C470.63 119 476.463 125.827 481.434 133.384C486.605 141.239 490.847 149.557 494.758 158.075C495.752 160.229 496.547 162.483 497.707 164.538C507.054 181.241 519.25 195.393 534.993 206.363C535.423 206.662 535.821 206.993 536.219 207.291C536.153 207.59 536.153 207.656 536.086 207.954C525.017 211.036 513.549 210.871 502.148 211.998C502.182 212.097 502.182 212.329 502.248 212.495C505.827 222.106 509.407 231.75 512.953 241.362C515.869 249.283 519.25 257.005 523.36 264.429C527.635 272.151 533.335 278.713 539.931 284.48C542.682 286.899 545.83 288.954 549.542 289.915C550.238 290.081 551.133 290.777 551.332 291.374C551.663 292.5 550.569 292.865 549.675 293.13C549.409 293.196 549.144 293.263 548.912 293.362C541.157 295.715 533.236 295.682 525.249 295.284C514.047 294.754 503.673 291.639 494.161 285.706C493.797 285.474 493.399 285.308 492.703 284.944C496.912 298.234 503.308 309.734 513.218 319.147C521.702 327.2 534.429 336.348 551.431 343.97C534.065 345.495 511.064 342.578 497.31 336.381C516.333 358.984 527.701 363.425 536.948 370.749C529.955 367.071 522.896 363.392 516.333 358.984C499.928 347.914 484.914 335.055 471.757 320.207C458.401 305.161 449.684 287.662 445.641 267.975C443.321 256.74 440.703 245.637 437.09 234.733C436.427 232.712 435.532 230.723 434.671 228.469C434.173 229.066 433.809 229.464 433.477 229.894C426.982 237.65 419.458 244.113 410.444 248.786C404.644 251.768 398.247 252.464 391.95 253.525C390.691 253.757 389.266 253.16 388.304 253.028C387.144 249.747 389.266 248.156 390.823 246.333C396.093 240.235 398.545 232.877 400.07 225.122C402.059 214.98 402.423 204.773 400.236 194.664C399.009 188.964 397.087 183.363 395.032 177.894C392.215 170.404 387.211 164.306 381.775 158.572C381.577 158.672 381.577 158.672 381.378 158.771C381.775 161.058 381.974 163.378 382.571 165.598C383.333 168.449 384.261 171.232 385.355 173.95C385.719 174.845 386.846 175.408 387.575 176.204C387.94 176.602 388.106 177.132 388.371 177.629C387.807 177.795 387.144 178.259 386.747 178.093C384.029 177.066 381.311 176.038 378.726 174.746C371.7 171.199 364.873 167.388 358.841 162.218C355.162 159.069 351.914 155.622 349.561 151.347C345.783 144.453 342.435 137.361 340.579 129.639C339.917 126.888 338.955 124.203 337.994 121.022C337.066 123.143 336.271 124.833 335.608 126.557C334.415 129.606 333.156 132.655 332.161 135.77C330.935 139.681 331.2 143.393 333.189 147.271C335.708 152.142 338.69 156.451 342.999 159.865C343.463 160.229 343.496 161.124 343.728 161.787C343.098 161.886 342.402 162.185 341.839 162.019C331.498 158.97 323.213 153.137 317.91 143.625C314.894 138.223 313.602 132.224 313.403 125.96C313.237 120.757 312.906 115.52 312.442 110.35C312.077 106.108 310.188 102.296 308.332 98.5181C306.907 95.6016 304.057 94.9719 301.107 94.8393C299.98 94.8062 298.356 96.5627 298.157 97.8221C297.826 100.043 296.997 101.998 294.744 102.893C294.081 103.158 293.186 103.357 292.656 103.059C292.291 102.86 292.357 101.832 292.192 101.136C291.131 101.6 290.004 102.164 288.811 102.628C288.082 102.893 287.187 103.291 286.491 103.125C285.596 102.926 284.801 102.197 283.972 101.7C284.469 101.004 284.801 100.109 285.464 99.645C288.413 97.4907 291.628 95.6679 294.379 93.3148C300.643 87.9789 305.415 81.3835 308.995 74.0591C312.143 67.6294 311.348 61.001 309.061 54.4388C308.63 53.1794 308.133 51.92 307.669 50.6606C305.647 44.8606 303.559 39.0939 305.283 32.7637C305.117 32.6642 305.117 32.6643 304.918 32.5317C303.095 34.1225 301.041 35.5145 299.45 37.3042C296.169 40.983 292.821 44.6618 290.004 48.7383C284.933 56.0628 280.757 63.8512 278.007 72.4019C275.587 79.9584 272.969 87.4817 270.318 94.9719C267.733 102.296 263.623 108.56 257.16 113.068C256.033 113.863 254.741 114.46 253.448 114.99C253.017 115.156 252.354 114.824 251.824 114.725C252.023 114.228 252.089 113.532 252.487 113.266C257.293 109.82 258.453 104.119 261.303 99.4792C261.203 99.3798 261.104 99.2473 261.005 99.1478C260.176 99.6781 259.314 100.142 258.519 100.706C256.332 102.296 253.912 102.893 251.228 102.661C250.697 102.628 249.902 103.025 249.604 103.489C244.168 112.073 236.347 117.409 226.735 120.326C226.305 120.458 225.807 120.69 225.476 121.022C221.698 124.933 217.886 128.943 216.229 134.246C215.301 137.195 215.102 140.344 214.473 143.393C214.208 144.619 213.677 145.812 213.246 147.039C213.014 147.005 213.048 147.005 212.816 147.005C212.418 144.188 212.02 141.404 211.656 138.587C210.927 133.119 211.258 127.75 213.346 122.579C213.909 121.221 213.843 120.226 212.352 119.431C211.258 118.834 210.363 117.84 209.17 116.846C208.01 118.636 206.817 120.326 205.756 122.115C204.232 124.767 202.773 127.451 201.382 130.202C201.017 130.898 200.951 131.76 200.951 132.555C200.719 140.642 201.282 148.663 203.337 156.55C203.536 157.313 203.237 158.34 202.84 159.102C198.001 168.548 193.162 177.927 188.257 187.34C185.771 192.112 183.12 196.785 180.668 201.591C178.149 206.595 174.404 210.506 170.294 214.185C169.001 215.345 167.709 216.472 166.383 217.532C164.096 219.355 162.572 221.708 162.174 224.559C161.677 228.37 161.147 232.248 161.312 236.092C161.544 241.726 164.295 246.333 168.504 250.045C169.764 251.139 171.089 252.166 172.349 253.26C174.271 254.917 175.961 256.673 175.729 259.955C178.48 259.424 181.098 259.259 183.452 258.397C188.787 256.441 193.096 252.862 196.377 248.322C199.26 244.345 201.846 240.102 204.331 235.827C206.353 232.38 208.64 229.265 211.755 226.779C217.29 222.371 223.454 221.377 230.083 223.829C232.668 224.791 234.69 226.514 236.413 229.364C232.138 228.038 228.26 227.011 224.117 229.066C225.443 229.729 226.503 230.292 227.597 230.856C232.801 233.474 236.943 242.621 232.303 249.482C228.724 254.751 223.686 257.369 217.92 258.728C214.506 259.524 210.893 259.689 207.38 259.689C200.255 259.689 193.162 259.623 186.434 262.341C184.91 262.937 183.418 263.7 181.993 264.595C181.43 264.926 180.734 265.788 180.833 266.285C180.966 266.914 181.728 267.809 182.325 267.909C183.915 268.174 185.639 268.306 187.23 268.008C191.24 267.312 195.217 266.318 199.194 265.589C200.487 265.357 201.879 265.556 203.204 265.556C203.204 265.754 203.238 265.953 203.238 266.185C199.99 267.345 196.742 268.505 193.328 269.732C195.747 272.052 198.73 272.648 201.647 272.052C211.589 269.997 221.499 267.677 230.381 262.374C240.622 256.276 245.825 247.195 246.588 235.363C246.82 231.717 246.621 228.204 245.627 224.691C243.903 218.659 239.86 215.444 233.894 214.351C231.707 213.953 229.453 213.754 226.835 213.39C231.243 212.428 235.253 211.003 239.396 212.296C240.987 212.793 241.782 212.329 242.644 211.268C247.251 205.535 251.89 199.801 256.53 194.068C256.696 193.869 256.862 193.637 256.994 193.405C258.254 191.151 259.977 190.422 262.695 190.389C266.738 190.356 270.782 189.461 274.792 188.897C275.223 188.831 275.72 188.4 275.985 188.003C280.658 181.241 285.331 174.48 289.938 167.653C290.468 166.891 290.667 165.764 290.634 164.803C290.501 159.964 290.269 155.125 290.07 150.286C290.07 149.955 290.137 149.458 290.369 149.259C292.954 146.873 295.605 144.553 298.356 142.067C298.489 142.531 298.588 142.763 298.588 143.028C299.35 150.85 300.146 158.672 300.842 166.493C300.908 167.057 300.61 167.753 300.245 168.25C294.976 175.872 289.772 183.495 284.337 190.985C283.707 191.88 281.917 192.112 280.592 192.278C274.726 192.941 268.859 193.471 262.993 194.101C262.397 194.167 261.734 194.697 261.336 195.194C256.762 200.63 252.222 206.065 247.681 211.534C246.787 212.594 245.925 213.721 244.964 214.914C248.908 217.764 250.83 222.106 253.316 225.984C261.833 216.207 273.267 211.6 284.967 207.391C287.055 206.629 289.01 205.369 290.8 204.043C298.025 198.641 302.996 191.615 306.012 183.097C309.061 174.48 310.453 165.698 309.028 156.65C307.967 149.955 304.587 144.122 301.206 138.388C300.908 137.891 300.61 137.394 300.311 136.93C300.51 136.764 300.477 136.798 300.676 136.599C302.499 138.057 304.421 139.416 306.078 141.04C312.077 146.939 316.85 153.7 320.595 161.257C324.307 168.78 327.389 176.535 329.41 184.688C329.609 185.451 330.173 186.279 330.802 186.71C334.415 189.129 338.061 191.549 341.773 193.769C344.159 195.194 345.518 196.752 345.75 199.867C346.214 206.131 347.44 212.329 348.235 218.56C348.335 219.289 348.003 220.316 347.473 220.88C344.325 224.26 341.242 227.74 337.829 230.822C334.647 233.706 333.388 237.219 332.393 241.262C330.802 247.824 328.847 254.32 326.593 260.684C324.903 265.489 322.517 270.03 320.429 274.67C320.329 274.902 320.263 275.167 320.097 275.598C321.489 275.73 322.749 275.863 323.975 275.995C333.056 276.99 341.01 280.536 348.07 286.27C349.76 287.628 349.727 287.827 348.5 289.683C341.441 300.587 332.725 310.397 323.776 320.009C321.025 322.958 318.341 325.974 315.524 328.858C314.894 329.52 313.8 330.018 312.872 330.051C301.969 330.482 291.065 330.813 280.128 331.177C277.808 331.244 275.521 331.376 273.201 331.575C272.571 331.642 271.743 331.907 271.378 332.337C265.413 339.397 259.944 346.721 257.392 355.835C254.608 365.844 254.409 375.887 256.597 385.995C256.928 387.453 257.326 388.249 259.116 387.752C266.407 385.763 273.764 383.907 281.089 382.018C286.657 380.593 292.192 379.101 297.793 377.941C301.836 377.113 305.747 378.671 309.658 379.565C311.944 380.096 314.298 380.626 315.855 382.648C315.922 382.714 315.955 382.846 316.154 383.277C308.962 381.885 302.068 381.057 295.605 384.47C298.522 385.1 301.604 385.597 304.62 386.426C311.447 388.348 317.546 391.662 322.782 396.468C325.201 398.722 326.56 401.671 327.687 404.72C327.82 405.085 327.853 405.45 327.886 405.814C327.886 405.947 327.786 406.079 327.72 406.278C327.555 406.146 327.389 406.079 327.356 405.947C324.075 398.49 317.678 394.579 310.652 391.596C301.969 387.917 292.755 387.288 283.442 387.652C282.812 387.685 282.149 387.818 281.553 388.05C266.539 393.551 250.962 397.031 235.651 401.506C227.564 403.859 219.444 406.344 210.993 407.04C206.253 407.438 201.448 406.875 196.675 406.842C195.25 406.842 193.692 406.709 192.433 407.239C184.545 410.587 177.95 415.856 171.984 421.888C171.023 422.849 170.46 424.374 170.095 425.733C167.676 434.681 164.527 443.331 160.285 451.617C157.567 456.92 155.711 462.653 153.226 468.055C146.697 482.207 139.405 495.928 129.96 508.357C127.076 512.168 124.06 515.88 120.978 519.559C118.227 522.84 116.371 526.552 114.781 530.463C114.018 532.318 114.151 534.075 115.377 535.633C118.89 540.107 119.553 545.178 118.128 550.447C116.902 555.021 115.278 559.462 113.621 563.87C112.394 567.151 110.936 570.333 109.511 573.514C108.55 575.669 108.749 577.624 110.041 579.579C113.289 584.418 117.929 586.97 123.53 587.799C131.053 588.926 137.085 585.744 142.554 580.905C145.603 578.221 147.326 574.708 149.05 571.195C149.249 570.797 149.315 570.068 149.116 569.703C148.486 568.609 147.89 567.317 146.929 566.588C142.653 563.439 141.261 559.33 142.388 554.259C142.488 553.795 142.521 553.298 142.653 552.602C135.031 552.071 129.429 548.161 125.055 542.162C126.049 542.924 127.043 543.686 128.071 544.482C132.048 547.498 136.422 548.028 141.062 546.47C146.1 544.747 149.878 541.532 152.397 536.76C155.247 531.324 156.838 525.458 158.86 519.758C160.981 513.726 163.235 507.76 165.422 501.761C165.555 501.364 165.72 500.999 165.753 500.535C158.064 509.848 150.21 518.929 139.902 525.624C140.002 525.425 140.035 525.193 140.201 525.06C149.249 516.907 156.44 507.13 164.063 497.751C170.758 489.532 177.453 481.312 184.015 472.994C188.224 467.691 193.129 463.316 199.227 460.3C205.988 456.953 210.496 451.451 213.545 444.69C214.208 443.232 214.506 441.608 214.97 440.083C215.334 438.89 215.368 437.233 217.124 437.366C218.947 437.531 218.848 439.188 218.914 440.514C219.113 444.524 218.483 448.468 217.29 452.28C217.124 452.777 217.025 453.307 216.859 453.904C217.257 454.069 217.555 454.235 217.92 454.335C228.757 456.787 239.562 459.405 250.465 461.593C263.689 464.244 276.78 462.952 289.739 459.538C298.621 457.218 307.537 454.898 316.452 452.81C319.832 452.015 323.345 451.683 326.825 451.385C328.449 451.252 330.106 451.683 331.73 451.981C332.095 452.048 332.592 452.777 332.559 453.108C332.526 453.473 331.863 454.036 331.498 454.036C323.776 454.235 317.181 457.881 310.32 460.698C309.293 461.129 308.299 461.56 307.305 462.355C311.215 463.382 315.159 464.476 319.103 465.404C321.456 465.967 323.876 466.266 326.229 466.663C328.217 466.995 329.941 466.266 331.565 465.238C340.546 459.571 348.401 452.578 355.527 444.756C356.653 443.497 357.581 441.972 358.311 440.448C359.504 438.028 360.498 435.543 361.459 433.024C368.154 415.624 379.654 401.97 394.535 391.066C401.462 385.995 409.052 382.051 417.337 379.599C423.336 377.809 428.672 374.693 433.743 371.114C434.869 370.319 436.029 369.556 437.289 368.894C434.704 372.572 431.555 375.688 427.843 378.107C424.164 380.46 420.187 382.382 416.442 384.404C417.039 384.338 417.867 384.272 418.729 384.205C419.591 384.139 420.453 383.973 421.314 384.006C423.502 384.139 425.689 384.272 427.843 384.603C428.374 384.669 428.771 385.564 429.235 386.061C428.705 386.36 428.142 386.989 427.611 386.956C420.486 386.691 413.725 388.448 407.096 390.635C399.109 393.253 392.679 398.158 387.31 404.555C382.405 410.421 377.401 416.188 373.39 422.717C370.176 427.986 368.286 433.786 366.828 439.652C365.171 446.148 361.559 450.921 356.587 455.031C350.953 459.704 345.418 464.476 339.817 469.182C335.277 472.994 330.007 474.419 324.174 473.69C318.407 472.994 312.674 472.132 306.94 471.337C306.642 471.303 306.31 471.337 306.012 471.337C305.879 471.502 305.747 471.635 305.614 471.801C306.111 472.099 306.642 472.364 307.106 472.729C314.066 478.595 320.992 484.461 327.952 490.327C328.085 490.427 328.217 490.526 328.35 490.625C334.316 494.536 340.248 498.513 346.28 502.358C355.262 508.091 365.237 511.505 375.445 514.223C386.349 517.139 397.153 520.354 407.858 523.967C409.085 524.364 410.278 524.795 411.471 525.259C419.193 528.209 426.02 533.18 430.892 539.842C434.14 544.283 436.659 549.486 437.421 555.386C427.976 544.117 416.409 535.931 402.092 531.821C391.851 528.872 381.676 525.723 371.435 522.873C355.825 518.498 340.911 512.731 328.284 502.159C326.163 500.369 323.677 499.276 320.893 498.712C305.913 495.696 293.12 488.571 282.249 477.899C279.896 475.612 277.742 473.159 275.388 470.839C274.924 470.375 274.063 469.978 273.466 470.044C264.352 471.138 255.304 470.077 246.289 469.083C235.518 467.923 225.111 464.874 214.804 461.725C213.478 461.328 212.783 461.526 212.053 462.653C208.805 467.724 204 470.939 198.399 472.662C193.858 474.054 191.008 476.971 188.555 480.716C185.175 485.853 182.026 491.156 178.281 495.961C174.172 501.264 171.587 507.197 169.399 513.394C166.483 521.647 163.533 529.932 160.384 538.085C159.224 541.068 157.832 544.117 155.844 546.57C153.358 549.619 152.066 552.9 151.569 556.612C151.469 557.374 151.834 558.468 152.397 558.965C154.551 560.887 156.01 563.174 156.971 565.892C157.136 566.389 157.832 566.787 158.363 567.085C159.688 567.814 161.312 568.212 162.406 569.173C164.66 571.128 166.184 573.746 167.046 576.63C168.703 582.065 169.233 587.666 168.272 593.234C166.251 605.066 161.147 615.705 154.154 625.283C149.945 631.05 143.681 634.463 136.787 636.385C133.871 637.214 130.954 637.115 128.236 635.391C125.055 633.37 122.47 630.751 120.547 627.47C113.455 615.473 107.986 602.779 103.512 589.589C101.06 582.397 101.822 575.569 104.606 568.841C106.23 564.997 108.55 561.417 110.273 557.606C111.4 555.154 112.394 552.535 112.825 549.884C113.488 545.874 113.057 542.029 110.306 538.582C107.721 535.334 107.489 531.589 109.08 527.745C110.903 523.337 113.19 519.26 116.272 515.548C119.288 511.936 122.271 508.257 125.055 504.413C133.705 492.349 140.698 479.324 146.962 465.901C149.646 460.168 151.635 454.069 154.518 448.435C158.462 440.779 161.412 432.792 163.599 424.506C164.693 420.397 166.781 417.016 170.029 414.332C172.316 412.443 174.437 410.388 176.823 408.631C179.541 406.643 182.292 404.621 185.274 403.096C188.589 401.406 192.168 400.312 195.615 398.954C195.615 398.92 195.482 398.821 195.383 398.689C188.257 393.154 182.192 386.558 176.359 379.698C174.138 377.113 171.587 374.66 168.736 372.871C161.975 368.595 155.015 364.585 148.022 360.707C138.345 355.338 128.104 350.897 119.288 344.103C110.439 337.342 101.822 330.283 93.1386 323.323C91.1832 321.765 89.3604 320.009 87.405 318.285C87.0404 318.849 86.709 319.313 86.3775 319.81C79.1525 330.747 71.8943 341.717 64.7025 352.687C63.7745 354.112 62.9128 355.637 62.2168 357.194C60.2614 361.436 58.4385 365.745 56.5163 370.02C54.6603 374.064 52.8375 378.173 50.7163 382.084C48.4958 386.227 48.3633 386.128 51.1804 389.906C51.7769 390.701 52.2409 391.795 53.0695 392.226C60.0625 395.938 65.0339 401.373 67.1881 409.029C69.7401 418.11 70.3035 427.357 68.4475 436.637C67.1881 442.967 64.4705 448.568 59.5654 452.909C56.7151 455.395 53.434 457.118 49.5895 456.29C45.8444 455.494 42.2982 453.837 39.6468 450.954C33.416 444.259 27.2516 437.531 21.1534 430.704C18.3363 427.555 15.3866 424.738 11.8404 422.385C7.63129 419.601 5.04614 415.591 5.34442 410.321C5.51013 407.77 6.04047 405.218 6.47131 402.666C7.66443 395.938 6.50446 389.74 2.26221 384.272C-0.38916 381.222 -0.753723 377.809 1.40051 374.329ZM252.885 2.76984C248.278 4.92409 243.638 7.07835 239.197 9.56402C235.154 11.8177 232.436 15.5296 229.983 19.341C226.603 24.5775 224.217 30.278 222.758 36.3099C221.83 40.0881 222.493 43.8001 223.554 47.4457C227.398 60.537 234.59 71.2751 246.091 78.8647C250.233 81.5824 254.774 83.5709 259.646 84.6646C260.044 84.764 260.474 84.7972 260.905 84.8635C260.938 84.764 260.971 84.6646 261.005 84.5652C260.242 83.9023 259.447 83.2726 258.718 82.5766C250.101 74.3573 243.771 64.5141 241.285 52.9474C237.043 33.062 242.113 15.6622 257.591 1.84185C257.724 1.70928 257.856 1.54357 258.287 1.04644C256.232 1.67614 254.476 2.00757 252.885 2.76984ZM301.67 3.79725C291.761 2.7367 282.017 4.2281 272.472 6.78007C264.021 9.03375 256.332 12.8783 250.83 19.9707C245.627 26.6655 243.108 34.2551 244.268 42.8721C244.367 43.5018 244.334 44.1646 244.367 45.2252C245.163 43.2698 245.759 41.679 246.488 40.1213C251.924 28.7203 261.038 21.1307 272.207 15.7948C279.995 12.0828 288.314 10.26 296.798 8.93432C303.858 7.84062 310.917 6.78007 318.109 7.14463C318.109 6.87949 318.142 6.61436 318.142 6.38236C312.674 5.48751 307.205 4.39382 301.67 3.79725ZM443.718 86.8852C443.851 86.8189 443.95 86.6863 444.348 86.4212C441.664 86.8189 439.277 87.2497 436.858 87.5149C420.718 89.1388 405.24 87.2497 390.89 78.9973C384.593 75.3848 379.124 70.6454 373.755 65.8729C367.358 60.1724 360.896 54.6376 353.306 50.528C345.816 46.4846 337.994 43.7338 329.377 43.8332C324.472 43.8995 319.633 44.5955 315.027 46.4183C314.695 46.5509 314.364 46.7166 313.966 46.9155C314.994 49.6331 316.154 52.2514 316.982 54.9359C317.711 57.3222 318.175 59.8078 318.606 62.2935C318.772 63.3541 318.937 63.8181 320.197 63.9175C334.349 64.9449 347.44 68.7563 359.073 77.3733C365.834 82.3778 372.396 87.7469 380.019 91.5251C385.09 94.0439 390.459 95.4359 396.093 95.7342C412.631 96.629 428.639 94.1765 443.718 86.8852ZM318.507 72.4019C335.906 74.523 350.257 82.4109 363.017 93.6462C375.114 104.285 385.852 116.117 394.867 129.473C399.241 135.969 403.384 142.664 407.991 148.994C413.128 156.02 418.63 162.781 424.164 169.509C429.467 176.005 436.427 180.545 443.254 185.252C451.805 191.151 461.317 194.664 471.127 197.581C477.292 199.403 483.556 201.094 489.853 202.386C493.598 203.149 497.542 203.049 501.452 203.082C500.955 202.85 500.425 202.618 499.928 202.419C485.014 196.785 472.022 188.4 460.886 176.867C451.938 167.587 444.149 157.578 437.355 146.641C422.441 122.679 401.628 105.478 375.975 94.0439C367.922 90.4314 360.597 85.692 353.24 80.9527C346.578 76.6773 339.552 73.2968 331.83 71.4408C328.085 70.546 324.34 70.082 320.495 70.3471C318.971 70.3803 318.175 70.9768 318.507 72.4019ZM504.303 200.398C506.822 201.359 509.373 202.254 511.959 202.85C514.212 203.381 516.599 203.414 518.918 203.679C518.985 203.513 519.051 203.347 519.084 203.182C518.388 202.585 517.692 201.989 517.029 201.326C510.699 195.161 505.264 188.234 500.127 181.009C493.432 171.597 489.024 160.991 483.821 150.817C479.545 142.465 474.872 134.378 468.874 127.12C458.865 115.023 446.171 107.003 431.489 101.932C426.716 100.275 421.679 99.2804 416.741 98.1536C415.481 97.8553 414.089 98.3524 412.73 98.3524C406.036 98.3856 399.308 98.3524 392.613 98.3524H391.983C391.95 98.4518 391.95 98.5513 391.917 98.6175C392.149 98.7501 392.348 98.9158 392.58 99.0153C407.759 107.168 420.552 118.337 431.456 131.528C436.56 137.726 440.57 144.818 445.011 151.546C453.959 165.035 464.896 176.635 477.557 186.644C485.577 192.974 494.89 196.785 504.303 200.398ZM527.569 283.055C521.305 276.824 516.068 269.831 511.892 262.043C505.695 250.509 501.254 238.313 497.707 225.785C496.448 221.277 495.189 216.803 493.83 212.329C493.664 211.766 492.935 211.169 492.371 211.036C490.814 210.672 489.223 210.539 487.698 210.34C488.096 218.394 488.527 226.216 488.858 234.037C489.024 238.014 490.648 241.527 491.974 245.14C496.514 257.635 505.231 266.881 515.372 274.968C519.018 277.885 522.929 280.503 526.707 283.254C527.105 283.552 527.602 283.751 528.198 283.817C528.033 283.585 527.834 283.287 527.569 283.055ZM496.083 277.918C506.358 284.082 517.527 287.728 529.425 289.153C529.557 289.153 529.723 289.12 529.756 289.12C512.456 278.183 496.779 265.655 489.256 245.471C489.057 245.538 488.892 245.604 488.693 245.637C488.693 247.095 488.66 248.52 488.693 249.979C488.858 256.64 489.09 263.302 489.256 269.997C489.289 271.687 489.853 273.079 491.079 274.139C492.703 275.432 494.294 276.857 496.083 277.918ZM520.145 334.359C520.178 334.26 520.211 334.16 520.244 334.094C518.819 332.835 517.295 331.642 515.969 330.25C510.103 324.118 504.137 318.053 498.503 311.69C495.984 308.806 493.797 305.492 492.139 302.012C486.638 290.578 483.025 278.614 482.429 265.821C482.097 258.563 482.959 251.437 483.324 244.245C483.556 239.241 483.854 234.236 484.086 229.265C484.351 223.399 484.55 217.565 484.782 211.699C484.815 210.606 484.682 209.777 483.257 209.578C474.276 208.219 465.659 205.601 457.34 201.989C456.611 201.69 455.882 201.425 455.02 201.094C455.053 201.458 455.02 201.624 455.119 201.757C459.527 209.147 460.555 217.433 461.218 225.752C461.98 235.197 462.411 244.643 463.14 254.088C463.935 264.561 466.852 274.504 471.26 283.95C476.496 295.085 483.025 305.426 491.112 314.772C497.707 322.395 505.993 327.764 514.544 332.735C516.168 333.696 518.256 333.829 520.145 334.359ZM439.907 221.841C441.564 226.282 443.221 230.69 444.945 235.098C448.723 244.709 451.308 254.652 453.495 264.76C455.119 272.317 457.34 279.741 459.428 287.198C461.218 293.627 465.062 298.963 468.675 304.465C472.751 310.629 477.424 316.297 482.793 321.367C483.754 322.262 484.881 323.058 486.108 323.588C491.145 325.775 496.249 327.83 501.353 329.918C501.419 329.752 501.519 329.587 501.585 329.388C501.287 329.123 500.988 328.824 500.657 328.592C493.465 323.754 487.698 317.49 482.661 310.497C473.248 297.472 465.46 283.618 461.715 267.776C459.66 259.159 458.931 250.376 458.334 241.594C457.671 232.148 457.738 222.636 455.749 213.356C454.987 209.876 453.661 206.496 452.667 203.049C451.739 199.768 449.286 198.31 446.038 197.282C446.436 205.568 443.42 212.793 439.907 219.885C439.642 220.383 439.708 221.244 439.907 221.841ZM408.786 243.881C419.491 236.887 427.91 227.773 433.908 216.472C437.189 210.274 438.515 203.48 439.708 196.62C440.205 193.703 439.311 192.145 436.957 190.621C427.379 184.39 420.121 175.839 413.658 166.559C413.36 166.129 413.029 165.698 412.697 165.267C412.631 165.201 412.532 165.134 412.366 165.035C422.938 194.134 422.176 221.741 402.257 247.261C404.445 246.134 406.765 245.206 408.786 243.881ZM376.705 113.233C381.543 121.552 382.14 130.732 381.61 139.979C381.378 143.923 382.14 146.74 384.924 149.822C394.602 160.594 400.932 173.287 404.478 187.34C407.892 200.961 409.085 214.682 406.665 228.569C406.069 231.982 404.942 235.33 404.047 238.677C404.08 238.743 404.113 238.777 404.18 238.843C405.041 237.484 405.969 236.158 406.732 234.766C414.089 221.145 417.271 206.728 415.614 191.217C413.758 174.116 408.223 158.406 398.645 144.056C393.773 136.764 389.232 129.274 384.361 121.983C382.107 118.602 379.422 115.487 376.97 112.239C376.837 112.305 376.738 112.372 376.638 112.438C376.572 112.736 376.572 113.034 376.705 113.233ZM375.909 164.902C375.71 164.173 375.445 163.51 375.346 162.781C374.815 159.566 374.02 156.352 373.921 153.104C373.722 148 373.821 142.863 374.12 137.792C374.716 127.683 371.965 118.437 367.425 109.588C362.619 100.275 350.522 89.1388 343.728 84.9629C346.512 88.4428 349.362 91.9559 352.08 95.5022C358.244 103.523 361.36 112.736 362.52 122.712C363.149 128.147 363.415 133.649 364.508 139.018C366.364 148.099 369.678 156.65 375.081 164.273C375.213 164.505 375.412 164.737 375.909 164.902ZM336.072 94.6073C341.11 102.86 343.794 111.874 345.75 121.287C348.865 136.4 356.024 149.624 365.933 161.323C368.154 163.908 371.236 165.764 373.921 167.951C374.053 167.786 374.219 167.653 374.352 167.487C373.589 166.327 372.761 165.201 372.065 164.007C365.602 153.17 361.492 141.537 360.597 128.943C359.305 110.516 351.782 95.2702 337.961 83.0406C332.658 78.3344 326.527 75.9813 319.468 75.7162C318.076 75.6499 317.115 75.9482 316.651 77.4064C316.419 78.1024 315.955 78.7321 315.524 79.5607C316.584 79.9253 317.579 80.2898 318.573 80.6213C326.129 83.1401 331.929 87.78 336.072 94.6073ZM319.7 133.483C321.224 139.051 323.677 144.288 327.753 148.563C327.985 148.795 328.184 149.027 328.416 149.259C328.482 149.325 328.615 149.325 328.913 149.458C328.516 148.629 328.184 147.9 327.82 147.237C323.345 138.886 324.008 130.6 328.018 122.347C328.847 120.624 329.709 118.868 330.67 117.177C333.553 112.04 334.15 106.505 333.454 100.772C333.354 100.043 333.189 99.2804 332.824 98.6175C330.372 94.077 327.256 90.0668 323.279 86.7526C323.147 86.62 322.915 86.5869 322.351 86.3217C323.014 87.1503 323.412 87.6143 323.776 88.1114C328.615 94.9056 330.106 102.164 326.494 109.985C325.268 112.67 324.108 115.487 322.285 117.774C318.473 122.613 318.175 127.982 319.7 133.483ZM309.923 86.5537C309.392 87.1503 308.862 87.7469 308.166 88.5091C308.663 88.708 308.962 88.8737 309.227 88.9731C315.358 91.2931 318.739 95.7673 319.468 102.197C319.965 106.34 319.865 110.449 318.971 114.526C318.672 115.852 318.705 117.21 318.573 118.602C318.937 118.569 319.004 118.602 319.037 118.569C322.848 112.106 326.56 105.544 325.036 97.5901C323.909 91.7571 320.827 87.2829 315.027 85.1286C312.408 84.2338 311.779 84.4658 309.923 86.5537ZM268.992 75.1196C268.992 75.2522 269.158 75.3848 269.357 75.7162C269.82 74.3905 270.251 73.2636 270.616 72.1037C273.367 62.6581 277.974 54.1074 283.343 45.9543C285.895 42.0435 288.513 38.1327 291.595 34.6528C294.014 31.9351 297.064 29.6483 300.079 27.5603C301.803 26.3672 303.99 25.7706 306.045 25.2404C308.531 24.5775 310.884 25.9364 311.348 28.4552C311.779 30.742 311.679 33.1614 311.547 35.4813C311.381 38.3647 311.514 41.1156 312.607 43.8664C315.424 43.071 318.009 42.143 320.661 41.6127C332.194 39.2596 343.098 41.1818 353.439 46.6172C360.266 50.1966 366.596 54.5382 372.33 59.7747C376.473 63.5529 380.649 67.2649 385.023 70.7448C394.635 78.3676 405.638 83.0075 417.768 84.4658C427.479 85.6589 437.189 85.3606 446.635 82.2784C447.265 82.0795 447.894 81.8144 448.524 81.5824C448.491 81.4829 448.458 81.3835 448.458 81.2841C447.298 81.3504 446.138 81.4829 444.945 81.5161C429.998 82.2121 416.177 78.4007 403.384 70.8774C401.197 69.5848 399.175 67.8946 397.286 66.138C390.757 60.1724 384.758 53.7428 379.058 46.9818C372.728 39.4584 366.364 31.8688 358.112 26.3009C346.412 18.3799 333.52 14.0382 319.335 15.1982C310.552 15.9274 302.3 19.0759 294.677 23.6495C281.487 31.5374 274.096 43.5018 270.881 58.217C269.82 63.0227 269.522 67.994 268.926 72.8991C268.859 73.5951 268.959 74.3905 268.992 75.1196ZM264.683 68.6237C265.512 53.3451 270.318 39.6241 281.387 28.6872C284.271 25.8369 287.618 23.3512 291.098 21.2633C297.66 17.3193 304.222 13.4085 311.447 10.7903C311.679 10.6909 311.878 10.5583 312.11 10.4257C312.077 10.3263 312.044 10.1937 312.011 10.0943C309.79 10.3263 307.603 10.5583 305.382 10.8234C298.025 11.7183 290.7 12.812 283.873 15.9936C272.604 21.197 262.397 27.7923 255.072 38.1327C252.586 41.6458 250.267 45.2584 249.405 49.6C248.875 52.2514 249.14 54.8365 249.803 57.4216C251.692 64.8455 255.768 70.9437 261.237 76.1802C262.264 77.1413 263.523 77.9036 264.65 78.7321C264.683 75.219 264.518 71.9048 264.683 68.6237ZM246.157 93.7456C251.957 96.8279 256.564 97.1261 260.74 93.7125C261.734 92.8839 262.529 91.7902 263.656 90.5971C251.857 87.9126 241.152 84.1343 233.331 74.7551C233.231 74.8876 233.132 74.987 233.032 75.1196C233.43 75.7162 233.795 76.3459 234.192 76.9424C237.308 81.7149 240.39 86.4874 243.605 91.1937C244.235 92.1548 245.129 93.1822 246.157 93.7456ZM216.726 109.124C217.058 110.052 217.82 111.013 218.649 111.543C221.963 113.631 225.542 114.327 229.453 113.465C235.816 112.04 240.39 108.196 243.771 102.793C244.003 102.396 244.168 101.667 243.969 101.368C242.246 98.717 240.456 96.1319 238.567 93.4142C236.181 96.1982 233.596 98.4518 230.249 99.5124C228.956 99.9101 227.531 100.142 226.172 100.208C225.675 100.242 225.145 99.645 224.614 99.3467C224.946 98.9821 225.211 98.485 225.642 98.2198C229.254 95.9993 232.502 93.4142 234.69 89.6691C235.187 88.8074 235.286 88.2108 234.69 87.3491C232.999 84.9298 231.409 82.4441 229.652 79.7927C227.1 82.7755 224.15 84.6646 220.604 85.4932C219.676 85.7252 218.682 85.7915 217.721 85.7252C217.224 85.692 216.76 85.1949 216.262 84.8966C216.561 84.4989 216.826 84.0349 217.224 83.7698C220.505 81.5161 223.322 78.8647 225.244 75.3185C225.741 74.3905 225.841 73.7276 225.244 72.8328C223.587 70.314 222.029 67.762 220.339 65.0775C217.986 67.3974 215.169 68.5574 212.153 69.1208C211.125 69.3197 210.032 69.1871 209.004 68.9883C208.607 68.922 208.109 68.3586 207.977 67.9277C207.911 67.6957 208.474 67.1986 208.839 66.9334C211.258 64.9781 213.71 63.0558 216.13 61.1335C217.124 60.3381 217.025 59.5427 216.329 58.5153C214.572 55.897 212.915 53.1794 211.424 50.7931C208.839 51.688 206.452 52.5497 204.033 53.2457C203.436 53.4114 202.674 52.9805 201.978 52.8148C202.243 52.1851 202.376 51.4228 202.774 50.8925C204.066 49.4011 205.491 48.0092 206.817 46.5178C207.612 45.6229 207.612 44.6949 206.883 43.6012C205.359 41.4138 203.967 39.127 202.807 37.3373C200.52 37.7019 198.598 38.0996 196.675 38.2322C196.079 38.2653 195.449 37.6025 194.819 37.271C195.217 36.807 195.582 36.3431 195.979 35.9122C196.079 35.8128 196.278 35.7796 196.41 35.6802C199.824 33.6254 199.99 32.8962 197.802 29.6483C196.675 27.958 195.548 26.2678 194.455 24.6769C193.129 24.9089 191.936 25.1741 190.743 25.3066C190.478 25.3398 189.947 25.0415 189.914 24.8095C189.848 24.5444 190.08 24.0804 190.312 23.8815C192.566 21.8267 192.566 21.8267 190.875 19.2416C186.501 12.58 182.159 5.91836 177.784 -0.710108C177.453 -1.20724 177.055 -1.70438 176.724 -2.16837C176.525 -2.10209 176.359 -2.0358 176.193 -1.96952C176.392 -1.14096 176.492 -0.312399 176.757 0.483018C182.822 16.9879 188.92 33.4597 194.985 49.9646C202.21 69.6843 209.435 89.4371 216.726 109.124ZM203.072 254.188C207.944 253.525 212.749 252.332 217.754 252.299C221.168 252.266 224.316 250.642 227.034 248.554C230.215 246.101 230.547 242.157 227.995 238.081C224.415 242.091 219.544 243.748 214.539 245.935C218.516 242.257 222.228 238.843 225.907 235.429C223.985 233.209 218.616 231.585 216.395 232.347C215.898 232.513 215.401 232.844 215.102 233.275C213.942 234.866 212.584 236.423 211.755 238.18C208.872 244.245 205.69 250.078 200.188 254.486C201.183 254.42 202.111 254.32 203.072 254.188ZM314.331 487.609C314.496 487.411 314.662 487.212 314.828 487.013C313.668 485.985 312.442 485.024 311.348 483.931C307.172 479.688 303.062 475.38 298.853 471.138C298.257 470.541 297.395 470.011 296.6 469.845C293.882 469.282 291.098 468.884 288.347 468.486C287.253 468.354 286.16 468.453 285.033 468.453C285 468.652 284.967 468.851 284.933 469.05C293.749 476.805 303.394 483.202 314.331 487.609ZM111.731 589.887C115.344 598.901 118.824 607.983 122.635 616.931C124.193 620.577 126.281 623.99 128.369 627.371C129.927 629.89 131.683 630.42 134.467 629.392C140.234 627.271 145.272 623.891 148.586 618.654C153.557 610.8 157.468 602.448 158.661 593.068C159.191 588.826 158.893 584.584 157.6 580.474C157.17 579.082 156.341 577.79 155.778 576.564C153.027 579.115 150.541 581.634 147.79 583.921C143.548 587.434 138.908 590.218 133.473 591.676C126.148 593.632 119.354 592.571 112.759 589.091C112.328 588.859 111.897 588.661 111.466 588.429C111.433 588.429 111.367 588.462 111.201 588.495C111.4 588.893 111.533 589.39 111.731 589.887ZM287.751 217.466C279.763 220.349 271.676 222.239 264.717 226.746C263.126 227.773 261.833 229.497 260.839 231.187C257.458 237.053 254.476 243.151 250.996 248.951C248.245 253.558 244.997 257.833 241.981 262.275C241.683 262.672 241.351 263.07 240.987 263.501C245.892 261.877 250.631 260.253 255.404 258.662C261.17 256.74 266.937 254.884 272.671 252.895C273.599 252.564 274.56 251.835 275.123 251.039C278.968 245.538 283.243 240.202 285.199 233.706C286.491 229.53 287.121 225.155 287.916 220.847C288.148 219.786 287.85 218.725 287.751 217.466ZM306.94 327.068C308.498 327.002 310.122 326.803 311.613 327.101C313.668 327.532 314.795 326.703 316.021 325.212C323.644 315.965 331.399 306.818 339.022 297.571C341.408 294.688 343.463 291.539 345.717 288.424C341.739 285.938 338.061 283.187 333.454 282.259C328.681 281.298 323.909 280.337 319.136 279.343C318.208 279.144 317.777 279.542 317.38 280.271C312.176 289.352 306.277 297.936 299.185 305.658C293.915 311.392 288.148 316.661 282.58 322.096C280.26 324.35 277.775 326.504 275.587 328.493C285.928 328.029 296.434 327.532 306.94 327.068ZM255.636 336.049C255.768 337.342 256.298 338.601 257.061 340.06C257.193 339.828 257.26 339.563 257.425 339.331C264.882 328.062 274.295 318.749 284.933 310.53C297.627 300.72 308.133 288.822 316.352 275.134C322.484 264.926 326.726 253.823 329.079 242.058C329.444 240.169 329.51 238.213 329.941 236.324C330.206 235.197 330.736 234.004 331.498 233.109C334.548 229.563 337.762 226.182 340.878 222.669C341.209 222.305 341.342 221.609 341.242 221.112C339.817 213.025 338.359 204.938 336.834 196.885C336.669 196.122 336.039 195.228 335.376 194.797C333.222 193.405 330.869 192.278 328.714 190.886C328.052 190.455 327.389 189.626 327.223 188.864C325.235 177.861 321.324 167.554 316.22 157.677C314.894 155.125 313.336 152.739 311.911 150.253C311.812 150.32 311.679 150.386 311.547 150.452C312.375 152.872 313.171 155.291 314.066 157.677C319.401 171.763 316.618 184.92 309.757 197.68C306.907 202.95 303.195 207.49 298.522 211.268C298.058 211.633 297.66 212.462 297.726 212.992C299.085 223.564 296.898 233.54 292.39 243.085C289.838 248.554 285.961 253.127 281.951 257.568C277.145 262.937 271.908 267.942 267.368 273.51C257.26 285.905 252.719 300.289 253.713 316.263C254.177 322.892 254.94 329.487 255.636 336.049ZM26.887 428.152C33.3497 434.151 39.7794 440.183 46.3084 446.115C47.7336 447.408 49.3907 448.435 50.9152 449.628C51.7106 450.258 52.3072 450.092 53.0695 449.562C55.7871 447.607 57.61 444.955 58.77 441.906C62.747 431.599 63.8076 421.126 59.9962 410.52C58.9688 407.703 57.2785 405.118 55.8534 402.434C55.6877 402.5 55.522 402.599 55.3232 402.666C52.6718 415.823 41.1713 425.037 25.2299 426.495C25.9258 427.158 26.3898 427.688 26.887 428.152ZM7.73071 380.228C14.4586 387.42 14.9889 395.938 13.1329 404.986C12.7352 406.941 12.437 408.896 12.2381 410.885C12.0724 412.873 12.9672 414.398 14.6243 415.525C18.1042 417.878 21.9819 419.005 26.1248 419.336C31.5269 419.8 36.7303 419.303 41.0719 415.724C44.6844 412.774 47.1038 408.797 48.3964 404.389C48.8935 402.765 48.0318 400.644 47.5016 398.821C47.1701 397.727 46.3416 396.766 45.6456 395.838C43.7233 393.319 43.7233 393.485 40.8068 394.513C35.736 396.269 30.5327 396.7 25.3293 395.076C24.9316 394.943 24.6333 394.446 24.3019 394.082C24.6996 393.783 25.031 393.319 25.4619 393.22C27.4173 392.822 29.3727 392.59 31.3281 392.226C36.6309 391.231 40.2434 388.083 42.1988 383.145C44.6844 376.848 46.9713 370.484 49.4238 364.187C50.3186 361.934 51.4786 359.813 52.3403 357.393C47.1039 361.834 41.8673 366.308 36.6309 370.749C36.432 370.584 36.2332 370.451 36.0343 370.285C36.3657 369.689 36.5977 368.993 37.0286 368.496C41.3702 363.856 45.8113 359.315 50.1198 354.642C53.0695 351.427 55.8534 348.08 58.6374 344.733C64.6361 337.574 70.6349 330.382 76.6005 323.124C77.3959 322.163 77.9925 321.003 78.5228 319.843C80.0473 316.462 81.5056 313.015 84.5215 310.596C87.5044 308.177 90.9512 307.448 94.6631 307.912C99.7007 308.508 104.606 308.11 109.677 306.254C104.871 311.392 98.6071 311.922 91.9786 312.916C93.934 314.838 95.4917 316.462 97.1488 318.02C105.666 326.04 114.913 333.133 124.359 339.993C131.451 345.13 139.273 348.975 146.962 353.051C151.933 355.703 157.136 357.957 162.075 360.674C167.643 363.723 173.211 366.772 178.414 370.352C181.397 372.373 183.849 375.224 186.269 377.975C193.162 385.763 200.851 392.59 209.468 398.39C210.098 398.821 211.092 399.152 211.821 399.02C216.296 398.158 220.737 397.164 225.476 396.17C223.255 393.319 221.366 390.933 219.544 388.481C216.992 385.067 214.804 381.421 213.545 377.312C211.689 371.247 207.546 366.706 203.503 362.099C197.902 355.736 190.942 351.262 183.551 347.252C179.309 344.932 175.365 341.982 171.056 339.165C171.553 339.099 171.653 339.032 171.752 339.065C181.032 343.308 190.577 347.053 199.028 352.919C203.768 356.233 208.209 359.846 211.755 364.486C211.888 364.651 212.053 364.751 212.418 365.115C211.921 359.117 210.927 353.449 211.026 347.716C211.258 347.682 211.49 347.649 211.722 347.616C211.921 348.776 212.186 349.969 212.352 351.129C214.34 365.182 219.908 377.709 228.79 388.746C228.857 388.812 228.923 388.911 228.989 389.011C232.867 393.75 233.132 393.817 238.998 392.292C241.915 391.53 244.831 390.867 247.847 390.138C247.449 387.95 246.952 385.862 246.687 383.774C245.726 375.986 246.488 368.297 248.875 360.807C250.465 355.802 252.189 350.831 253.813 345.793C254.012 345.164 253.978 344.434 253.879 343.772C252.553 336.646 251.029 329.554 249.935 322.395C248.775 314.772 249.604 307.182 251.029 299.626C252.52 291.639 255.105 284.082 259.314 277.056C261.833 272.88 263.888 268.439 266.208 263.998C265.877 264.031 265.578 264.064 265.28 264.131C257.326 266.45 249.272 268.439 241.484 271.223C231.011 274.968 221.797 280.801 215.136 290.081C213.114 292.931 210.827 295.583 208.938 298.532C205.425 304.067 202.177 309.734 198.796 315.335C198.465 315.866 198.034 316.297 197.636 316.794C197.471 316.727 197.305 316.694 197.172 316.628C197.272 315.899 197.338 315.137 197.504 314.441C197.935 312.717 198.83 311.027 198.796 309.304C198.763 306.619 198.167 303.901 197.67 301.217C197.603 300.819 196.775 300.388 196.211 300.223C179.773 295.019 163.334 289.882 146.896 284.579C141.162 282.723 135.561 280.536 129.96 278.382C124.988 276.459 120.58 273.742 116.935 269.732C114.085 266.616 110.074 265.589 106.064 264.959C94.2986 263.136 83.1628 265.622 72.4909 270.461C67.387 272.781 63.8739 276.625 61.7528 281.928C55.522 297.405 48.2307 312.386 40.6079 327.2C35.4377 337.243 29.671 346.821 23.0093 355.902C18.6677 361.834 14.326 367.8 10.0176 373.765C9.12268 374.992 8.36041 376.284 7.53186 377.544C6.86902 378.538 6.9353 379.4 7.73071 380.228Z"
          fill="currentColor"/>
    <path d="M213.744 163.278C213.777 163.212 213.744 163.146 213.777 163.113C214.208 162.748 214.639 162.417 215.036 162.052C215.235 162.483 215.6 162.947 215.6 163.378C215.6 165.466 216.561 166.99 218.351 167.985C220.604 169.277 223.057 169.41 225.344 168.349C227.564 167.322 229.785 166.096 231.641 164.538C234.193 162.417 236.546 159.997 238.766 157.512C245.958 149.524 255.105 144.951 265.346 142.564C269.622 141.57 274.195 141.736 278.636 141.404C279.432 141.338 280.492 140.708 281.023 142.001C280.227 142.299 279.465 142.73 278.67 142.83C274.958 143.327 271.246 143.724 267.467 144.188C268.23 145.58 268.727 146.641 269.357 147.569C271.975 151.447 272.273 156.484 269.555 160.163C268.031 162.251 266.175 164.339 263.954 165.632C256.464 170.006 248.311 172.061 239.562 171.332C238.07 171.199 236.976 171.465 235.85 172.558C230.646 177.43 224.416 178.159 218.185 174.713C215.169 173.122 212.65 166.526 213.744 163.278ZM242.975 165.068C245.229 164.67 247.483 164.372 249.703 163.875C251.725 163.411 253.713 162.748 255.735 162.118C258.453 161.29 260.574 159.666 262.231 157.346C263.822 155.092 263.822 152.275 262.364 149.922C261.833 149.093 261.303 148.828 260.408 149.392C258.585 150.585 256.497 151.546 254.873 152.971C250.996 156.352 247.35 159.964 243.605 163.51C243.307 163.809 243.108 164.173 242.843 164.538C242.876 164.737 242.942 164.902 242.975 165.068Z"
          fill="currentColor"/>
    <path d="M270.815 103.125C271.047 102.595 271.411 102.097 271.709 101.6C273.864 97.822 276.283 94.1764 278.073 90.2324C281.652 82.4108 285 74.4898 288.214 66.5356C290.534 60.7689 293.55 55.3998 297.13 50.3622C298.19 48.8708 299.549 47.6113 300.808 46.3188C301.107 46.0205 301.637 45.9211 302.035 45.7554C302.167 46.2194 302.499 46.7828 302.366 47.1805C301.803 48.8045 301.173 50.3953 300.444 51.9199C299.648 53.5438 298.754 55.1347 297.859 56.7586C300.378 58.7472 302.068 61.1666 302.333 63.818C302.93 69.2864 302.532 74.7881 299.947 79.6931C295.108 89.0393 287.319 95.5683 278.338 100.739C276.681 101.7 275.057 102.727 273.4 103.721C272.903 104.02 272.405 104.351 271.842 104.517C271.511 104.616 270.98 104.417 270.715 104.185C270.583 103.953 270.682 103.423 270.815 103.125ZM295.738 76.5115C297.362 72.8658 298.124 69.0545 297.693 65.0774C297.56 64.05 297.096 63.0557 296.765 61.962C291.926 72.5344 287.187 82.908 282.448 93.3147C287.75 88.4096 292.722 83.2725 295.738 76.5115Z"
          fill="currentColor"/>
    <path d="M257.591 444.491C267.998 443.961 278.404 443.232 288.745 442.006C294.909 441.276 301.074 439.918 306.94 437.995C313.966 435.709 320.694 432.461 327.554 429.677C328.516 429.279 329.609 429.18 330.637 428.948C330.769 429.213 330.902 429.445 331.001 429.71C329.212 431.168 327.488 432.759 325.566 434.085C323.611 435.443 321.456 436.57 319.368 437.797C325.334 440.15 331.266 442.138 337.63 439.487C337.365 440.083 337.099 440.415 336.768 440.68C336.37 441.044 335.94 441.376 335.476 441.641C331.432 443.895 327.124 444.657 322.55 444.06C319.899 443.729 317.247 443.066 314.563 443.033C311.315 443 307.901 442.967 304.819 443.795C297.196 445.85 289.474 447.01 281.619 447.408C274.958 447.772 268.296 447.607 261.634 447.839C252.686 448.137 243.804 447.839 234.955 446.38C232.502 445.983 230.017 445.618 227.531 445.254C227.531 445.22 227.564 445.187 227.564 445.154C237.639 444.955 247.648 444.988 257.591 444.491Z"
          fill="currentColor"/>
    <path d="M371.103 360.774C376.009 356.598 381.146 352.687 386.117 348.544C399.705 337.209 409.781 323.422 415.647 306.619C416.343 304.597 417.37 302.675 418.265 300.687C418.497 300.72 418.729 300.753 418.961 300.786C418.795 303.437 418.895 306.155 418.364 308.74C416.939 315.7 414.288 322.229 411.073 328.626C407.494 335.685 402.721 341.617 396.358 346.257C392.315 349.207 388.106 351.891 383.996 354.709C377.798 358.951 371.137 362.53 365.668 367.8C365.469 367.999 365.171 368.065 364.574 368.363C364.906 367.7 364.972 367.336 365.204 367.071C367.126 364.983 368.916 362.663 371.103 360.774Z"
          fill="currentColor"/>
    <path d="M194.355 220.946C196.311 220.482 198.233 221.377 199.36 223.1C200.785 225.287 201.183 227.707 200.089 230.159C198.034 234.7 194.886 238.379 190.909 241.362C189.45 242.455 187.76 242.886 186.07 242.024C184.346 241.163 184.214 239.406 184.081 237.815C184.413 232.247 186.103 227.276 189.947 223.266C191.041 222.172 192.798 221.31 194.355 220.946Z"
          fill="currentColor"/>
    <path d="M203.171 449.032C203.304 449.098 203.436 449.197 203.569 449.264C203.436 449.827 203.469 450.523 203.138 450.987C201.746 452.943 200.52 455.064 198.796 456.688C196.244 459.14 192.963 460.532 189.516 461.261C186.003 462.024 183.319 463.78 181.264 466.697C179.706 468.884 178.049 471.005 176.359 473.093C167.841 483.831 158.827 494.172 148.718 503.451C148.022 504.081 147.293 504.611 146.564 505.208C146.465 505.109 146.365 505.009 146.299 504.91C146.895 504.181 147.426 503.418 148.055 502.722C157.866 492.316 167.013 481.312 174.901 469.348C176.492 466.929 178.116 464.509 179.872 462.189C182.059 459.273 185.009 457.582 188.721 457.218C193.228 456.754 197.205 455.064 200.354 451.683C201.216 450.722 202.21 449.893 203.171 449.032Z"
          fill="currentColor"/>
    <path d="M414.255 331.674C424.529 323.024 430.594 311.789 434.273 299.095C434.439 298.532 434.737 298.035 434.969 297.505C435.168 297.538 435.367 297.571 435.565 297.604C435.665 300.123 435.963 302.675 435.797 305.161C435.632 307.514 434.969 309.8 434.505 312.12C432.549 321.831 427.18 328.924 418.166 333.1C416.011 334.094 413.725 334.757 411.206 335.651C411.305 334.922 411.272 334.724 411.338 334.624C412.299 333.63 413.194 332.536 414.255 331.674Z"
          fill="currentColor"/>
    <path d="M215.467 191.317C215.235 191.814 215.136 192.41 214.804 192.808C208.938 199.602 204.895 207.623 199.99 215.047C199.227 216.24 198.465 216.372 197.239 216.207C195.78 216.008 194.223 215.842 192.831 216.173C188.29 217.234 184.81 219.919 182.258 223.796C181.596 224.757 181.032 225.785 180.402 226.779C180.27 226.746 180.137 226.713 180.038 226.646C180.634 224.393 181.297 222.172 181.761 219.885C183.22 212.76 191.472 209.876 197.338 209.446C198.432 209.379 199.095 209.114 199.758 208.319C204.099 203.115 208.441 197.945 212.816 192.775C213.445 192.046 214.307 191.549 215.069 190.952C215.202 191.118 215.334 191.217 215.467 191.317Z"
          fill="currentColor"/>
    <path d="M192.002 440.348C192.267 440.017 192.433 439.553 192.798 439.354C193.262 439.056 193.991 438.625 194.289 438.791C195.946 439.686 197.106 438.857 198.332 437.962C198.896 437.564 199.559 437.299 200.222 437.067C203.138 436.04 205.226 437.1 206.22 440.017C206.353 440.382 206.85 440.614 207.215 440.978C206.684 441.972 207.016 443.629 205.027 443.497C204.762 443.464 204.464 444.093 204.199 444.425C202.541 446.546 200.619 448.303 198.034 449.231C196.344 449.827 194.521 450.324 192.963 449.032C191.406 447.706 192.102 446.016 192.599 444.325C190.246 442.668 190.246 442.668 192.002 440.348ZM202.078 442.735C202.774 441.906 202.376 441.376 201.348 441.243C198.929 440.912 196.377 443.165 195.946 446.281C198.498 445.651 200.553 444.591 202.078 442.735Z"
          fill="currentColor"/>
    <path d="M136.621 572.52C136.688 572.454 136.787 572.355 136.886 572.355C137.384 572.322 137.98 572.123 138.378 572.322C138.676 572.487 138.809 573.15 138.776 573.581C138.742 574.078 138.51 574.608 138.245 575.072C135.859 579.315 132.114 581.369 127.839 581.767C125.253 581.8 123.861 580.939 123.729 579.58C123.629 578.42 124.624 577.359 126.447 577.127C130.324 576.63 133.837 575.371 136.621 572.52Z"
          fill="currentColor"/>
    <path d="M301.836 375.224C301.405 375.29 300.941 375.224 300.51 375.224C300.444 375.025 300.411 374.793 300.345 374.594C300.908 374.263 301.438 373.765 302.068 373.633C304.255 373.202 306.476 372.705 308.73 372.605C310.983 372.506 313.104 373.301 314.629 375.058C315.06 375.555 314.994 376.483 315.159 377.212C314.53 377.146 313.834 377.245 313.27 377.013C309.591 375.356 305.846 374.594 301.836 375.224Z"
          fill="currentColor"/>
    <path d="M199.923 416.254C199.559 415.79 199.293 415.094 199.26 414.498C199.227 413.768 199.724 413.371 200.42 413.934C203.469 416.486 207.115 416.851 210.86 417.149C211.888 417.215 212.882 417.447 213.909 417.58C213.909 417.779 213.909 417.944 213.909 418.143C213.644 418.276 213.379 418.508 213.114 418.541C210.728 418.806 208.308 419.204 205.922 419.237C203.436 419.336 201.415 418.176 199.923 416.254Z"
          fill="currentColor"/>
    <path d="M91.7134 287.297C96.2871 286.17 98.7396 290.479 98.0436 293.627C97.8116 294.622 97.447 295.55 98.4745 296.345C98.6402 296.478 98.6733 297.14 98.4745 297.372C97.6459 298.466 96.7842 299.56 95.7899 300.488C95.4917 300.753 94.398 300.72 94.0997 300.388C93.3043 299.56 92.6083 299.792 91.6803 300.057C87.7032 301.217 84.4221 298.831 84.4553 294.953C84.5215 291.539 87.8026 288.258 91.7134 287.297ZM89.7912 296.643C91.2163 296.71 93.9671 294.588 93.9671 293.196C93.9671 292.633 93.238 291.705 92.7077 291.606C91.0506 291.274 89.0289 292.6 88.2998 294.191C87.7032 295.516 88.3661 296.577 89.7912 296.643Z"
          fill="currentColor"/>
    <path d="M74.4794 284.281C79.0862 279.276 85.0187 277.42 91.6472 277.619C91.7134 277.752 91.7466 277.918 91.8129 278.05C91.2494 278.315 90.7192 278.647 90.1226 278.779C89.1283 279.011 88.0678 278.978 87.1398 279.343C81.0416 281.762 76.7331 286.037 74.6451 292.301C73.9492 294.389 73.5846 296.577 73.0212 298.698C72.9217 299.096 72.4578 299.361 72.1595 299.725C71.8943 299.328 71.364 298.897 71.3972 298.532C71.5629 295.251 71.596 291.97 72.1263 288.755C72.3914 287.164 73.3526 285.507 74.4794 284.281Z"
          fill="currentColor"/>
    <path d="M32.1566 413.569C33.2171 413.371 34.2114 412.807 35.2388 412.443C35.3051 412.575 35.3383 412.708 35.4045 412.84C32.7863 415.591 29.6709 417.348 25.7269 417.381C25.263 417.381 24.6664 417.414 24.335 417.149C23.8378 416.784 23.5396 416.155 23.1419 415.624C23.7053 415.326 24.2024 414.862 24.799 414.729C27.2184 414.332 29.704 414.067 32.1566 413.569Z"
          fill="currentColor"/>
    <path d="M87.9351 287.363C87.4711 287.496 86.6426 287.33 86.4437 286.999C86.2117 286.667 86.3443 285.706 86.6426 285.474C87.5374 284.778 88.598 284.314 89.7248 283.684C90.4539 284.148 91.0505 284.413 91.4813 284.877C91.5808 285.01 91.1831 285.872 90.8185 286.071C89.9568 286.634 88.9625 287.065 87.9351 287.363Z"
          fill="currentColor"/>
</svg>
