<svg width="17" height="17" viewBox="0 0 17 17" fill="none" xmlns="http://www.w3.org/2000/svg">
    <path d="M9.68477 5.72508C9.74975 5.72508 9.7911 5.67951 9.80291 5.61684C9.98604 4.67121 9.98013 4.64843 11.008 4.46044C11.0729 4.44335 11.1202 4.40917 11.1202 4.34081C11.1202 4.26675 11.0729 4.23258 11.008 4.22118C9.98013 4.0218 10.0097 3.99902 9.80291 3.05908C9.7911 2.99642 9.74975 2.95654 9.68477 2.95654C9.61389 2.95654 9.57254 2.99642 9.56072 3.05908C9.35397 3.99902 9.38941 4.0218 8.35567 4.22118C8.29069 4.23258 8.24934 4.26675 8.24934 4.34081C8.24934 4.40917 8.29069 4.44335 8.35567 4.46044C9.38941 4.65982 9.37169 4.67121 9.56072 5.61684C9.57254 5.67951 9.61389 5.72508 9.68477 5.72508ZM12.5084 9.57596C12.6147 9.57596 12.6915 9.50191 12.7092 9.39367C12.8983 7.86699 12.981 7.83281 14.5818 7.58216C14.7058 7.56507 14.7826 7.50241 14.7826 7.38848C14.7826 7.28024 14.7058 7.21758 14.6054 7.19479C12.9928 6.89857 12.8983 6.90997 12.7092 5.38328C12.6915 5.27505 12.6147 5.20099 12.5084 5.20099C12.4021 5.20099 12.3194 5.27505 12.3075 5.37759C12.1067 6.92136 12.0476 6.97263 10.4113 7.19479C10.3109 7.21188 10.2341 7.28024 10.2341 7.38848C10.2341 7.49671 10.3109 7.56507 10.4113 7.58216C12.0476 7.88408 12.1008 7.88408 12.3075 9.40506C12.3194 9.50191 12.4021 9.57596 12.5084 9.57596ZM8.06031 14.7826C10.1928 14.7826 11.9236 13.7572 12.7151 11.9856C12.8037 11.7805 12.7919 11.6096 12.6856 11.5014C12.597 11.4217 12.4375 11.4046 12.2544 11.4729C11.77 11.6609 11.2088 11.7464 10.5649 11.7464C7.89491 11.7464 6.16412 10.1342 6.16412 7.59925C6.16412 6.95554 6.28817 6.23777 6.48901 5.84471C6.59534 5.63963 6.58943 5.46873 6.50082 5.3605C6.4004 5.24657 6.21728 5.22948 5.981 5.32062C4.16751 6.0156 2.95654 7.8442 2.95654 9.93485C2.95654 12.7034 5.0713 14.7826 8.06031 14.7826Z"
          fill="white" fill-opacity="0.6"/>
</svg>
