<svg width="44" height="45" viewBox="0 0 44 45" fill="none" xmlns="http://www.w3.org/2000/svg">
    <g clip-path="url(#clip0_13045:487)">
        <path d="M30.222 10.0021C31.628 10.0021 32.762 11.1391 32.829 12.4771V34.0021L30.152 31.7291L28.682 30.3911L27.078 28.9931L27.748 31.1981H13.71C12.308 31.1981 11.17 30.1331 11.17 28.7221V12.4821C11.17 11.1441 12.31 10.0051 13.715 10.0051H30.215L30.222 10.0021ZM24.104 15.6851H24.074L23.872 15.8851C25.945 16.4851 26.948 17.4221 26.948 17.4221C25.612 16.7541 24.408 16.4201 23.204 16.2851C22.334 16.1501 21.464 16.2211 20.729 16.2851H20.529C20.059 16.2851 19.059 16.4851 17.719 17.0201C17.252 17.2231 16.984 17.3561 16.984 17.3561C16.984 17.3561 17.986 16.3541 20.194 15.8191L20.059 15.6841C20.059 15.6841 18.387 15.6201 16.582 16.9541C16.582 16.9541 14.777 20.0981 14.777 23.9741C14.777 23.9741 15.777 25.7141 18.52 25.7801C18.52 25.7801 18.92 25.2471 19.325 24.7781C17.785 24.3101 17.185 23.3741 17.185 23.3741C17.185 23.3741 17.319 23.4401 17.52 23.5741H17.58C17.61 23.5741 17.624 23.5891 17.64 23.6041V23.6101C17.656 23.6261 17.67 23.6401 17.7 23.6401C18.03 23.7761 18.36 23.9101 18.63 24.0401C19.096 24.2421 19.695 24.4431 20.43 24.5761C21.36 24.7111 22.426 24.7761 23.64 24.5761C24.24 24.4411 24.84 24.3091 25.44 24.0411C25.83 23.8411 26.31 23.6411 26.837 23.3041C26.837 23.3041 26.237 24.2401 24.632 24.7081C24.962 25.1741 25.427 25.7081 25.427 25.7081C28.171 25.6481 29.237 23.9081 29.297 23.9821C29.297 20.1121 27.482 16.9621 27.482 16.9621C25.847 15.7481 24.317 15.7021 24.047 15.7021L24.103 15.6821L24.104 15.6851ZM24.272 20.0981C24.975 20.0981 25.542 20.6981 25.542 21.4331C25.542 22.1731 24.972 22.7731 24.272 22.7731C23.572 22.7731 23.002 22.1731 23.002 21.4391C23.004 20.6991 23.575 20.1011 24.272 20.1011V20.0981ZM19.729 20.0981C20.429 20.0981 20.995 20.6981 20.995 21.4331C20.995 22.1731 20.425 22.7731 19.725 22.7731C19.025 22.7731 18.455 22.1731 18.455 21.4391C18.455 20.6991 19.025 20.1011 19.725 20.1011L19.729 20.0981Z"
              fill="currentColor" />
    </g>
    <defs>
        <clipPath id="clip0_13045:487">
            <rect width="24" height="24" fill="currentColor" transform="translate(10 10.0021)"/>
        </clipPath>
    </defs>
</svg>
