<svg width="16" height="16" viewBox="0 0 16 16" fill="none" xmlns="http://www.w3.org/2000/svg">
    <path d="M5.62953 13.7133V16H11.5041V13.0338C11.5044 12.637 11.4272 12.244 11.2769 11.878C11.1267 11.5119 10.9065 11.18 10.6291 10.9018C13.8673 10.3207 15.2222 8.30813 15.2222 5.91364C15.2222 4.75155 14.8433 3.67614 14.0992 2.81394C14.5401 1.4152 14.0395 0.229674 13.9729 0.0492674C12.7328 -0.0655366 11.4467 0.876325 11.1872 1.07782C10.4224 0.866953 9.55433 0.752149 8.5806 0.752149C7.61145 0.752149 6.74565 0.862267 5.98779 1.07079C5.87985 0.9841 4.49274 -0.112396 3.15844 0.00943703C3.08955 0.189843 2.57742 1.40349 3.04591 2.82096C2.31102 3.68082 1.93668 4.74686 1.93668 5.90661C1.93668 8.29641 3.28246 10.3067 6.51141 10.8971C6.12559 11.279 5.84541 11.771 5.7145 12.3216C5.1151 12.4739 3.93238 12.6285 3.32609 11.7124C2.48785 10.4496 1.76444 9.98333 1.0548 10.3559C0.756251 10.7073 1.75525 10.8947 2.17782 11.6304C2.3868 11.9819 2.51311 14.0858 5.62953 13.7133Z"
          fill="currentColor"/>
</svg>
