<svg width="44" height="45" viewBox="0 0 44 45" fill="none" xmlns="http://www.w3.org/2000/svg">
    <path d="M18.929 29.0722V31.9021H26.1988V28.2314C26.1991 27.7403 26.1036 27.254 25.9177 26.801C25.7317 26.348 25.4592 25.9373 25.116 25.593C29.1232 24.8739 30.7999 22.3834 30.7999 19.4202C30.7999 17.9821 30.331 16.6513 29.4102 15.5843C29.9559 13.8534 29.3363 12.3863 29.2539 12.163C27.7192 12.0209 26.1277 13.1865 25.8066 13.4358C24.8602 13.1749 23.7859 13.0328 22.5809 13.0328C21.3816 13.0328 20.3102 13.1691 19.3723 13.4272C19.2388 13.3199 17.5222 11.963 15.871 12.1137C15.7858 12.337 15.152 13.8389 15.7318 15.593C14.8223 16.6571 14.3591 17.9763 14.3591 19.4115C14.3591 22.3689 16.0245 24.8565 20.0203 25.5872C19.5429 26.0598 19.1961 26.6687 19.0341 27.35C18.2924 27.5385 16.8288 27.7298 16.0785 26.5962C15.0412 25.0334 14.1459 24.4564 13.2678 24.9174C12.8983 25.3523 14.1346 25.5843 14.6575 26.4947C14.9161 26.9296 15.0724 29.5332 18.929 29.0722Z"
          fill="currentColor"/>
</svg>
