<svg width="44" height="45" viewBox="0 0 44 45" fill="none" xmlns="http://www.w3.org/2000/svg">
    <path d="M33.0927 14.4288L35.1999 12.5201V12.1021H27.9021L22.7012 24.3644L16.7852 12.1021H9.13336V12.5201L11.5946 15.3264C11.8352 15.5338 11.959 15.8385 11.9281 16.1431V27.1708C12.0037 27.5694 11.8696 27.9745 11.574 28.2629L8.79993 31.4484V31.8599H16.6581V31.4419L13.8874 28.2661C13.739 28.124 13.6273 27.9516 13.5611 27.7621C13.495 27.5727 13.476 27.3715 13.5059 27.174V17.6337L20.4049 31.8664H21.2059L27.139 17.6337V28.9726C27.139 29.2707 27.139 29.3323 26.9327 29.5299L24.7981 31.484V31.9021H35.1518V31.484L33.0927 29.5753C32.914 29.4457 32.8212 29.2286 32.859 29.0179V14.9862C32.8412 14.882 32.8535 14.7753 32.8946 14.6772C32.9358 14.5791 33.0042 14.4933 33.0927 14.4288Z"
          fill="currentColor"/>
</svg>
