<svg width="45" height="45" viewBox="0 0 45 45" fill="none" xmlns="http://www.w3.org/2000/svg">
    <path d="M35.3156 15.9514C35.1653 15.4191 34.8706 14.9336 34.4611 14.5435C34.0516 14.1535 33.5415 13.8726 32.982 13.729C30.9224 13.2021 22.6666 13.2021 22.6666 13.2021C22.6666 13.2021 14.4107 13.2021 12.3511 13.7262C11.7913 13.8694 11.281 14.1501 10.8714 14.5402C10.4618 14.9303 10.1673 15.416 10.0175 15.9486C9.46655 17.9104 9.46655 22.0021 9.46655 22.0021C9.46655 22.0021 9.46655 26.0939 10.0175 28.0528C10.321 29.1346 11.2167 29.9866 12.3511 30.2753C14.4107 30.8021 22.6666 30.8021 22.6666 30.8021C22.6666 30.8021 30.9224 30.8021 32.982 30.2753C34.1193 29.9866 35.0121 29.1346 35.3156 28.0528C35.8666 26.0939 35.8666 22.0021 35.8666 22.0021C35.8666 22.0021 35.8666 17.9104 35.3156 15.9514ZM20.0442 25.7576V18.2467L26.8799 21.9741L20.0442 25.7576Z"
          fill="currentColor"/>
</svg>
