<svg width="489" height="574" viewBox="0 0 489 574" fill="none" xmlns="http://www.w3.org/2000/svg">
    <g>
        <path d="M1.28592 341.348C2.43069 339.528 3.69287 337.796 4.98441 336.093C7.36203 332.923 9.91574 329.9 12.1759 326.671C19.1327 316.632 25.2381 306.065 31.1674 295.41C35.2182 288.072 38.9167 280.557 42.5565 272.984C45.1689 267.524 47.3117 261.859 49.836 256.37C52.4485 250.676 56.5286 246.331 62.3405 243.807C72.7609 239.316 83.5335 236.997 94.9225 238.876C99.9713 239.698 104.756 241.283 108.572 244.893C112.564 248.65 117.231 251.087 122.426 252.554C130.499 254.844 138.571 257.016 146.643 259.276C153.042 261.067 159.441 262.945 165.869 264.707C170.624 266.027 175.438 267.231 180.223 268.493C181.074 268.728 181.779 268.845 182.366 267.789C185.154 262.622 189.205 258.572 193.696 254.873C194.048 254.609 194.342 254.286 194.987 253.699C194.224 253.934 193.872 254.051 193.49 254.139C189.058 255.167 184.626 256.341 180.135 257.192C177.023 257.779 173.765 257.897 170.977 256.077C169.069 254.844 167.161 254.668 165.047 254.697C160.938 254.726 157.386 253.494 154.832 250.03C154.128 249.061 153.101 248.357 152.308 247.447C151.75 246.83 151.075 246.126 150.928 245.363C150.253 241.606 148.199 238.729 145.586 236.117C139.011 229.541 136.164 221.704 137.309 212.34C137.984 206.646 139.51 201.421 143.297 197.018C144.97 195.081 146.76 193.202 148.668 191.5C150.811 189.592 152.455 187.361 153.688 184.807C155.625 180.756 157.474 176.676 159.529 172.714C163.668 164.671 167.895 156.658 172.092 148.644C172.415 148.028 172.708 147.294 172.679 146.648C172.415 142.069 172.004 137.519 171.74 132.969C171.476 128.332 171.593 123.723 173.061 119.262C174.969 113.479 177.698 108.107 180.722 102.853C181.103 102.207 181.28 101.18 181.074 100.476C178.608 92.2273 176.348 83.891 173.413 75.7895C165.752 54.6552 157.885 33.609 151.398 12.0638C150.782 9.97971 150.312 7.80758 150.048 5.63544C149.637 2.11306 151.985 -0.293899 155.507 0.028986C156.828 0.146399 158.208 0.674756 159.353 1.34988C162.2 3.05236 164.137 5.69415 165.987 8.36529C168.628 12.1518 171.094 16.0558 173.677 19.9011C178.667 27.3274 183.657 34.7538 188.647 42.1801C188.853 42.4737 189.087 42.7085 189.528 43.2369C191.7 34.3135 195.164 26.3881 201.064 19.6076C206.993 12.827 214.008 7.92499 222.814 5.66479C231.356 3.49266 239.868 2.70012 248.44 5.78221C243.244 6.31056 239.957 10.0971 235.671 12.6802C236.17 12.7976 236.258 12.8563 236.346 12.827C237.403 12.5921 238.489 12.3573 239.546 12.1225C248.41 9.97971 257.275 7.86628 266.551 7.86628C277.969 7.83693 288.771 10.1558 298.986 15.2339C301.07 16.2906 301.246 16.7896 300.365 18.9911C300.982 19.1379 301.569 19.2847 302.156 19.4608C307.616 21.0165 312.987 22.8364 317.86 25.7717C325.844 30.5856 333.3 36.0453 339.464 43.1488C344.307 48.7259 349.297 54.1856 354.463 59.4398C359.013 64.0483 363.621 68.6273 369.844 71.0637C374.453 72.8836 379.149 74.2925 384.022 75.3786C393.708 77.5214 403.424 78.0791 413.258 76.993C414.696 76.8462 416.134 76.7288 417.631 76.5821C417.426 78.1965 413.287 81.5134 403.424 87.3253C398.317 90.3487 392.887 92.8144 387.603 95.5149C392.534 96.7183 396.644 99.8591 400.959 102.501C404.481 104.673 407.886 107.109 410.939 109.869C416.868 115.211 422.034 121.258 426.437 127.95C431.016 134.907 434.774 142.274 438.237 149.818C439.118 151.726 439.822 153.722 440.85 155.542C449.127 170.336 459.929 182.87 473.872 192.586C474.254 192.85 474.606 193.144 474.958 193.408C474.899 193.672 474.899 193.731 474.841 193.995C465.037 196.725 454.88 196.578 444.783 197.576C444.812 197.664 444.812 197.869 444.871 198.016C448.041 206.529 451.211 215.07 454.352 223.583C456.935 230.598 459.929 237.437 463.569 244.013C467.356 250.852 472.404 256.664 478.246 261.771C480.682 263.914 483.47 265.734 486.758 266.585C487.374 266.732 488.167 267.348 488.343 267.877C488.637 268.875 487.668 269.198 486.875 269.432C486.641 269.491 486.406 269.55 486.2 269.638C479.332 271.722 472.316 271.693 465.242 271.34C455.321 270.871 446.133 268.112 437.709 262.857C437.386 262.652 437.034 262.505 436.417 262.182C440.145 273.953 445.81 284.138 454.587 292.475C462.101 299.607 473.373 307.709 488.431 314.46C473.05 315.81 452.679 313.227 440.497 307.738C457.346 327.757 467.414 331.69 475.604 338.178C469.41 334.919 463.158 331.661 457.346 327.757C442.816 317.953 429.519 306.564 417.866 293.414C406.037 280.088 398.317 264.589 394.736 247.153C392.681 237.203 390.362 227.369 387.163 217.712C386.576 215.922 385.783 214.16 385.02 212.164C384.58 212.693 384.257 213.045 383.963 213.427C378.21 220.295 371.547 226.019 363.563 230.158C358.426 232.8 352.761 233.416 347.184 234.355C346.068 234.561 344.806 234.032 343.955 233.915C342.927 231.009 344.806 229.6 346.186 227.986C350.853 222.585 353.025 216.068 354.375 209.2C356.136 200.218 356.459 191.177 354.522 182.224C353.436 177.175 351.733 172.215 349.914 167.371C347.419 160.738 342.986 155.337 338.172 150.259C337.996 150.347 337.996 150.347 337.82 150.435C338.172 152.46 338.348 154.515 338.877 156.481C339.552 159.006 340.374 161.471 341.342 163.878C341.665 164.671 342.663 165.17 343.309 165.874C343.632 166.227 343.779 166.696 344.014 167.137C343.515 167.283 342.927 167.694 342.575 167.548C340.168 166.638 337.761 165.728 335.472 164.583C329.249 161.442 323.202 158.066 317.86 153.487C314.602 150.699 311.725 147.646 309.641 143.86C306.295 137.754 303.33 131.472 301.686 124.633C301.099 122.197 300.248 119.819 299.397 117.001C298.575 118.88 297.87 120.377 297.283 121.903C296.227 124.604 295.111 127.304 294.231 130.064C293.144 133.527 293.379 136.815 295.141 140.249C297.371 144.564 300.013 148.38 303.829 151.403C304.24 151.726 304.269 152.519 304.475 153.106C303.917 153.194 303.301 153.458 302.802 153.311C293.643 150.611 286.305 145.445 281.609 137.02C278.938 132.236 277.793 126.923 277.617 121.375C277.47 116.767 277.176 112.129 276.765 107.55C276.443 103.792 274.769 100.417 273.126 97.0706C271.863 94.4875 269.339 93.9298 266.727 93.8124C265.729 93.783 264.29 95.3387 264.114 96.4542C263.821 98.4208 263.087 100.153 261.091 100.945C260.504 101.18 259.711 101.356 259.242 101.092C258.919 100.916 258.977 100.006 258.831 99.3895C257.891 99.8004 256.893 100.299 255.837 100.71C255.191 100.945 254.398 101.297 253.782 101.151C252.989 100.975 252.285 100.329 251.551 99.8885C251.991 99.2721 252.285 98.4795 252.872 98.0686C255.484 96.1606 258.332 94.5462 260.768 92.4621C266.316 87.7363 270.543 81.895 273.713 75.4079C276.501 69.7134 275.797 63.8428 273.771 58.0309C273.39 56.9154 272.95 55.8 272.539 54.6846C270.748 49.5478 268.899 44.4403 270.425 38.8339C270.278 38.7458 270.278 38.7458 270.102 38.6284C268.488 40.0374 266.668 41.2702 265.259 42.8553C262.353 46.1135 259.388 49.3717 256.893 52.9821C252.402 59.4692 248.704 66.3671 246.267 73.9403C244.125 80.6328 241.806 87.296 239.458 93.9298C237.168 100.417 233.528 105.965 227.804 109.957C226.806 110.661 225.662 111.189 224.517 111.659C224.135 111.806 223.548 111.512 223.078 111.424C223.255 110.984 223.313 110.368 223.666 110.133C227.922 107.08 228.949 102.031 231.473 97.9218C231.385 97.8338 231.297 97.7163 231.209 97.6283C230.475 98.0979 229.712 98.5089 229.008 99.0079C227.07 100.417 224.928 100.945 222.55 100.74C222.08 100.71 221.376 101.063 221.112 101.474C216.298 109.076 209.371 113.802 200.858 116.385C200.477 116.502 200.036 116.708 199.743 117.001C196.396 120.465 193.021 124.017 191.553 128.713C190.731 131.326 190.555 134.114 189.997 136.815C189.763 137.901 189.293 138.958 188.911 140.044C188.706 140.014 188.735 140.014 188.53 140.014C188.178 137.519 187.825 135.054 187.502 132.559C186.857 127.715 187.15 122.96 188.999 118.381C189.498 117.177 189.44 116.297 188.119 115.592C187.15 115.064 186.358 114.183 185.301 113.303C184.274 114.888 183.217 116.385 182.278 117.97C180.927 120.318 179.636 122.696 178.403 125.132C178.08 125.749 178.021 126.512 178.021 127.216C177.816 134.378 178.315 141.482 180.135 148.468C180.311 149.143 180.047 150.053 179.694 150.728C175.409 159.094 171.123 167.401 166.779 175.737C164.578 179.964 162.229 184.103 160.057 188.359C157.826 192.791 154.509 196.255 150.87 199.513C149.725 200.541 148.58 201.539 147.406 202.478C145.381 204.092 144.03 206.176 143.678 208.701C143.238 212.076 142.768 215.511 142.915 218.916C143.12 223.906 145.557 227.986 149.285 231.273C150.4 232.242 151.574 233.152 152.69 234.121C154.392 235.588 155.889 237.144 155.684 240.05C158.12 239.58 160.439 239.433 162.523 238.67C167.249 236.938 171.065 233.768 173.971 229.747C176.524 226.225 178.814 222.467 181.015 218.681C182.806 215.628 184.831 212.869 187.59 210.667C192.492 206.763 197.952 205.883 203.823 208.055C206.112 208.906 207.903 210.433 209.429 212.957C205.643 211.783 202.208 210.873 198.539 212.693C199.713 213.28 200.653 213.779 201.621 214.278C206.23 216.597 209.899 224.698 205.789 230.774C202.619 235.441 198.158 237.76 193.05 238.964C190.027 239.668 186.827 239.815 183.716 239.815C177.405 239.815 171.123 239.756 165.165 242.163C163.814 242.692 162.493 243.367 161.231 244.159C160.732 244.453 160.116 245.216 160.204 245.656C160.321 246.214 160.996 247.007 161.525 247.095C162.934 247.329 164.46 247.447 165.869 247.183C169.421 246.566 172.943 245.686 176.466 245.04C177.61 244.834 178.843 245.011 180.017 245.011C180.017 245.187 180.047 245.363 180.047 245.568C177.17 246.596 174.294 247.623 171.27 248.709C173.413 250.764 176.055 251.292 178.638 250.764C187.444 248.944 196.22 246.889 204.087 242.193C213.157 236.792 217.766 228.749 218.441 218.27C218.646 215.041 218.47 211.93 217.589 208.818C216.063 203.476 212.482 200.629 207.198 199.66C205.261 199.308 203.265 199.132 200.946 198.809C204.85 197.957 208.402 196.695 212.071 197.84C213.48 198.28 214.184 197.869 214.948 196.93C219.028 191.852 223.137 186.774 227.247 181.696C227.393 181.52 227.54 181.314 227.658 181.109C228.773 179.113 230.299 178.467 232.706 178.438C236.287 178.408 239.868 177.616 243.42 177.117C243.802 177.058 244.242 176.676 244.477 176.324C248.616 170.336 252.755 164.348 256.835 158.301C257.304 157.626 257.48 156.628 257.451 155.777C257.334 151.491 257.128 147.206 256.952 142.92C256.952 142.627 257.011 142.186 257.216 142.01C259.506 139.897 261.854 137.842 264.29 135.641C264.408 136.052 264.496 136.257 264.496 136.492C265.171 143.419 265.875 150.347 266.492 157.274C266.551 157.773 266.286 158.389 265.963 158.83C261.296 165.581 256.688 172.332 251.874 178.966C251.316 179.758 249.731 179.964 248.557 180.111C243.362 180.698 238.166 181.167 232.97 181.725C232.442 181.784 231.855 182.253 231.503 182.694C227.452 187.508 223.431 192.322 219.409 197.165C218.617 198.104 217.854 199.102 217.002 200.159C220.495 202.683 222.198 206.529 224.399 209.963C231.943 201.304 242.07 197.224 252.432 193.496C254.281 192.821 256.013 191.705 257.598 190.531C263.997 185.747 268.4 179.524 271.071 171.98C273.771 164.348 275.004 156.569 273.742 148.556C272.803 142.627 269.809 137.461 266.815 132.382C266.551 131.942 266.286 131.502 266.022 131.091C266.198 130.944 266.169 130.973 266.345 130.797C267.959 132.089 269.662 133.292 271.13 134.731C276.443 139.956 280.669 145.944 283.986 152.636C287.274 159.299 290.004 166.168 291.794 173.389C291.97 174.064 292.469 174.798 293.027 175.179C296.227 177.322 299.455 179.465 302.743 181.432C304.856 182.694 306.06 184.073 306.265 186.833C306.676 192.38 307.762 197.869 308.467 203.388C308.555 204.034 308.261 204.943 307.792 205.442C305.003 208.437 302.273 211.519 299.25 214.248C296.432 216.802 295.317 219.914 294.436 223.495C293.027 229.307 291.295 235.06 289.299 240.696C287.802 244.952 285.689 248.973 283.84 253.083C283.751 253.288 283.693 253.523 283.546 253.905C284.779 254.022 285.894 254.139 286.98 254.257C295.023 255.137 302.068 258.278 308.32 263.356C309.817 264.56 309.788 264.736 308.702 266.38C302.449 276.037 294.73 284.725 286.804 293.238C284.368 295.85 281.99 298.521 279.495 301.075C278.938 301.662 277.969 302.103 277.147 302.132C267.49 302.513 257.833 302.807 248.146 303.13C246.091 303.189 244.066 303.306 242.011 303.482C241.454 303.541 240.72 303.776 240.397 304.157C235.113 310.409 230.27 316.896 228.01 324.969C225.544 333.833 225.368 342.727 227.305 351.68C227.599 352.972 227.951 353.676 229.536 353.236C235.994 351.475 242.51 349.831 248.997 348.158C253.929 346.895 258.831 345.575 263.791 344.547C267.372 343.813 270.836 345.193 274.3 345.985C276.325 346.455 278.409 346.925 279.789 348.715C279.848 348.774 279.877 348.891 280.053 349.273C273.683 348.04 267.578 347.306 261.854 350.33C264.437 350.887 267.167 351.328 269.838 352.062C275.885 353.764 281.286 356.699 285.924 360.956C288.066 362.952 289.27 365.564 290.268 368.265C290.385 368.587 290.415 368.91 290.444 369.233C290.444 369.351 290.356 369.468 290.297 369.644C290.15 369.527 290.004 369.468 289.974 369.351C287.068 362.746 281.403 359.282 275.18 356.641C267.49 353.382 259.33 352.825 251.081 353.148C250.524 353.177 249.937 353.294 249.408 353.5C236.111 358.373 222.315 361.455 208.754 365.417C201.592 367.501 194.4 369.703 186.915 370.319C182.718 370.671 178.462 370.172 174.235 370.143C172.973 370.143 171.593 370.026 170.478 370.495C163.492 373.46 157.65 378.127 152.367 383.469C151.515 384.321 151.016 385.671 150.694 386.874C148.551 394.8 145.762 402.461 142.005 409.799C139.598 414.496 137.954 419.574 135.753 424.358C129.97 436.892 123.513 449.044 115.147 460.052C112.593 463.428 109.922 466.715 107.192 469.973C104.756 472.879 103.112 476.167 101.703 479.63C101.028 481.274 101.145 482.83 102.231 484.21C105.343 488.172 105.93 492.663 104.668 497.33C103.582 501.381 102.143 505.315 100.676 509.218C99.5897 512.124 98.2982 514.942 97.0359 517.76C96.1847 519.668 96.3608 521.4 97.5056 523.132C100.382 527.417 104.492 529.678 109.452 530.411C116.116 531.409 121.458 528.592 126.301 524.306C129.002 521.928 130.528 518.817 132.054 515.706C132.23 515.353 132.289 514.708 132.113 514.385C131.555 513.416 131.027 512.271 130.176 511.625C126.389 508.837 125.156 505.197 126.154 500.706C126.242 500.295 126.272 499.855 126.389 499.238C119.638 498.769 114.677 495.305 110.803 489.992C111.683 490.667 112.564 491.342 113.474 492.047C116.996 494.718 120.871 495.188 124.98 493.808C129.442 492.282 132.788 489.434 135.019 485.208C137.543 480.394 138.952 475.198 140.743 470.149C142.621 464.807 144.617 459.524 146.555 454.211C146.672 453.858 146.819 453.535 146.848 453.125C140.038 461.373 133.082 469.416 123.953 475.345C124.041 475.169 124.07 474.963 124.217 474.846C132.23 467.625 138.6 458.966 145.351 450.659C151.281 443.379 157.21 436.1 163.022 428.732C166.75 424.036 171.094 420.161 176.495 417.49C182.483 414.525 186.475 409.652 189.176 403.664C189.763 402.373 190.027 400.935 190.438 399.584C190.761 398.528 190.79 397.06 192.346 397.177C193.96 397.324 193.872 398.792 193.931 399.966C194.107 403.518 193.549 407.011 192.492 410.386C192.346 410.827 192.258 411.296 192.111 411.825C192.463 411.971 192.727 412.118 193.05 412.206C202.649 414.378 212.218 416.697 221.875 418.635C233.587 420.983 245.181 419.838 256.658 416.815C264.525 414.76 272.421 412.705 280.317 410.856C283.311 410.151 286.423 409.858 289.505 409.594C290.943 409.476 292.411 409.858 293.849 410.122C294.172 410.181 294.612 410.827 294.583 411.12C294.553 411.443 293.966 411.942 293.643 411.942C286.804 412.118 280.963 415.347 274.887 417.842C273.977 418.224 273.096 418.605 272.216 419.31C275.679 420.22 279.172 421.188 282.665 422.01C284.749 422.509 286.892 422.773 288.976 423.126C290.738 423.419 292.264 422.773 293.702 421.863C301.657 416.844 308.614 410.651 314.925 403.723C315.923 402.608 316.744 401.258 317.39 399.907C318.447 397.764 319.328 395.563 320.179 393.332C326.108 377.922 336.294 365.828 349.473 356.171C355.608 351.68 362.33 348.187 369.668 346.015C374.981 344.43 379.707 341.671 384.198 338.5C385.196 337.796 386.223 337.121 387.339 336.534C385.049 339.792 382.261 342.551 378.973 344.694C375.715 346.778 372.193 348.48 368.876 350.271C369.404 350.212 370.138 350.154 370.901 350.095C371.664 350.036 372.427 349.889 373.191 349.919C375.128 350.036 377.065 350.154 378.973 350.447C379.443 350.506 379.795 351.298 380.206 351.739C379.736 352.003 379.237 352.561 378.768 352.531C372.457 352.296 366.469 353.852 360.598 355.789C353.524 358.108 347.829 362.453 343.074 368.118C338.73 373.313 334.298 378.421 330.746 384.203C327.899 388.87 326.226 394.007 324.934 399.203C323.466 404.956 320.267 409.183 315.864 412.823C310.874 416.961 305.972 421.188 301.011 425.356C296.99 428.732 292.323 429.994 287.156 429.348C282.049 428.732 276.971 427.969 271.893 427.264C271.629 427.235 271.335 427.264 271.071 427.264C270.954 427.411 270.836 427.529 270.719 427.675C271.159 427.94 271.629 428.174 272.04 428.497C278.204 433.693 284.339 438.888 290.503 444.084C290.62 444.172 290.738 444.26 290.855 444.348C296.139 447.812 301.393 451.334 306.735 454.739C314.69 459.817 323.525 462.84 332.566 465.247C342.223 467.831 351.792 470.678 361.273 473.877C362.359 474.229 363.416 474.611 364.473 475.022C371.312 477.634 377.359 482.037 381.674 487.937C384.55 491.871 386.781 496.479 387.456 501.704C379.091 491.724 368.846 484.474 356.166 480.834C347.096 478.221 338.084 475.433 329.014 472.909C315.189 469.034 301.98 463.927 290.796 454.563C288.918 452.978 286.716 452.009 284.25 451.51C270.983 448.839 259.653 442.528 250.025 433.076C247.941 431.051 246.033 428.879 243.949 426.824C243.538 426.413 242.774 426.061 242.246 426.12C234.174 427.088 226.161 426.149 218.176 425.268C208.637 424.241 199.42 421.541 190.291 418.752C189.117 418.4 188.5 418.576 187.855 419.574C184.978 424.065 180.722 426.912 175.761 428.439C171.74 429.671 169.215 432.254 167.043 435.571C164.049 440.121 161.261 444.818 157.944 449.074C154.304 453.77 152.014 459.025 150.077 464.514C147.494 471.823 144.882 479.161 142.093 486.382C141.066 489.023 139.833 491.724 138.072 493.896C135.87 496.597 134.725 499.503 134.285 502.79C134.197 503.465 134.52 504.434 135.019 504.874C136.927 506.577 138.218 508.602 139.07 511.009C139.216 511.449 139.833 511.802 140.303 512.066C141.477 512.711 142.915 513.064 143.884 513.915C145.88 515.647 147.23 517.966 147.993 520.519C149.461 525.333 149.93 530.294 149.079 535.225C147.289 545.704 142.768 555.127 136.575 563.61C132.847 568.717 127.299 571.741 121.194 573.443C118.611 574.177 116.027 574.089 113.62 572.563C110.803 570.772 108.513 568.453 106.811 565.547C100.529 554.921 95.6857 543.679 91.7231 531.997C89.5509 525.627 90.226 519.58 92.6917 513.621C94.13 510.216 96.1847 507.046 97.7111 503.671C98.7091 501.499 99.5897 499.18 99.9713 496.831C100.558 493.28 100.177 489.875 97.7404 486.822C95.4509 483.945 95.2454 480.628 96.6544 477.224C98.2688 473.32 100.294 469.709 103.024 466.422C105.695 463.222 108.337 459.964 110.803 456.559C118.464 445.874 124.657 434.339 130.205 422.45C132.583 417.372 134.344 411.971 136.898 406.981C140.391 400.201 143.003 393.127 144.94 385.788C145.909 382.149 147.758 379.155 150.635 376.777C152.66 375.104 154.539 373.284 156.652 371.728C159.059 369.967 161.496 368.176 164.137 366.826C167.073 365.329 170.243 364.361 173.296 363.157C173.296 363.128 173.178 363.04 173.09 362.922C166.779 358.02 161.407 352.179 156.241 346.103C154.275 343.813 152.014 341.641 149.49 340.056C143.502 336.27 137.338 332.718 131.144 329.284C122.573 324.528 113.503 320.595 105.695 314.578C97.8578 308.59 90.226 302.337 82.5355 296.173C80.8036 294.794 79.1892 293.238 77.4574 291.711C77.1345 292.21 76.841 292.621 76.5474 293.062C70.1484 302.748 63.7201 312.464 57.3505 322.18C56.5286 323.442 55.7654 324.792 55.149 326.172C53.4171 329.929 51.8027 333.745 50.1002 337.532C48.4565 341.113 46.842 344.753 44.9634 348.216C42.9968 351.885 42.8794 351.797 45.3744 355.144C45.9027 355.848 46.3137 356.817 47.0475 357.198C53.241 360.486 57.644 365.3 59.552 372.08C61.8122 380.123 62.3112 388.313 60.6674 396.532C59.5519 402.138 57.145 407.099 52.8008 410.944C50.2764 413.146 47.3704 414.672 43.9654 413.938C40.6485 413.234 37.5077 411.766 35.1595 409.212C29.6411 403.283 24.1814 397.324 18.7804 391.277C16.2854 388.489 13.673 385.994 10.5322 383.91C6.80432 381.444 4.51474 377.892 4.77893 373.225C4.92569 370.965 5.39536 368.705 5.77695 366.445C6.83365 360.486 5.8063 354.997 2.0491 350.154C-0.299164 347.453 -0.62204 344.43 1.28592 341.348ZM224.018 12.2693C219.938 14.1772 215.828 16.0852 211.895 18.2867C208.314 20.2827 205.907 23.5702 203.735 26.9458C200.741 31.5836 198.627 36.6324 197.336 41.9747C196.514 45.3209 197.101 48.6085 198.04 51.8373C201.445 63.4318 207.815 72.9423 218 79.6641C221.67 82.0711 225.691 83.8323 230.006 84.8009C230.358 84.889 230.74 84.9184 231.121 84.9771C231.151 84.889 231.18 84.8009 231.209 84.7129C230.534 84.1258 229.83 83.5681 229.184 82.9517C221.552 75.6721 215.946 66.9542 213.744 56.71C209.987 39.0981 214.478 23.6876 228.186 11.4474C228.303 11.33 228.421 11.1832 228.802 10.7429C226.982 11.3006 225.427 11.5941 224.018 12.2693ZM267.226 13.1792C258.449 12.2399 249.819 13.5608 241.366 15.821C233.88 17.817 227.071 21.222 222.198 27.5036C217.589 33.4329 215.359 40.1548 216.386 47.7866C216.474 48.3443 216.445 48.9314 216.474 49.8707C217.178 48.1388 217.707 46.7299 218.353 45.3503C223.167 35.2528 231.239 28.5309 241.131 23.8051C248.029 20.5175 255.396 18.9031 262.911 17.7289C269.163 16.7603 275.415 15.821 281.785 16.1439C281.785 15.9091 281.814 15.6742 281.814 15.4688C276.971 14.6762 272.128 13.7076 267.226 13.1792ZM393.033 86.7676C393.151 86.7089 393.239 86.5915 393.591 86.3567C391.213 86.7089 389.1 87.0905 386.957 87.3253C372.662 88.7636 358.954 87.0905 346.244 79.7815C340.667 76.5821 335.824 72.3846 331.069 68.1577C325.404 63.109 319.68 58.207 312.958 54.5672C306.324 50.9861 299.397 48.5498 291.765 48.6378C287.421 48.6965 283.135 49.313 279.055 50.9274C278.761 51.0448 278.468 51.1916 278.116 51.3677C279.026 53.7746 280.053 56.0935 280.787 58.4711C281.433 60.5846 281.844 62.7861 282.225 64.9876C282.372 65.9269 282.519 66.3378 283.634 66.4259C296.168 67.3358 307.762 70.7114 318.065 78.3432C324.053 82.7756 329.865 87.5308 336.617 90.8771C341.108 93.1079 345.863 94.3407 350.853 94.6049C365.5 95.3974 379.678 93.2253 393.033 86.7676ZM282.137 73.9403C297.547 75.8189 310.257 82.8049 321.558 92.7557C332.272 102.178 341.783 112.657 349.767 124.486C353.641 130.24 357.311 136.169 361.391 141.775C365.94 147.998 370.813 153.986 375.715 159.945C380.411 165.698 386.576 169.72 392.622 173.888C400.196 179.113 408.62 182.224 417.308 184.807C422.768 186.422 428.316 187.919 433.893 189.063C437.21 189.739 440.703 189.65 444.167 189.68C443.726 189.474 443.257 189.269 442.816 189.093C429.607 184.103 418.101 176.676 408.238 166.461C400.313 158.243 393.415 149.378 387.398 139.691C374.189 118.469 355.755 103.235 333.035 93.1079C325.903 89.9084 319.416 85.7109 312.899 81.5134C306.999 77.7268 300.776 74.7328 293.937 73.089C290.62 72.2965 287.303 71.8856 283.898 72.1204C282.548 72.1497 281.844 72.6781 282.137 73.9403ZM446.691 187.302C448.922 188.153 451.182 188.946 453.472 189.474C455.468 189.944 457.581 189.973 459.636 190.208C459.694 190.061 459.753 189.915 459.782 189.768C459.166 189.24 458.55 188.711 457.963 188.124C452.356 182.664 447.542 176.53 442.992 170.131C437.063 161.794 433.159 152.401 428.551 143.39C424.764 135.993 420.625 128.831 415.312 122.402C406.448 111.688 395.205 104.585 382.202 100.094C377.975 98.6263 373.513 97.7457 369.14 96.7477C368.024 96.4835 366.792 96.9238 365.588 96.9238C359.659 96.9532 353.7 96.9238 347.771 96.9238H347.213C347.184 97.0119 347.184 97.0999 347.154 97.1586C347.36 97.276 347.536 97.4228 347.741 97.5109C361.185 104.732 372.515 114.624 382.173 126.306C386.693 131.795 390.245 138.077 394.178 144.036C402.103 155.982 411.79 166.256 423.003 175.121C430.106 180.727 438.355 184.103 446.691 187.302ZM467.297 260.509C461.749 254.991 457.111 248.797 453.413 241.899C447.924 231.684 443.99 220.882 440.85 209.787C439.734 205.795 438.619 201.832 437.415 197.869C437.269 197.37 436.623 196.842 436.124 196.725C434.744 196.402 433.335 196.284 431.985 196.108C432.337 203.241 432.719 210.168 433.012 217.096C433.159 220.618 434.597 223.73 435.772 226.929C439.793 237.995 447.513 246.185 456.495 253.347C459.724 255.93 463.187 258.249 466.534 260.685C466.886 260.949 467.326 261.125 467.855 261.184C467.708 260.979 467.532 260.715 467.297 260.509ZM439.411 255.959C448.511 261.419 458.403 264.648 468.941 265.91C469.058 265.91 469.205 265.881 469.234 265.881C453.912 256.194 440.028 245.099 433.365 227.223C433.188 227.281 433.042 227.34 432.866 227.369C432.866 228.661 432.836 229.923 432.866 231.215C433.012 237.115 433.218 243.015 433.365 248.944C433.394 250.441 433.893 251.674 434.979 252.613C436.417 253.758 437.826 255.02 439.411 255.959ZM460.722 305.948C460.751 305.86 460.78 305.772 460.81 305.713C459.548 304.598 458.197 303.541 457.023 302.308C451.828 296.878 446.544 291.506 441.554 285.87C439.323 283.316 437.386 280.381 435.918 277.299C431.046 267.172 427.846 256.576 427.318 245.245C427.024 238.817 427.787 232.506 428.11 226.136C428.316 221.704 428.58 217.272 428.786 212.869C429.02 207.673 429.196 202.507 429.402 197.312C429.431 196.343 429.314 195.609 428.052 195.433C420.097 194.23 412.465 191.911 405.098 188.711C404.452 188.447 403.806 188.212 403.043 187.919C403.072 188.242 403.043 188.388 403.131 188.506C407.035 195.051 407.945 202.39 408.532 209.757C409.207 218.123 409.589 226.489 410.234 234.854C410.939 244.13 413.522 252.936 417.426 261.302C422.064 271.164 427.846 280.322 435.008 288.6C440.85 295.351 448.188 300.106 455.761 304.509C457.199 305.361 459.049 305.478 460.722 305.948ZM389.658 206.294C391.125 210.227 392.593 214.131 394.119 218.035C397.466 226.547 399.755 235.353 401.693 244.306C403.131 250.999 405.097 257.574 406.947 264.178C408.532 269.873 411.937 274.599 415.136 279.471C418.747 284.931 422.886 289.95 427.641 294.441C428.492 295.234 429.49 295.938 430.576 296.408C435.038 298.345 439.558 300.165 444.079 302.014C444.137 301.868 444.225 301.721 444.284 301.545C444.02 301.31 443.756 301.046 443.462 300.84C437.092 296.555 431.985 291.007 427.523 284.813C419.187 273.278 412.289 261.008 408.972 246.977C407.152 239.345 406.506 231.567 405.978 223.788C405.391 215.423 405.45 206.998 403.689 198.779C403.013 195.697 401.839 192.703 400.959 189.65C400.137 186.745 397.965 185.453 395.088 184.543C395.44 191.881 392.769 198.28 389.658 204.562C389.423 205.002 389.482 205.765 389.658 206.294ZM362.095 225.814C371.576 219.62 379.032 211.548 384.345 201.539C387.251 196.049 388.425 190.032 389.482 183.956C389.922 181.373 389.129 179.993 387.045 178.643C378.562 173.125 372.134 165.552 366.41 157.333C366.146 156.951 365.852 156.569 365.559 156.188C365.5 156.129 365.412 156.07 365.265 155.982C374.629 181.754 373.954 206.206 356.313 228.808C358.25 227.81 360.305 226.988 362.095 225.814ZM333.681 110.103C337.967 117.471 338.495 125.602 338.025 133.791C337.82 137.284 338.495 139.779 340.961 142.509C349.532 152.049 355.138 163.291 358.279 175.737C361.303 187.801 362.359 199.953 360.216 212.252C359.688 215.276 358.69 218.24 357.898 221.205C357.927 221.264 357.956 221.293 358.015 221.352C358.778 220.148 359.6 218.974 360.275 217.741C366.792 205.677 369.61 192.909 368.142 179.171C366.498 164.025 361.596 150.112 353.113 137.402C348.798 130.944 344.777 124.31 340.462 117.853C338.466 114.859 336.088 112.099 333.916 109.223C333.799 109.281 333.711 109.34 333.623 109.399C333.564 109.663 333.564 109.927 333.681 110.103ZM332.977 155.865C332.801 155.219 332.566 154.632 332.478 153.986C332.008 151.139 331.304 148.292 331.216 145.415C331.039 140.895 331.128 136.345 331.392 131.854C331.92 122.901 329.484 114.712 325.462 106.875C321.206 98.6263 310.492 88.7636 304.475 85.0651C306.94 88.1472 309.465 91.2586 311.872 94.3994C317.332 101.503 320.091 109.663 321.118 118.498C321.676 123.312 321.911 128.185 322.879 132.94C324.523 140.983 327.458 148.556 332.243 155.307C332.36 155.513 332.536 155.718 332.977 155.865ZM297.694 93.6069C302.156 100.916 304.534 108.9 306.265 117.236C309.025 130.621 315.365 142.333 324.141 152.695C326.108 154.984 328.838 156.628 331.216 158.565C331.333 158.419 331.48 158.301 331.597 158.155C330.922 157.127 330.188 156.129 329.572 155.072C323.848 145.474 320.208 135.171 319.416 124.017C318.271 107.696 311.608 94.194 299.367 83.3626C294.671 79.1945 289.241 77.1104 282.988 76.8756C281.755 76.8169 280.904 77.0811 280.493 78.3726C280.288 78.989 279.877 79.5467 279.495 80.2806C280.435 80.6034 281.315 80.9263 282.196 81.2199C288.888 83.4507 294.025 87.5601 297.694 93.6069ZM283.194 128.038C284.544 132.969 286.716 137.607 290.327 141.394C290.532 141.599 290.708 141.805 290.914 142.01C290.972 142.069 291.09 142.069 291.354 142.186C291.002 141.453 290.708 140.807 290.385 140.22C286.423 132.823 287.01 125.484 290.561 118.176C291.295 116.649 292.058 115.093 292.91 113.596C295.463 109.047 295.992 104.145 295.375 99.0666C295.287 98.4208 295.141 97.7457 294.818 97.1586C292.645 93.1372 289.886 89.5855 286.364 86.6502C286.247 86.5328 286.041 86.5034 285.542 86.2686C286.129 87.0024 286.481 87.4134 286.804 87.8537C291.09 93.8711 292.411 100.299 289.211 107.227C288.125 109.604 287.098 112.099 285.483 114.125C282.108 118.41 281.844 123.166 283.194 128.038ZM274.535 86.4741C274.065 87.0024 273.595 87.5308 272.979 88.2059C273.419 88.382 273.683 88.5288 273.918 88.6169C279.348 90.6716 282.343 94.6343 282.988 100.329C283.429 103.998 283.341 107.638 282.548 111.248C282.284 112.422 282.313 113.626 282.196 114.859C282.519 114.829 282.577 114.859 282.607 114.829C285.982 109.105 289.27 103.293 287.92 96.2487C286.922 91.0825 284.192 87.1198 279.055 85.2119C276.736 84.4193 276.178 84.6248 274.535 86.4741ZM238.283 76.3472C238.283 76.4646 238.43 76.5821 238.606 76.8756C239.017 75.7015 239.399 74.7035 239.722 73.6761C242.158 65.3104 246.238 57.7373 250.993 50.5164C253.254 47.0528 255.572 43.5891 258.302 40.507C260.445 38.1 263.146 36.0747 265.817 34.2254C267.343 33.1687 269.28 32.6404 271.1 32.1707C273.302 31.5836 275.386 32.7871 275.797 35.018C276.178 37.0433 276.09 39.1861 275.973 41.2408C275.826 43.7946 275.944 46.2309 276.912 48.6672C279.407 47.9627 281.697 47.1408 284.045 46.6712C294.26 44.5871 303.917 46.2896 313.075 51.1035C319.122 54.2736 324.729 58.1189 329.807 62.7567C333.476 66.103 337.174 69.3905 341.049 72.4726C349.561 79.2238 359.307 83.3333 370.05 84.6248C378.65 85.6815 387.251 85.4174 395.616 82.6875C396.174 82.5114 396.732 82.2766 397.29 82.0711C397.26 81.983 397.231 81.895 397.231 81.8069C396.203 81.8656 395.176 81.983 394.119 82.0124C380.881 82.6288 368.641 79.2532 357.311 72.59C355.373 71.4453 353.583 69.9482 351.91 68.3925C346.127 63.109 340.814 57.4144 335.765 51.4264C330.159 44.7632 324.523 38.0413 317.214 33.11C306.852 26.0946 295.434 22.2493 282.871 23.2767C275.092 23.9225 267.783 26.711 261.032 30.7618C249.35 37.7478 242.804 48.3443 239.957 61.3771C239.017 65.6333 238.753 70.0363 238.225 74.3806C238.166 74.997 238.254 75.7015 238.283 76.3472ZM234.468 70.594C235.201 57.0622 239.458 44.91 249.261 35.2234C251.815 32.6991 254.78 30.4976 257.862 28.6483C263.674 25.1553 269.486 21.6916 275.885 19.3727C276.09 19.2847 276.266 19.1673 276.472 19.0498C276.443 18.9618 276.413 18.8444 276.384 18.7563C274.417 18.9618 272.48 19.1673 270.513 19.4021C263.997 20.1946 257.51 21.1633 251.463 23.9812C241.483 28.5896 232.442 34.4309 225.955 43.5891C223.754 46.7005 221.699 49.9 220.936 53.7453C220.466 56.0935 220.701 58.3831 221.288 60.6726C222.961 67.2477 226.572 72.6487 231.415 77.2865C232.325 78.1378 233.44 78.8129 234.438 79.5467C234.467 76.4353 234.321 73.5 234.468 70.594ZM218.059 92.8437C223.196 95.5736 227.276 95.8377 230.974 92.8144C231.855 92.0805 232.56 91.1119 233.558 90.0552C223.108 87.6776 213.627 84.3313 206.699 76.0243C206.611 76.1418 206.523 76.2298 206.435 76.3472C206.787 76.8756 207.11 77.4333 207.463 77.9617C210.222 82.1885 212.952 86.4154 215.799 90.5835C216.357 91.4348 217.149 92.3447 218.059 92.8437ZM191.993 106.464C192.287 107.285 192.962 108.137 193.696 108.606C196.631 110.456 199.801 111.072 203.265 110.309C208.901 109.047 212.952 105.642 215.946 100.857C216.151 100.505 216.298 99.8591 216.122 99.5949C214.595 97.2467 213.01 94.9571 211.337 92.5502C209.224 95.0158 206.934 97.0119 203.97 97.9512C202.825 98.3034 201.563 98.5089 200.359 98.5676C199.919 98.5969 199.449 98.0686 198.98 97.8044C199.273 97.4815 199.508 97.0412 199.889 96.8064C203.089 94.8397 205.966 92.5502 207.903 89.2333C208.343 88.4701 208.431 87.9417 207.903 87.1786C206.406 85.0358 204.997 82.8343 203.441 80.486C201.181 83.1278 198.569 84.8009 195.428 85.5348C194.606 85.7402 193.725 85.799 192.874 85.7402C192.434 85.7109 192.023 85.2706 191.583 85.0064C191.847 84.6542 192.082 84.2432 192.434 84.0084C195.34 82.0124 197.835 79.6641 199.537 76.5234C199.978 75.7015 200.066 75.1144 199.537 74.3219C198.07 72.091 196.69 69.8308 195.193 67.4532C193.109 69.5079 190.614 70.5353 187.943 71.0343C187.033 71.2104 186.064 71.093 185.154 70.9169C184.802 70.8582 184.362 70.3592 184.244 69.9776C184.186 69.7721 184.685 69.3318 185.007 69.097C187.15 67.3652 189.322 65.6627 191.465 63.9602C192.346 63.2557 192.258 62.5512 191.641 61.6413C190.086 59.3224 188.618 56.9154 187.297 54.802C185.007 55.5945 182.894 56.3577 180.751 56.9741C180.223 57.1209 179.548 56.7393 178.931 56.5925C179.166 56.0348 179.284 55.3597 179.636 54.8901C180.781 53.5692 182.043 52.3363 183.217 51.0154C183.921 50.2229 183.921 49.401 183.276 48.4324C181.925 46.4951 180.693 44.4697 179.665 42.8846C177.64 43.2075 175.937 43.5597 174.235 43.6772C173.706 43.7065 173.149 43.1194 172.591 42.8259C172.943 42.415 173.266 42.004 173.618 41.6224C173.706 41.5344 173.883 41.505 174 41.417C177.023 39.5971 177.17 38.9513 175.233 36.0747C174.235 34.5777 173.237 33.0807 172.268 31.6717C171.094 31.8772 170.037 32.112 168.981 32.2294C168.746 32.2588 168.276 31.9946 168.247 31.7891C168.188 31.5543 168.394 31.1433 168.599 30.9672C170.595 29.1473 170.595 29.1473 169.098 26.8578C165.223 20.9578 161.378 15.0578 157.503 9.18717C157.21 8.74688 156.858 8.30658 156.564 7.89564C156.388 7.95434 156.241 8.01305 156.095 8.07175C156.271 8.80558 156.359 9.53941 156.594 10.2439C161.965 24.8618 167.366 39.4503 172.738 54.0682C179.137 71.5333 185.536 89.0278 191.993 106.464ZM179.9 234.942C184.215 234.355 188.471 233.299 192.903 233.269C195.927 233.24 198.715 231.802 201.122 229.952C203.94 227.78 204.234 224.287 201.974 220.677C198.803 224.229 194.488 225.696 190.056 227.633C193.579 224.375 196.866 221.352 200.124 218.329C198.422 216.362 193.667 214.924 191.7 215.599C191.26 215.745 190.819 216.039 190.555 216.421C189.528 217.83 188.324 219.209 187.59 220.765C185.037 226.136 182.219 231.303 177.346 235.207C178.227 235.148 179.049 235.06 179.9 234.942ZM278.439 441.677C278.585 441.501 278.732 441.325 278.879 441.148C277.851 440.239 276.765 439.387 275.797 438.419C272.098 434.661 268.458 430.845 264.731 427.088C264.202 426.56 263.439 426.09 262.735 425.944C260.328 425.444 257.862 425.092 255.426 424.74C254.457 424.623 253.488 424.711 252.49 424.711C252.461 424.887 252.432 425.063 252.402 425.239C260.21 432.108 268.752 437.773 278.439 441.677ZM99.0026 532.261C102.202 540.245 105.284 548.288 108.66 556.213C110.039 559.442 111.889 562.465 113.738 565.459C115.118 567.69 116.673 568.16 119.139 567.25C124.246 565.371 128.708 562.377 131.643 557.739C136.046 550.783 139.51 543.386 140.567 535.079C141.036 531.321 140.772 527.564 139.627 523.924C139.246 522.692 138.512 521.547 138.013 520.461C135.577 522.721 133.375 524.952 130.939 526.977C127.182 530.089 123.072 532.554 118.258 533.846C111.771 535.578 105.754 534.638 99.9126 531.556C99.531 531.351 99.1494 531.175 98.7678 530.969C98.7384 530.969 98.6797 530.999 98.533 531.028C98.7091 531.38 98.8265 531.82 99.0026 532.261ZM254.897 202.419C247.823 204.973 240.661 206.646 234.497 210.638C233.088 211.548 231.943 213.074 231.063 214.571C228.069 219.767 225.427 225.168 222.345 230.305C219.908 234.385 217.032 238.171 214.361 242.105C214.096 242.457 213.803 242.809 213.48 243.191C217.824 241.752 222.022 240.314 226.249 238.905C231.356 237.203 236.464 235.559 241.542 233.798C242.364 233.504 243.215 232.858 243.714 232.154C247.119 227.281 250.905 222.555 252.637 216.802C253.782 213.104 254.34 209.229 255.044 205.413C255.25 204.474 254.985 203.535 254.897 202.419ZM271.893 299.49C273.272 299.431 274.711 299.255 276.032 299.519C277.851 299.901 278.849 299.167 279.936 297.846C286.687 289.657 293.555 281.555 300.307 273.366C302.42 270.812 304.24 268.023 306.236 265.264C302.714 263.063 299.455 260.626 295.375 259.805C291.148 258.953 286.922 258.102 282.695 257.221C281.873 257.045 281.491 257.398 281.139 258.043C276.531 266.086 271.306 273.689 265.024 280.528C260.357 285.606 255.25 290.273 250.318 295.087C248.264 297.083 246.062 298.991 244.125 300.752C253.283 300.341 262.588 299.901 271.893 299.49ZM226.454 307.445C226.572 308.59 227.041 309.705 227.716 310.996C227.834 310.791 227.892 310.556 228.039 310.351C234.644 300.371 242.98 292.122 252.402 284.843C263.645 276.154 272.95 265.616 280.229 253.494C285.659 244.453 289.417 234.62 291.501 224.199C291.824 222.526 291.882 220.794 292.264 219.121C292.499 218.123 292.968 217.066 293.643 216.274C296.344 213.133 299.191 210.139 301.95 207.028C302.244 206.705 302.361 206.088 302.273 205.648C301.011 198.486 299.72 191.324 298.369 184.191C298.223 183.516 297.665 182.723 297.078 182.342C295.17 181.109 293.086 180.111 291.178 178.878C290.591 178.496 290.004 177.762 289.857 177.087C288.096 167.342 284.632 158.213 280.112 149.466C278.938 147.206 277.558 145.092 276.296 142.891C276.208 142.95 276.09 143.008 275.973 143.067C276.707 145.21 277.411 147.353 278.204 149.466C282.93 161.941 280.464 173.594 274.388 184.895C271.863 189.562 268.576 193.584 264.437 196.93C264.026 197.253 263.674 197.987 263.733 198.456C264.936 207.82 262.999 216.655 259.007 225.109C256.747 229.952 253.312 234.003 249.76 237.936C245.504 242.692 240.866 247.124 236.845 252.055C227.892 263.033 223.871 275.773 224.752 289.921C225.163 295.792 225.838 301.633 226.454 307.445ZM23.8585 389.017C29.5824 394.33 35.2769 399.672 41.0595 404.927C42.3217 406.071 43.7893 406.981 45.1395 408.038C45.844 408.596 46.3724 408.449 47.0475 407.979C49.4544 406.248 51.0689 403.899 52.0963 401.199C55.6187 392.07 56.5579 382.794 53.1823 373.401C52.2724 370.906 50.7754 368.617 49.5132 366.239C49.3664 366.298 49.2196 366.386 49.0435 366.445C46.6953 378.098 36.5097 386.258 22.3908 387.55C23.0072 388.137 23.4182 388.606 23.8585 389.017ZM6.89236 346.573C12.8511 352.942 13.3207 360.486 11.6769 368.499C11.3247 370.231 11.0605 371.963 10.8844 373.724C10.7376 375.485 11.5302 376.836 12.9978 377.834C16.0799 379.918 19.5142 380.916 23.1834 381.209C27.968 381.62 32.5764 381.18 36.4217 378.01C39.6212 375.397 41.7639 371.875 42.9087 367.971C43.349 366.533 42.5858 364.654 42.1162 363.04C41.8226 362.071 41.0888 361.22 40.4724 360.398C38.7699 358.167 38.7699 358.314 36.1868 359.224C31.6958 360.779 27.0873 361.161 22.4789 359.723C22.1266 359.605 21.8625 359.165 21.569 358.842C21.9212 358.578 22.2147 358.167 22.5963 358.079C24.3282 357.727 26.06 357.521 27.7918 357.198C32.4883 356.318 35.6878 353.529 37.4197 349.156C39.6212 343.579 41.6465 337.943 43.8186 332.366C44.6112 330.37 45.6385 328.491 46.4017 326.348C41.7639 330.282 37.1261 334.244 32.4883 338.178C32.3122 338.031 32.1361 337.913 31.96 337.767C32.2535 337.238 32.459 336.622 32.8406 336.182C36.6859 332.072 40.6192 328.051 44.4351 323.912C47.0475 321.065 49.5132 318.1 51.9789 315.135C57.2917 308.795 62.6047 302.425 67.8882 295.997C68.5927 295.146 69.1211 294.118 69.5907 293.091C70.941 290.097 72.2325 287.044 74.9037 284.902C77.5454 282.759 80.5982 282.113 83.8857 282.524C88.3474 283.052 92.6917 282.7 97.1827 281.056C92.9265 285.606 87.3788 286.076 81.5081 286.956C83.24 288.659 84.6195 290.097 86.0872 291.477C93.631 298.58 101.821 304.862 110.186 310.938C116.468 315.488 123.395 318.892 130.205 322.503C134.608 324.851 139.216 326.847 143.59 329.254C148.521 331.955 153.453 334.655 158.061 337.825C160.703 339.616 162.875 342.14 165.018 344.577C171.123 351.475 177.933 357.521 185.565 362.658C186.123 363.04 187.003 363.333 187.649 363.216C191.612 362.453 195.545 361.572 199.743 360.691C197.776 358.167 196.103 356.054 194.488 353.881C192.228 350.858 190.291 347.629 189.176 343.989C187.532 338.618 183.863 334.596 180.282 330.516C175.321 324.881 169.157 320.918 162.611 317.366C158.854 315.311 155.361 312.699 151.545 310.204C151.985 310.145 152.073 310.087 152.161 310.116C160.38 313.873 168.834 317.19 176.319 322.386C180.516 325.321 184.45 328.52 187.59 332.63C187.708 332.777 187.855 332.865 188.178 333.188C187.737 327.875 186.857 322.855 186.945 317.777C187.15 317.748 187.356 317.718 187.561 317.689C187.737 318.716 187.972 319.773 188.119 320.8C189.88 333.246 194.811 344.342 202.678 354.116C202.737 354.175 202.795 354.263 202.854 354.351C206.288 358.549 206.523 358.607 211.719 357.257C214.302 356.582 216.885 355.995 219.556 355.349C219.204 353.412 218.764 351.563 218.529 349.713C217.677 342.815 218.353 336.005 220.466 329.372C221.875 324.939 223.401 320.536 224.84 316.075C225.016 315.517 224.986 314.871 224.898 314.284C223.724 307.973 222.374 301.692 221.405 295.351C220.378 288.6 221.112 281.878 222.374 275.186C223.695 268.112 225.984 261.419 229.712 255.196C231.943 251.498 233.763 247.564 235.818 243.631C235.524 243.66 235.26 243.69 234.996 243.748C227.951 245.803 220.818 247.564 213.92 250.03C204.645 253.347 196.484 258.513 190.585 266.732C188.794 269.256 186.769 271.605 185.095 274.217C181.984 279.119 179.107 284.138 176.113 289.099C175.82 289.569 175.438 289.95 175.086 290.391C174.939 290.332 174.793 290.302 174.675 290.244C174.763 289.598 174.822 288.923 174.969 288.306C175.35 286.78 176.143 285.283 176.113 283.757C176.084 281.379 175.556 278.972 175.115 276.595C175.057 276.242 174.323 275.861 173.824 275.714C159.265 271.106 144.706 266.556 130.146 261.859C125.068 260.216 120.108 258.278 115.147 256.37C110.744 254.668 106.84 252.261 103.611 248.709C101.087 245.95 97.5349 245.04 93.9832 244.482C83.5628 242.868 73.7002 245.069 64.2485 249.355C59.7281 251.41 56.6166 254.815 54.738 259.511C49.2196 273.219 42.7619 286.487 36.0107 299.607C31.4316 308.501 26.3242 316.985 20.4242 325.027C16.5789 330.282 12.7337 335.565 8.91776 340.849C8.12521 341.935 7.4501 343.079 6.71625 344.195C6.12921 345.076 6.1879 345.839 6.89236 346.573Z"
              fill="currentColor"/>
        <path d="M189.352 154.427C189.381 154.368 189.352 154.309 189.381 154.28C189.763 153.957 190.144 153.664 190.497 153.341C190.673 153.722 190.996 154.133 190.996 154.515C190.996 156.364 191.847 157.714 193.432 158.595C195.428 159.74 197.6 159.857 199.625 158.918C201.592 158.008 203.559 156.922 205.202 155.542C207.463 153.664 209.547 151.521 211.513 149.319C217.883 142.245 225.985 138.194 235.055 136.081C238.841 135.2 242.892 135.347 246.825 135.054C247.53 134.995 248.469 134.437 248.939 135.582C248.234 135.846 247.559 136.228 246.855 136.316C243.567 136.756 240.28 137.108 236.933 137.519C237.608 138.752 238.049 139.691 238.606 140.513C240.925 143.948 241.189 148.409 238.783 151.668C237.432 153.517 235.789 155.366 233.822 156.511C227.188 160.385 219.967 162.205 212.218 161.56C210.897 161.442 209.928 161.677 208.93 162.646C204.322 166.961 198.804 167.606 193.285 164.554C190.614 163.145 188.383 157.303 189.352 154.427ZM215.241 156.012C217.237 155.66 219.233 155.395 221.2 154.955C222.991 154.544 224.752 153.957 226.542 153.399C228.949 152.666 230.828 151.227 232.295 149.173C233.704 147.177 233.704 144.681 232.413 142.597C231.943 141.864 231.474 141.629 230.681 142.128C229.067 143.184 227.217 144.036 225.779 145.298C222.345 148.292 219.116 151.491 215.799 154.632C215.535 154.896 215.359 155.219 215.124 155.542C215.153 155.718 215.212 155.865 215.241 156.012Z"
              fill="currentColor"/>
        <path d="M239.898 101.151C240.103 100.681 240.426 100.241 240.69 99.8004C242.598 96.4542 244.741 93.2253 246.326 89.7323C249.496 82.8049 252.461 75.7895 255.308 68.7448C257.363 63.6373 260.034 58.8821 263.204 54.4204C264.143 53.0995 265.347 51.9841 266.462 50.8393C266.726 50.5752 267.196 50.4871 267.548 50.3403C267.666 50.7513 267.959 51.2503 267.842 51.6025C267.343 53.0408 266.785 54.4498 266.139 55.8C265.435 57.2383 264.642 58.6473 263.85 60.0856C266.081 61.8468 267.578 63.9896 267.813 66.3378C268.341 71.1811 267.989 76.0537 265.699 80.398C261.414 88.6756 254.516 94.4581 246.561 99.0372C245.093 99.8885 243.655 100.798 242.187 101.679C241.747 101.943 241.307 102.237 240.808 102.384C240.514 102.472 240.044 102.295 239.81 102.09C239.692 101.884 239.78 101.415 239.898 101.151ZM261.971 77.5801C263.41 74.3512 264.085 70.9756 263.703 67.4532C263.586 66.5433 263.175 65.6627 262.881 64.694C258.596 74.0577 254.398 83.2452 250.201 92.4621C254.897 88.1179 259.3 83.5681 261.971 77.5801Z"
              fill="currentColor"/>
        <path d="M228.186 403.488C237.403 403.019 246.62 402.373 255.778 401.287C261.238 400.641 266.697 399.438 271.893 397.735C278.116 395.71 284.074 392.833 290.151 390.367C291.002 390.015 291.97 389.927 292.88 389.722C292.998 389.957 293.115 390.162 293.203 390.397C291.618 391.688 290.092 393.097 288.389 394.271C286.658 395.475 284.75 396.473 282.9 397.559C288.184 399.643 293.438 401.404 299.074 399.056C298.839 399.584 298.604 399.878 298.311 400.113C297.959 400.436 297.577 400.729 297.166 400.964C293.585 402.96 289.769 403.635 285.718 403.107C283.37 402.813 281.022 402.226 278.644 402.197C275.767 402.167 272.744 402.138 270.014 402.872C263.263 404.692 256.424 405.719 249.467 406.071C243.567 406.394 237.667 406.248 231.767 406.453C223.842 406.717 215.975 406.453 208.138 405.161C205.966 404.809 203.764 404.486 201.563 404.163C201.563 404.134 201.592 404.105 201.592 404.075C210.515 403.899 219.38 403.929 228.186 403.488Z"
              fill="currentColor"/>
        <path d="M328.721 329.342C333.065 325.644 337.615 322.18 342.018 318.511C354.052 308.472 362.976 296.261 368.171 281.379C368.788 279.589 369.698 277.886 370.49 276.125C370.696 276.154 370.901 276.184 371.107 276.213C370.96 278.561 371.048 280.968 370.578 283.258C369.316 289.422 366.968 295.205 364.121 300.87C360.95 307.122 356.724 312.376 351.088 316.486C347.507 319.098 343.779 321.476 340.139 323.971C334.65 327.728 328.75 330.898 323.907 335.565C323.731 335.741 323.466 335.8 322.938 336.064C323.232 335.477 323.29 335.154 323.496 334.919C325.198 333.07 326.783 331.015 328.721 329.342Z"
              fill="currentColor"/>
        <path d="M172.18 205.501C173.912 205.09 175.614 205.883 176.612 207.409C177.875 209.346 178.227 211.489 177.258 213.661C175.438 217.683 172.65 220.941 169.127 223.583C167.836 224.551 166.339 224.933 164.842 224.17C163.315 223.406 163.198 221.851 163.081 220.442C163.374 215.51 164.871 211.107 168.276 207.556C169.245 206.587 170.8 205.824 172.18 205.501Z"
              fill="currentColor"/>
        <path d="M179.988 407.51C180.105 407.568 180.223 407.657 180.34 407.715C180.223 408.214 180.252 408.831 179.959 409.242C178.726 410.973 177.64 412.852 176.113 414.29C173.853 416.462 170.947 417.695 167.894 418.341C164.783 419.016 162.405 420.572 160.586 423.155C159.206 425.092 157.738 426.971 156.241 428.82C148.697 438.331 140.713 447.489 131.761 455.708C131.144 456.265 130.499 456.735 129.853 457.263C129.765 457.175 129.677 457.087 129.618 456.999C130.146 456.353 130.616 455.678 131.174 455.062C139.862 445.845 147.964 436.1 154.95 425.503C156.359 423.36 157.797 421.218 159.353 419.163C161.29 416.58 163.902 415.083 167.19 414.76C171.182 414.349 174.704 412.852 177.493 409.858C178.256 409.007 179.137 408.273 179.988 407.51Z"
              fill="currentColor"/>
        <path d="M366.938 303.57C376.038 295.909 381.409 285.958 384.668 274.716C384.814 274.217 385.079 273.777 385.284 273.307C385.46 273.336 385.636 273.366 385.812 273.395C385.9 275.626 386.165 277.886 386.018 280.087C385.871 282.172 385.284 284.197 384.873 286.252C383.141 294.852 378.386 301.134 370.402 304.832C368.494 305.713 366.469 306.3 364.238 307.092C364.326 306.447 364.296 306.27 364.355 306.182C365.206 305.302 365.999 304.333 366.938 303.57Z"
              fill="currentColor"/>
        <path d="M190.878 179.259C190.673 179.7 190.585 180.228 190.291 180.58C185.095 186.598 181.514 193.701 177.17 200.276C176.495 201.333 175.82 201.45 174.734 201.304C173.442 201.128 172.063 200.981 170.83 201.274C166.808 202.214 163.726 204.591 161.466 208.026C160.879 208.877 160.38 209.787 159.822 210.667C159.705 210.638 159.588 210.609 159.5 210.55C160.028 208.554 160.615 206.587 161.026 204.562C162.317 198.251 169.626 195.697 174.822 195.316C175.791 195.257 176.378 195.022 176.965 194.318C180.81 189.709 184.655 185.13 188.53 180.551C189.088 179.905 189.851 179.465 190.526 178.937C190.643 179.083 190.761 179.171 190.878 179.259Z"
              fill="currentColor"/>
        <path d="M170.096 399.819C170.331 399.526 170.478 399.115 170.8 398.939C171.211 398.674 171.857 398.293 172.121 398.44C173.589 399.232 174.616 398.498 175.702 397.706C176.201 397.353 176.788 397.119 177.376 396.913C179.959 396.003 181.808 396.943 182.688 399.526C182.806 399.848 183.246 400.054 183.569 400.377C183.099 401.257 183.393 402.725 181.632 402.608C181.397 402.578 181.133 403.136 180.898 403.43C179.43 405.308 177.728 406.864 175.438 407.686C173.941 408.214 172.327 408.654 170.947 407.51C169.568 406.336 170.184 404.839 170.624 403.342C168.54 401.874 168.54 401.874 170.096 399.819ZM179.019 401.933C179.636 401.199 179.284 400.729 178.374 400.612C176.231 400.318 173.971 402.314 173.589 405.073C175.849 404.516 177.669 403.576 179.019 401.933Z"
              fill="currentColor"/>
        <path d="M121.047 516.88C121.106 516.821 121.194 516.733 121.282 516.733C121.722 516.704 122.25 516.528 122.603 516.704C122.867 516.85 122.984 517.438 122.955 517.819C122.925 518.259 122.72 518.729 122.485 519.14C120.372 522.897 117.055 524.717 113.268 525.069C110.979 525.099 109.746 524.335 109.628 523.132C109.54 522.105 110.421 521.165 112.035 520.96C115.47 520.52 118.581 519.404 121.047 516.88Z"
              fill="currentColor"/>
        <path d="M267.372 342.14C266.991 342.199 266.58 342.14 266.198 342.14C266.139 341.964 266.11 341.759 266.051 341.582C266.55 341.289 267.02 340.849 267.578 340.731C269.515 340.35 271.482 339.909 273.478 339.821C275.474 339.733 277.352 340.438 278.703 341.993C279.084 342.434 279.026 343.256 279.172 343.901C278.615 343.843 277.998 343.931 277.499 343.725C274.241 342.258 270.924 341.582 267.372 342.14Z"
              fill="currentColor"/>
        <path d="M177.111 378.48C176.788 378.069 176.554 377.452 176.524 376.924C176.495 376.278 176.935 375.926 177.552 376.425C180.252 378.685 183.481 379.008 186.798 379.272C187.708 379.331 188.588 379.536 189.498 379.654C189.498 379.83 189.498 379.977 189.498 380.153C189.263 380.27 189.029 380.476 188.794 380.505C186.68 380.74 184.538 381.092 182.424 381.121C180.223 381.209 178.432 380.182 177.111 378.48Z"
              fill="currentColor"/>
        <path d="M81.2732 264.266C85.324 263.268 87.4961 267.084 86.8797 269.873C86.6742 270.753 86.3513 271.575 87.2612 272.28C87.408 272.397 87.4374 272.984 87.2612 273.19C86.5274 274.158 85.7642 275.127 84.8836 275.949C84.6195 276.184 83.6508 276.154 83.3866 275.861C82.6822 275.127 82.0657 275.333 81.2438 275.567C77.7215 276.595 74.8155 274.481 74.8449 271.047C74.9036 268.024 77.8095 265.118 81.2732 264.266ZM79.5707 272.544C80.8329 272.603 83.2692 270.724 83.2692 269.491C83.2692 268.992 82.6235 268.17 82.1538 268.082C80.6862 267.789 78.8956 268.963 78.2498 270.372C77.7215 271.546 78.3085 272.485 79.5707 272.544Z"
              fill="currentColor"/>
        <path d="M66.0095 261.595C70.0896 257.163 75.3438 255.519 81.2144 255.695C81.2731 255.812 81.3025 255.959 81.3612 256.077C80.8622 256.311 80.3926 256.605 79.8642 256.722C78.9836 256.928 78.0443 256.899 77.2224 257.221C71.8214 259.364 68.0055 263.151 66.1563 268.699C65.5399 270.548 65.217 272.485 64.718 274.364C64.6299 274.716 64.219 274.951 63.9548 275.274C63.72 274.921 63.2503 274.54 63.2797 274.217C63.4264 271.311 63.4558 268.405 63.9254 265.558C64.1602 264.149 65.0115 262.681 66.0095 261.595Z"
              fill="currentColor"/>
        <path d="M28.5256 376.102C29.4649 375.926 30.3455 375.427 31.2555 375.104C31.3142 375.221 31.3435 375.339 31.4022 375.456C29.0833 377.893 26.3241 379.448 22.8311 379.478C22.4201 379.478 21.8918 379.507 21.5983 379.272C21.158 378.949 20.8938 378.392 20.5415 377.922C21.0406 377.658 21.4808 377.247 22.0092 377.129C24.152 376.777 26.3535 376.542 28.5256 376.102Z"
              fill="currentColor"/>
        <path d="M77.9269 264.325C77.516 264.442 76.7822 264.295 76.606 264.002C76.4006 263.708 76.518 262.857 76.7821 262.652C77.5747 262.035 78.514 261.624 79.512 261.067C80.1578 261.478 80.6861 261.712 81.0677 262.123C81.1558 262.241 80.8035 263.004 80.4806 263.18C79.7175 263.679 78.8369 264.061 77.9269 264.325Z"
              fill="currentColor"/>
    </g>
</svg>
